<mxfile host="www.draw.io" modified="2020-09-27T11:29:47.332Z" agent="5.0 (Macintosh; Intel Mac OS X 10_15_6) AppleWebKit/537.36 (KHTML, like Gecko) Chrome/85.0.4183.121 Safari/537.36" etag="9EVYpWVmH_1EkBZxFHtu" version="13.6.5" type="github">
  <diagram id="Y6bwSErekOhA0xSeW69y" name="ページ1">
    <mxGraphModel dx="5365" dy="648" grid="1" gridSize="10" guides="1" tooltips="1" connect="1" arrows="1" fold="1" page="1" pageScale="1" pageWidth="4681" pageHeight="3300" math="0" shadow="0">
      <root>
        <mxCell id="0" />
        <mxCell id="1" parent="0" />
        <mxCell id="alU_MBT53UwqVfEiX-St-6" value="" style="rounded=0;whiteSpace=wrap;html=1;fillColor=none;strokeWidth=1;" vertex="1" parent="1">
          <mxGeometry x="160" y="238.5" width="440" height="241.5" as="geometry" />
        </mxCell>
        <mxCell id="alU_MBT53UwqVfEiX-St-7" value="" style="rounded=0;whiteSpace=wrap;html=1;strokeWidth=1;fillColor=none;" vertex="1" parent="1">
          <mxGeometry x="200" y="307" width="120" height="133" as="geometry" />
        </mxCell>
        <mxCell id="alU_MBT53UwqVfEiX-St-2" value="" style="outlineConnect=0;dashed=0;verticalLabelPosition=bottom;verticalAlign=top;align=center;html=1;shape=mxgraph.aws3.cloudwatch;fillColor=#759C3E;gradientColor=none;" vertex="1" parent="1">
          <mxGeometry x="360" y="271.67" width="50" height="48.33" as="geometry" />
        </mxCell>
        <mxCell id="alU_MBT53UwqVfEiX-St-3" value="" style="outlineConnect=0;dashed=0;verticalLabelPosition=bottom;verticalAlign=top;align=center;html=1;shape=mxgraph.aws3.elasticsearch_service;fillColor=#F58534;gradientColor=none;" vertex="1" parent="1">
          <mxGeometry x="520" y="270.34000000000003" width="50" height="51" as="geometry" />
        </mxCell>
        <mxCell id="alU_MBT53UwqVfEiX-St-8" value="" style="shape=image;verticalLabelPosition=bottom;labelBackgroundColor=#ffffff;verticalAlign=top;aspect=fixed;imageAspect=0;image=data:image/png,iVBORw0KGgoAAAANSUhEUgAAAVEAAAHCCAYAAABWhPqvAAAABHNCSVQICAgIfAhkiAAAAF96VFh0UmF3IHByb2ZpbGUgdHlwZSBBUFAxAAAImeNKT81LLcpMVigoyk/LzEnlUgADYxMuE0sTS6NEAwMDCwMIMDQwMDYEkkZAtjlUKNEABZiYm6UBoblZspkpiM8FAE+6FWgbLdiMAAAgAElEQVR4nOydeZxlV1Xvv2vvfc69NfWUztAZCCRAIGESFFFxQMDIKI8nRMKQIO+BQiSAij7kGaOo4MgYBBR4REIImqeiODLjiGGGEDAh6RASknR6quq695yz13p/7H3urQYeCZCu6q7a38+nP11Vfe89w739q7X3Wuu3oFAoFAqFQqFQKBQKhcJ3jK3q0WRVj1YoFAqHgEued9KLlhYPjGOr8wtHbTm+EtHR8m1/8Yw37fngoT62P9QHKBQKhUOF2QX+Ltdd9cJqMHiF99Ujna/OrKrwvS74B5oMznzUGfKVd39i9NlDeQ4lEi0UCkckb/+ZEx/cmn/MeLkZz84Nfl1EPIAPDlWja7o4OtD+1XPGX3ki7zp0UldEtFAoHFmY8aZnHv+b3vlHi5N941F3+ux8vd0Hh0YjRmUwrPDe0YzbWwfDcH1s2/f91Guu+4VDcTrhULxooVAoHAre/YYHzT6ODxwwk/uo8QBvMJypGAwDqhC7DucEA5wXZmbr7VXtt48sXnuozqlEooVC4YjgDU/dds5Rx237Hu9k94Gl9nxFFlQV7x0heGKnqFkSUTN8cGBQVZ626W4yjX/e7t/39nPetvtf78zzcnfmixUKhcKdzeUvudcOgDCc+wVBntdGXqrGgqkxnKkwg+WlhlA5QnAIaV9URIid0nVREY5ywT8jzM3+0J19fiUSLRQKhyVnbmfHuWed/JJ6ZvA8VRuNR6333tcIaFRC5RERxuOOZtQxO19jORL1weGcMDrQGsKS8/KO8bi9+dw/uv6ld/Z5lj3RQqFwWPLU/37UT8xtmj2vaSJNE2ecc/jKoZ2CpCX7eNQiThCBGBXMqKqKZhzVOYlOuHl5efy2PV92v/eiv//ybYfiPIuIFgqFw5L5zduf6yuHtAowWZ6rGt4LGg0RwTuHVelrVSMEwcxdeWCp+dBHP7rvFa/7+J7rDuV5FhEtFAqHFX9yzpanLmzZ8vC2jfda2j/G1EAEdeCcoAr1MDA75xmNOromYgZdExEH41H3b4NZOY/F8ehQCygUES0UCocJv/e4TY/aftyWV9e1P9bwCwLmg8MMnAjiUjQ6HrXENhKDw3uhzc83VcAxU9kv/cTLr7litc67iGihUFhz/vKXTnnx0rL8mhdmXPB0baQOQQYzdRLNvIyPXaRrlarOGXnvLDiE4A+Muu4qmvaffuL3b/rQap57EdFCobCmvOnpR//y4pL9r7r2M2oQO0UkLd1jVDSmjHs9qFhaHBMql1o7OzUT+0rbtW8f7d/3n//j4r3vWovzLyVOhUJhzbj0+Se9QrU6X4RBjEYz7gBw3tGMOwbDwPymASA4L7RNBDNArGm6cfDyoZ961dPPRC5cs2sokWihUFhV3vDsB80uVLedXc2EJ1Xe/ViMRlSj61rGozZl2CuPkPRSROhapW0N7x0ioNEE7JZmcfQbaymgUES0UCisIhc/54T7++q2s2dmqy900b67aSKqhnOOUHlm5gaTQvrBMBA7pWkiItC1UbsuRi9SqcYPtaPF33vmm3d9ZK2vqYhooVBYBZLbfD13z7uj9nNNo4tmti21ZSo+OKrKM5xJkiQiIOlZ7bjDB4d38tnxuPvy09543aMPp53IIqKFQuGQ8+e/cM8/VIWocaCREDs92geH847aJws7cYJkcfTe0TaRqvLIwNON435x+t5z37jzhYeTgEIR0UKhcIi59Ofu+qeq9oRm1KkPbiHtawou72+G4Bkt571Qn2zszAwRMNWxOPcBpLtq//7279b6Wr4RRUQLhcIh4a3POebhwc88Kqo80Blzg5mKmPc/EaNtulREL5LaONVooyYvUBHUbNnU/kM7/bOnv27nH6/19fz/KCJaKBQOCXU9/ycicrLAGBHECZad500NjUo0Sx6guRceAwTqoadr4xvcMLznwJ49B9b6Wr4ZRUQLhcIhwJgZnnZy2xniGHjvslly+tfYKVWd5KdrFcuJp6pynapdt7w8vuDpF+18+1qd/bfC4bVDWygUjlje+OS5Rwy3HX0xGN479cEdL5IlJtV25uQRqNrE+7PrlBAchi0JDDTywbNfe/UjjhR5KpFooVC4U7BBPXJOjjNN8mcK1dDRlzGZphntTRtxLnUgJVs7hwO6SGNi/2wa/+VIEVA4ks60UCgctlz8nJN3Oe+2kQ2SESH4NH2ozaIp2UjZLHUkYYZ2igJmejmqn3jq6677DeTIkqUSiRYKhW+bS59/l4eL8w8OPmxru2QWojElimLUFHHmwXFIqv80sxS9ORmb8G7T7lMxNh96xutv+iAXHVkCCkVEC4XCt41RD097lhmPVk3O8uJAzOjaDu8dVVURakGj0o4jhpoaaqre4D+e8uqrn3SkL4iLiBYKhW+Zy84/6Vxz93h413GmiGw+SEQRgniGs3WKSFtFRBgMPU2jIti/Agc+/8ldZx3pAgpFRAuFwrfI5S+++1tV3VMsaq0KamkGkub6pRAcWOp9j1FpU1RqOPmSdd1/jcbLr3/mn3z1L9aDgEIR0UKh8C1w2Qvv9kqHO6eLae6Rc6AKGKnW0wAENaMZtxMjETW+4tT++uyLrj0/ief6EFAoIlooFO4Ab3nW0U+cXVg4px7Uj4/RAMVMME1JJDPQcUxtnT4JZNemxJJ3gsV4cTS9cj2JZ8/6u6JCoXCn8p92AZ959puvHwzCib7yQB7bkfdBq9ojAs04YmYMZyo0KqjSdUan+ndPv+jaR631dRwqiogWCoVvyJ/9/MkXtm04X01DbHUOBMOoqzCZvOmDo2sVVcV5l2o/J/3x4ydoG+fP+ZOffbussfv8oaSIaKFQ+AYY7zz/1I91nd3XexecF7ouTdsEiNHwXqjqMIlKgxecEzODru3e+7TXX/fINb6IVaHsiRYKhYN45/mnXm5y9+0xcg8zggFqafqmVD4VzpMiz9SJlArotVNGTdeIyJcd+u9rfR2rRYlEC4UCAH/6nON+0lfDMwx5fDUIx8dOj9No+L5FMyeNfHDEVmnbCFlcgcUY4ydHiwfeuW/f6IoX/cWL/mU9L+FXUkS0UChw8XNPfIqT6hUhuJPEOcRBbJUupojToiYHJkm98WbkmfAKCNuOnf+Bx1746SPKOOTOwq31CRQKhbXHh+rnxbGj6zS2bUyZdgAjCaVI7nufZuFDcJ33bq/3cu3+XYsPtcueXK/1dawFG+/XRqFQOIj/8+yTXuOCP7euwryq0XWRUDmcS8PiRMCHJKACIBC8o1PT2HVv0Rhve/rrr3/xWl/HWlESS4XCBuWS5574FJXqdZWXrdpP5nDJaQnSuI6uU5wXRPPgOBF1cF3TdrdpF//P016/8zVrfR1rTRHRQmGD8UdPHv7QwjHH/bAhT/QiWzvNmfeUIEIsCWnyBU0S4YMDNbqoqHDz2a/50kPW8BIOK8pyvlDYIFz6vLs8kCq8yIl/qnfQdUqMU5/PlaM8+nlImofKmep+vNyibfc2jfGDe29Z+tJ5l++5bm2v6PCgRKKFwgZBgnsoyEmqGsF5nOByFxIkFyaXs+9tk4rqxaFq7BKRf/VeLnnKq3a+cy2v4XCkiGihsM655LyT3+i9f6iqVGp6lIiYZfs6JM14N0gRpwfBpb1QMcTcq1XjVkEGT/mDL72zLF6/nnJHCoV1zCXn3/N+dbBPajSacYfzKbQUl4rmTa0f9Z6K50lLe001oM3WbQsPPfWBp195xpPftbimF3IYUyLRQmEdcgGEU59z4jkWm+d1EqKpenEyDZssRaB4QTX1vvdLee8E7YjOyfLjX/6Zj5ZY65tTRLRQWIfc43kn/3kdwuON1F0EaXSHDw4fAEvGyX3xpxk4L1TBEVWvijr+g3PfeOMbi4DePkVEC4V1wtt/5sQHm9f7OPwWCeGRCiCp3lPIGXdN7Zp90byp4ZwQHIgT2qZ55dmv2/nCNb2QI4wiooXCEY/xjvPv+iMh1M/WaHc1s3sIzHTRcC75eyLgRZKYimQ3ekNTYn4P4v4lxua6m6++6Y/W9lqOPEqsXigc4Vxy3l3+cmY4ePxoHCdu8ymBlKZsmhmxTdn4UHt8cGnKkUDbxsbMPnL2a655eJGDb49iQFIoHMH88dM2/bg4P+wiINllyaU5764voDcQL/gq/XfXqMROb27b+GExvSy8+hVFQL8Dyp0rFI5Q3vmCUy8FOQtsYoxsaQhn+pO7jvo9UJE0WM47aLvmBWe/duerigR855Q7WCgcURhvftZx59XDmT+oQqgQpiYhAKQyJecdbdOlpb0T2lYRrMPsNnFucPZrr9myxheybiiJpULhCOEdz7/rReLu/m6Ns48JzlVRFXHJKMQ0lcyLZ2okIhMT5VgF8VEJMca/a5cObAzL+VWiRKKFwhHAJc895aEEXhOcPMB7TxeT76ebCGYSzf5/tMbsbWeGql4hjmux9s1nv+6G96zdVaxPSiRaKBzGXPDIuWPufcb2o0z5NZAHRAUjdRitpHdg0mhYbut0ng6ToFg8+7XX/eQanP6GoIhooXCY8vZnHnOK37LpYSj/Q8QeCKmzKP2xg5aRGjX9PDsyWbRbRfwVFrtWu+X3rcX5bxTKcr5QOMy44ALcuT/yw/XdHvaB0aXnn3oZ4h4nwjB2mkcUT70+gUnnURogZ/tMJAr6fot62dNef32xrjvEFBEtFA5LjHc8/9R3ee9/si9dUtU8uqPvh7f8d/pa1b4qaheYyNFPfd2XXrZGJ77hKCJaKBwmvPa/z52x/cRjHobK9yJ8T/DutG6y95n+qzonxKiYGVXlkx8o0Hbaqdlnzn7V1d+FlP/Wq0nZEy0UDhMWtm1uzeQ8591pAG1MAipOcgkTxJgMQ2JnxE7xwWnbxX9eWtzzqioMBkVAV58iooXCGvP2Z97llKe+Zec1oa7eZsapltuOLGWK0t8w6UZSheCFpus+aRovecprr/+dsqhcO8qdLxTWkHc//5S7LDv54ag2B7zKidSWzZFN0z4opGW8qk0s7GKMFz/tddc+o/wXXnvKO1AorBFv+9mT/th7fywit4rJfzPYLHnSZl/32SeVnM++oEldd20/7qjThn5f84/vuWr5wg/SrfGlbGjKcr5QWCNCqI4WeKz3QlTAbOLClMqZssmagalFcRa9yId+8sx7PFl+/O93r+nJFyYUK7xCYRV5wwU7Zi+zy3jHz93tvcCP4USjpojTe5eHxE27kZwT6oFDHLcI7v/Gbnx5EdDDi7KcLxRWC7uMP/+llzykO8ADzdsfOie1IcQupsFxIZmJxM7wPrnPAx0a39eOx5effdENb1jrSyh8PUVEC4VV4G3P3PLDwy3bf1FEtoA9wIw5VZvseQK43pEpDY/TOjjXRf2bJ//h1Y9d27MvfDPKcr5QOMRc8twTzh9uOertqvbjMdp9nXNz4gQRR/L/lMm4YkhmIhrNNa3+ly0v//YFdsGann/hm1Mi0ULhkGK88wX3OOCdzJgABmrJacmSBSjeTWMZNYum+hFT3W6qH3nqRTt/Zs1OvXCHKCJaKBwK7ALe9NMXnbntqM3nIu4nY2ch1XwmJe2X8GaWlvFOEIzgHU/8vavks/ZkzpB3reUVFO4gpcSpUDgEXPL8t/yq27T5hYLb0uWRxdPBcWlUsZkRGwWMIBCjmpr9HQhnlPDmiKHsiRYKdyJ/9vMn3wvAVO7nnW0ZN5F23NE2MRXNu1QH6nJRvQ+OEAQ1+2jTjR/wU6+8+tFrfQ2Fb43y+65QuJO46ImbTzn2rluOUQvnROVpGPN525OoiimEyk8y8CKCqqqI7Pmu07ecdtpzrrh1ra+h8K1TRLRQuBN4zwV3P33/fvm4w6QKvjJJlnVt0wEp+uyaiA8uiWrUEY6/f+qnrnkCHyz/DY9kynK+UPgOufT8U/5ucR//5MxqVapRE2mbmJbtLnUgda0i/fK9coB95qmvueYJF51w8ta1Pv/Cd0ZJLBUK3wY/bO/nMY97/D1OPGX7O+o6PChGI0ZNozvUMAddG4kxjfRIy3fwDqKyN7ajS0F47iWUFs4jnLKOKBS+BS57wd3+SJy/pyE3iukx3rlHmHOA0YzjZK9TJJkpd23KvhuoRX1vXfvtdN3lZ71uZxnfsU4okWihcAd5x3l3fbdz4bE+CFFtWTsZjlslhCSYSTiTiUiq/xQsuzOZsdfNyHvO+oNrXrnW11G4cykiWih8E/7kp046fuaoeLJZdwzOP6qLCs4DMqOmyTjECUja/zSykbKBCQhGVBs5b8+oNF5Bn64vrBuKiBYK34TBVn7QV7Pnm1kbvPNdbxqSdBIfXBbLHI0CsUtu9IKgxt7YjV999mtv+GsAShy67ii/EwuFb8A7zrvLi31Vf7+ZPdg52a4RZ5hPdZ6S3Zfy7CMF8akTKQ2UE7wXui5eddYfvvReyDPX9mIKh5QSiRYKK3jzM7c/tq5nd4xGevrA6YOduB1m4IJgKrnrCHr3JTMwUVBDs6lI8KBqpm3ztiKg658iooXCBGN2/m6PFu/PclHHghxHCjCJbVqiewQVNzEQSTOR3GSgHFjXNM3F0H787Nfd+Jq1uY7CalKK7QuFzO73P2GLiTsVZNtgUO0wMyGP7QDQHG3GqGhUYpfqQIHJFE7n5Abrmvef/doioBuFIqKFDc8bnr1jO3YZf/vnn/p359yPmUHX6cTzM6rhvBBCtqyTqZ2dmNF1kdjpAdP4MmL7wi9c1/zlWl9TYfUoiaVCAeMdzzvlNS7488yMGJNomqXIM3iHCy6VLaXRHelZaq1F+1c13Reb5sPPeNNXfmdtr6OwFpQ90cKG5tLz73ahD/f8IeeqH+l73PvZR5BFM+TSJbVJDajzAkInlbu8lrD7M68952286cK1vZjCmlAi0cJhxdUXzB3TDKp7azveIs7LV66QDz/iL/bvOhTH+uwfPGTbp6+75XNVcMd2eelumsqUVKeZo1C5VFBvaV/UVDHogF33v9sxp//bZ3a3z3rzVfsPxTkWDn+KiBYOKz76y5tPWdgsbzLlwTj2ivD5ruNV93np7nenR9w5H9m3nnP0D1Sz89/nK3muc+5u/eCOnBxCo6X57/n76bENAZpm9OCnXfTlj94pJ1M4oikiWlhzPvvSmcf7+cH/Bk434foQ/GndgQhhxex1QUzt+mpz92OnbNt/nTyZ5ts93iXP2/ECCbO/rWp12voU3xfPJ+d5h7hc1pTNRLKxiAo2EmHnWa+65t532g0oHNGU7HxhTfnUb28+hbr+vcHAf3c1E2brgT/NDFydMuEAGMF58b6SYbPb/ennvzh77ndyTB9mvqcObuhEnBreyHugeWZxTr5jMOlCciI4LzcgdnER0MJKSiRaWDO++OqjTx3fOn7XYNZ/lwWHBEFbRTvDohHHhh8mV3htDF8JEg0V9iDyGYRP3/slu597R4936QtOeZk4vyN28VwsBRC9/6eqJdE2Sx4hkwgUTM20XT7nGW+66WKKg0jhayjZ+cIaYTS7Nz3LD8JdzQnipx6cvhIURb2hreEqwdXJVq7rDF/LFu95aNvaD3z2wrnFZl/7Vhtb5fe2N97/Ym7+/x3RIWc64SS8u8WiHWuk5XsXDTXDGZMypqiK9w4fBOedjDvJDvRFQAsHU0S0sCZ8+iVzj3FV/fR66LZ20RAMjWAxZcld5RgMfYoSu2m5kQGxNWJjAFLNDn4xzA2eqa0t6bHxZ2Df333tsd70pGPvtvnE+Rcacqwqx4bgaDWiEcDwwUGcDpTra0MHA080dhn6weW9ez+yirencARRRLSwJtSb/Fa8OzpmkRTJfnIOXF5Hi3f4QSCOOrpxTEtuIU/JtL5WE2dsV7XgRH7lMxdueqITvfadv7r48gtB3/b8U+4z6+V0V/szNXJSjEozTm2bKw2U+9d1KiDWAR8bd/rW9ub9/3DuO2+5eq3vV+HwpYhoYdX5+M/XpyPVU5xjSZwMunGKNMUBmueye4eppohT0n6oC4L6vHc5VpCUQVcRTNliyENROUNqN3zaKxZmN39E3+GNd5v3syBVdphHRAiVnxgox5gSS96nagBF9ou3vzn7Nde8vizfC7dHyc4Xvm0+9eKZEz9rp3sg5VvsDj7RuaO7RneYSMDAV0JsFG1SStxyjaa2oJ2ibTJBdkHwtUM8hFmHr1M7pjjB1akgPszIVudlRql+5bE/UP3bqUct33UhNMdY1K1qRm54p+/e7JNJIXjq2mNmB0TiJZu3DS8tAlq4I5RPSeEO8+lfGvxIvWl4Vte1f9Xcxo1hs3+ND07cgI84c1+65y/d7w3IB/OjDXv38TPyuBuXv/Z1PveyhdcM6+q86Htz42RsbNEQn7Ll4sB5B5J/7gQJpJkb+Tn5MMROkyVdXprHJtvWBYcaECNf3L2FZa1xuXxJNSWTeuGXdJxPd+3Sbz/9DV99x6G+l4X1QxHRwh3myt/c9Eoz91QTGgeYsi14hirSmdkXMNuN6FI3tteH2r/EOrupbbp/czPhH+770n3/+alfmX/u/NHuo+2SPgLCb5l3SADrkkiqGmHoEITmQMRXudUyQhgI5GFw5PZMcckUOY4j3VhTlJofozGro6U5R/vbIbcsD1hqAmaCGmhMffCh9nRdXFrav//c//mWW/5sLe9x4cijiGjhDmJc+VtbbzNlq68cvkoC1i5HUHLkmBI9qpgTpGvyHHaxG4l2I4i6SqKr5R4W2WyKnxTUSzqGr/KwtzY7KakRW837pLJiDEfvNg/dKGIKfuAm5yBeiGNFW03PExi1ws1LM9xyYBaRvLQHZoeexaXml5/6umtfsVZ3t3DkUhJLhTvEFb84c1Yc17MuuLRPGSWVnbveMg50muUWtVyULuC924Fnh2HLiCDeDS2qaG6rrGY92iniBe3SfqivUuulrz3ihW4UiRFcyM5KaiAOiylS7aNWM8MiSEwiKS6dJyIMa+OksITzwuI4MIoVAuOlxdFbdn1p8fVre4cLRypFRAt3iGpQ/4aYDGKX9hHFGX7gJkkgV/UtkzIZ1iYhRXqxy+LqmXFOUi1oP00jL73FTZfuGLSjSKgcSHqgCy7XkKYCfBHQDlDDuRR59nuqk2N+bXNRnol0wnAfe6TmusWtRIsfOvuinT+7GvewsD4pIlq4Q7jKbvLB3QNl2g4ZpyVDSVhzGVLMD0AmjwHAJCeBsuD6JGrdSAnDVChiqjjvCFVu92xTS6bLXU2ahVIcYLkQX6AbK2QrJm2zKLtppGzRUpLJDFXHXNXhrN25f3H0R2twOwvriCKihTuGOIfmwM4JotkmLu9bouTldBbZLGhpFnuORF0WXDWMPgFE+l5tIsZgaBRcVt8U3aZEkEgSUJcTURPz5JiSTS64yf5qSu2n0zdjsgfqAoja4ndtv/WNd3/V4uWrdxML65EiooXb5eo37LjL+ObFL6v4FB12hvikq0if4LFp5twMI4mieMFrWrK3DTSdsNRWzFTKMEQ8itQ5Cs17mLHNe56VTJbnZmAdWFZFlV6YU/RLBe2BSGx0IqQWDZMsxF4gzZ3rj1Xvj/L+YihS+E4pxfaF2+XU53xlJyLzPid+TNO+ZLcc0UZTUig/VqNNyo/6cqPpeGHjtmaO/XGG6xY3cctohhEBkSy4TvpcFC4v5y2/Xq5VmpJfs8/YpyiXvO+Za09XPryPWvPcJEHq2rk3XfmyTX97qO9fYX1TRLRwBxC0iV1sNCeIZBIBupBs6mKXkkXaKtb1S/rcFw8caAO7lgfsjwMOxJq2g1uWaq7bPcTa6bIcywKahdEFmS7zBSQIfiD4ocNVyT4PS6YkfuAIw9TJ1Lfi53KBtL1g0z9mYMLJOP+9n71w+PNrdGML64AiooXb5d32IIBpQigLqa+nCSJx01rRlc5LCPhg7OuGXL9vnuVlpc1mImpCEIiuTypNo80UVSax006zs9O0kN46TRGn2sSDlBy5aps3ZvvifFkRpcLUM9SY8yJbXVU9crXuZWH9UfZEC7fLqa+4+ocshOMsB4Q+5Ex52ydq8lKc3LbZGd1IqWYdEhy3LA7YN6qYmQ2YahJBQLTDXECrGufaFVn81LrZR7ziU82oADEqmutFya2iFvN+bN/FpLlG1MtkF0AhJcM0J70wJAidWkPUMiup8G1TdtQ3AJ94UfVd9dbBQ8y5gLJNY7dNIjfc5zcO/M7VL996l6Zp79bs7/T+vzv68Nc+97MXzP4qvnqK83IvywLk6tQ91DWKy9FdP6ddBGKT9kslCNWM4/p989y0r6YKfZIoGX6oGVtnO05cWMQRcyIqi1xOMvW2d5NSqVw65UKKSLvRtJvJ9U5Pbd5G8CvGfZAjXejnzeUe+r7iQD97xv/ed59D+04U1iMlEt0A1FuGPy3eP1HgKhwP8n6wSWPc87mXbfpvjeoequr4wVHV8Z/7zcGSdbrrjAv2Pwjgc78+/zqz8H2Y7jCTEcIQl/c6bcUUTM2TMXNWyAWZFOJjcMLCAQ6MhKVYE3zan4xRMWDcGMFaFJfclWLSN+d6J/uIWNoLdSFl2LWzlMG3bFKCTQr8bWLsbEiuU8UlcQYmyateqDFL1QWRTav/zhTWAyUSXed89tfnftf58CTv3Mmxr92EZH4Mk2is3zd0Am1nX0XsGhH33dppwFBXOZ/2EvvlcupVJxt5mGaB0tS9ZEoqN6qS6F2/b459Ots70RFjWq63rbFjYcyOLcuELNCmKZOfWjotn5tMztH6BFEW7CTi6Xy01dT2mbuYtNUsopJbRae99+KYJJwEQ9X+7D4X7nvSmr1ZhSOSEomuY668YOEZJv5cH2R7jH2HUO7cyRHaxO0oF6ZHM5xwrIgcawLiHZj5viWzLyXqO5aAHBGmGkypXBKp3tYuQlTh6Lkx7VJgz5LDhzS7SMRRV8qu0YCtTcusG+Nqj+V9zz6KdJ5UWpWP4zwTMZ+UU5ESTKZMWlCxNDW0d32C3lYvPcb65Fd6aOec7Ch1o4VvlZKdX3o4PKsAACAASURBVKd86sUzDyG4o6RiV9/NY/2yNzlyHOyhbNPidRNILnF5Cd33wwupldKn5XqvNdaLVN9eqUlAezf6EKDyRhuzVR2kpbYaMRqduskyXLNjU+/E5IJMIk+XS54sp+1dFumVF5LOl4mRSb+07z1LJ+VN2res5kJ8JDgvP/D5l29975W/vVBKngp3mCKi65WaY1TkkaZUvcZoa1iXv+m7far8EbBpx1BfymSqk+y3Wc7KZwMQbZMTfeokyoYikhM82UxZ+1ZMARNBnWc4U0362cVBCA408l+75xlp2rh0QfCVw3nSUj0X+CPTvU3yPmlvYGKRSVmVdtPnmDJpSYXeASr/rL8PPv1RoHLuR1F3z0P0rhTWIUVE1yn3e9nyX2G2X8d6XDfWHMnlDLbvHZNssiRfubC1HKn2JUST6A3ADB9SQkeyyE0K4z3Tts8+ky6AE4IzKhdpmlQj2qfMY9RJgirioB8+F/IGbV/cn4/Rv66RBbqPbPPjJhn4TF8nSr6kSWJpEj1PtwoAmtbQlid8/MWDOzzPvrCxKSK6jhG4b6jc7CQyyz9MxfCaOoUmIpn/znuj4lOkJ15Q79g7rvjirQt8ZWmexbZm1MjEKclyYsd6AdVeI7NxSGdIjJww2AvtmOXljthFnEiabTQImMHOPTNcs2ueUfLNB5IFXjXrCTN+UvcJ6ZhxpHnYHJOleWx0su85Ed8VbaHi+z3dqXC67F0KedSIcYwEecSqvlmFI5aSWFrHaKfqgsfVaYluuQwptVO6SYJIBDzTvnUVIKZ2zc6Em5ZmuHlxgBnsH1fcsMuxY2HM3HzF5mqc9jG9YdFPupjSvmh6Mc3L/YGL3Hv7IvvaiuuXFtKxs3g5L3QMGKnQNCNqMfwwJYXiWHNHlBy8RM+/EFxe4vcVAuJTdDqJNieRaO7lx/JeqiUTlf41DYhgDrxzo1V6mwpHOEVE1zEG/+YcZ0hOEMVGU82luCQkffSZEzfiJbkk5cgSwPrSp5DERtXAB25dhiVV5jYZoc4PyvWXvZsTTFrXJ0vpgSjbBsatzCDa0TTdQfuVo1a5iZoTgzHTxCR8uRtKo023D1b8AnAhKXFv7jwp2O/NoXNCrI+Y01A7mWxRaJOTWaTzNKG578uWzi5Z+sIdoSzn1zHOu4VO7YCfFKpnN/isnBN3eXIDTzRsRVIGjKjCntEgLb0rx+x8TV171FeYGzCYD/hhv9S2SSH8Qe71eWRH7yxfSceOuX004w6ZJKOm3UW7RwNuGw1zXWc6u26kxLFOXnPSIkqfiV/RS9+Br6GeS0t27ZNOccXN8ek1Yp4D5SrpjU+iLh/46SKghTtKiUTXK2bory7cFKowq50hk71Kw1QmS9uVj596bfYRpKTlbVSiCXihQ2nbSF0HQpUz+n1Em3vSV7wouJylN8Mle2YMqHSMRkdwFc4lx/u+A0lb5abdDu1mOWqhY2BN2ufM2XjrchlVv+9qhjgjDJTBXKrmXziqRSMs3RZwHg7sDXTjFE3TR53GJHJN0bNgUW/VsX3x0L9BhfVCiUTXKyJo073LxL4iQByn9sZ+JEda0vYdQkkE+8SLryWbjMCwisxWcSKNqsk7NFSOqNAu67SFEvJ+a3rsJBrNS/kw4/BDhykEiyzUkaWllmYcV5ol4xx0EXYtDzhwwNJy28tkyd1n5RFHGChbdozZdsKI7XcZcdRJy2w7cUwYKPVQ2bKjYW5rSz2rkyw+5MjUQRimKgDTtI87qOXYauvsK1fnTSqsB0okuo4Rccviab13qMXJOGFTkPzO98Ho1JtDpkmcTmnUMTfs2NcNAaNrk6foeNSm+s/ZaeF68v6cZumZGCVDGCTvz25fRDtlEJQTNglL7RzRDBGXC+tTR1WoAjjHl/bMc/KcsW22Sf30lvZpfW1sOm7EcK7De1I5lgftZNIUkMQ7FfrPbW0ZLwVM3WRfddL+mZsJBKM1u0Y8t672e1U4cimR6Drmfi8/cEU31n+ENHrYVVlgsngkj0437eDJbkna9p1H5H51QyzVd6ZsuEslRjhGGtIi3ZGi376kKW8H6IrZSd04lR85J5gIA99x6tYl5qoOVWUyZhnyJm061q3NLI06Wgm47GM6s61l9qiIG5A+xX3PQN8LP/ntkPaB65nIcCFOCvJ9LZNr104nHVtm9jce99LVeo8KRz5FRNc5971w3/+MUW/wYZqM6d3gtbFpXWVecovLxecxdRo5NWITiV2c9K5Djt6icu2uGUYjmyRpLBuQ9AX9fbtmbI24rMkNP7eDegcD37F12DBwHRoVzd50k+OY0Vjg87u38dXFGjXFOQU8zuWxyEA2gZpm+vskUo6EnYOFo8eptCus6FfNHqPagUTQLj7otF/Z86lD/84U1gtlOb/O+dSvzL/AS32C9gbGqe0oZ+pTqNnPKaKfotnFPCspPXb7fGR/Z+wfpQy48w7nBA+YBA4wBCKVdViXtwaM/Hp5+Swg1YqtAkuRrsfYsWmEc8LOfbMH5cRVk3nJ7FwElHvcex9ekkvTzGyXkl4N01AgH5O+Vr+vWuqj1AiDuZbmQMg1qnlsiBhOjLbji3Tx1Yfy/SisP0odxwbgyt/ccmUYuHupJcPkOI5pY9GBz1Z1IqlG1HkhNjYZOBcGjmrGsXPPPDcvpvKmlPwR2iYm1ySnbB+OOH7+QA4EV3Q9SS6ryh1EvdP8xADEpShx1/KAW5aGLLUBEWjGyuZNHccd27BlyzLzs02qR83z5munVFlQzZj0wkuVjjUpxu+9AhyM9gWW9lWM9gWsywWtOonC90hlL7z3/9r71tV9dwpHOv72H1I4krnyZXPnuUF1lkYLqfA8OR+Jz8bHlvcsXUoq+SoLnQOfzUmsS5HagVgndyfNUzZF8v4mmEZGMbBQdwdFgZbLm/p9UenrPMnn4B0xGgMf2T43JkjKHI1beMB997Lj2EXqMPUrlZyp6jpoutS/771NlvHS9++3Kwr9SX+HoDQHPM2SmzYF5HZ9VfvkGf9733mr984U1gtlT3SdI86d5DobxGZqC9fve2q3wtWpb8HsRw7HabukAZvnWnZsHlFXU5MP5yTPPDKWugE37a8Zd/l1jEl02yexUCb9+y4/JuZxyzmZzkLVMmTMQx58G7NzDdEc2jJpApg6NEnqqoo6EW0J+UUsf+3JvxwSroLBbDdtBTUIlVBXDrO27IMWvi2KiK5z7vWS/b+0vBjf43JmPY4UDorQVkzmJBkVSw7hJn6cMRXMz7iW2nVYfm7XKs04JYRAqGvPbG2TmkttdCLO4tJsJsn+oLG1qSH0CmeludmOM+67h60LIyqnabkd8nOdTFynyK5RoRfsfi/UgdQgg+kEUpMcETuI5rMZieAqGSGycxTj2+/768vPXrU3pbCuKCK6EXBW+aHDBZfKnAyQtHQX51YkXoyuSevtMJP2Ql2dnmMIA9dy8txuKm3oouGDMJytkOxRpwbjLvXlQ17G+2mm3tSSc1R2o+8TWtNxxsLmY8fMb+qoxJgJkSpMmwSgF/jp8rw3H5kkk3qTZk1R9qQ9NCe0Nh3bsP1u47RtITKMGj8mTfOGVXonCuuQIqIbAB+6/xDAxjGN62hSwbwfOPzA5Smbgh86wtBNetldSP8ehi4LrhC84ehoRu1kfry4FHnGCNfvm6WNqXxJeqcoSCIamXQv9cLdV/mLM4YLHYOFiPVPMqhcZOA6vHZ5WyD199Pp1NW+F9Ds7pSc/Jm8Rm6/R8cGLcSxoB27VOP77ED7p6f/xtdPOS0U7iilxGkDEK9a/v3mNPd+jfJCX4XHhDzaQ3uno+xwNHGAX1GzMTE1ntRgCgNvVFVkscuD6jTttXov7B7V7B957rbtAJtnO7TJpUx1XrJn4UuJpZyYyhny4XyXjuVTzadZv9I3NEiqC1UjtjAImtya+nP9mpZ9lGmI0HdOKcTOll3QZfHLv3PGS0e/c8huemHDUER0A3C/S9gNi+/93G9sfYPPfeniBW10sh/qghBbm5YlNTappZx0HWXX+1O2LTOyhp2LCywue1DDe0fMe6MdgeUuMNNFgk9JpL6HHjio/KkfdVzNdCwcm1Lq1k4faxFwUAdL1fAGVqV/n2h9L/D9D+RrjpW/9h5a4xoR/YfBTPWZQ3W/CxuLIqIbBsH7+V9Qwqu946R2rLm2Mi+nsx2cOCG2OplbhOQRHNV0ZpKvHDOmbKla9i97qjq1Y7o4NTfZ2w7Ytydw1HDMtkGT2kE1mZM4L2nZnR2VZjaP2XzsmDgG56YWeiI5KdSmx0mVI88kmKnlfmyOIJOIWaMpiDnB93WoGm23YPtiYMkF/Yvjzo0vhXZN3oXC+qPUiW4gXvve5vM/89AwEwb8aBiY+Jo8AiQXGOW9RdVUviQ5upt0NAG+8pOorzPPUhwARuyU2A+HA8wFmugxha1zDZZnIQF5rEjvyiTMb2sZbkqlTv2+6UpXKQmCq3INaF8ehY0RbkXMi6GY3aiw25k5EbsaaEQkmNgyjqvDUPfUtV0891h+azXveWH9UyLRDcYJ9x3fsrQ7XDm7OZ7eLAcwxbvIeMmzf88AkalI9nuJ/ehibZOJCAZ+IGyeaxDZyw375hm3yRhZnOBxaB6dvNw6ug5CLlMyZDIDCcC5yOzWNjs/Md3bnBR3riigzzWtqdHIbhjM2Cfw3OZMK+1QNYZRZYhjr8Nwlan3OIwDUrEf5UOrea8LG4MiohsI+0fuHYftXaqZaKZCNaNp/9FST7kbCm0TqGcio72e2ICZIzZGN5Kc9dY0jsNSAXxFTKOVEao6hYpqKTJFYDl6PnPTJhaGkYVZY/vschLKxhBvzGxus69p3rv0K8qSALrUfdRX41ubNd5heFvyxn4EqSrAs1ezEfTKshMFb5E9g0fwsdW614WNQxHRDUQUTtYOqko/Nh45L7AgIidYrtPcdHwH1hGXjXro6FrBqbK4q2ZpV4V2iqsFX7vkF9oZM97YPlzGuopG6smcechjlVHGjdCMaloUusj22YZ6XvFBmT8q2y0J2V3JoFtx0jlC7bcWMEOT6+ldYiOfF2+3OMVrX+bkgCpXHuSefZLPyedX5SYXNhxFRDcSSiOeUai4OXb2yTiW0xSOcz4N+7SO1CEEVJVSDaAbCYP5SDWTGt/33FAj0qGdy+2TwtEzIxbqluuXKvaPXB610dd/CvUg4H1gbIYbjti0o2Hh6AbvDLyg49ymmceMiMvn0veD5tpPgdTonl53YGYnu8CVNPn6+t7RfhooJEMA45MoX1idm1zYaJRi+42CQfgx3gd0OEI1a181tUbM1Lq0nE5z6PMeJEnM6gWY396x+diG2S0dw4XIcFNLPRvxtSPMOtwgMDMDd92yH0GpA4jzeY/TEITjjl3kmKP2c9wJB6hmFYuSXOiNifOSdaANaL9890yGy0mVryMPnBODOHYzztCJaxNMHZxSSZWQAuNQNxxYnRtd2GiUSHSjIND+Nd9vxtEGuEA3s0k/Md4n97baVxIEbdJSWtvpc8jzl8wgVLD9lCZN0xy07Ll+iKpgtWO839OMYcY1eOfZstVommQwcswxDUdtG7Fvj2d+c8NwVnGRaVumMFnC90kkIA/JO1hkyd1OEaKZTD+/vflIfh6KuMAoOna7hqvkcew8xHe4sEEpIrqBkAHHmSM6w9HiCOxnwN+a2vcz4ihgpndZ6rPhk2R5/qQ4tdSvbjCca/ADcMFoNnuOmVFO9fvQCHv3V4QBtJ2jro1qoAzqSHCGtQIuJYDomLgt9UtxiwZN/r7vu2+zkUmdwkvtbCS13ajgV44HmUSkHlGjco5/CWdS2joLh4wiohsIi3yZwPeokqI1j6+G9uV2Sf81NtzXeX+vvu2SXKNp7bTbSHLnkWWjj+GcIjUQhDDokldo6APCFnFCay7le8yYHyq+NyfJS27tkklJb12XjiXpHHp3pr5mNJAHyoFFvuoc+7VFXM3KbiUR2C3CZ7qWPQPH3lW6vYUNShHRDUTYx1Xd0SyZMItHiWl1HAZ2Qz3g2LaL98S8ix2TTHffPdT3o6+cJYcDy6YeJC9lnAMVqGsDNSqvyVipzePe+974mP+upj31Qvp3qXK3UpMz8yuMlk3BUv3qZudtcxjgNAJTR3svxkdaz9Uzj+Da1bq3hY1LSSxtIOTJ7JWGf8YQIoICLeIVE/gk2H9Esc+Jty+LR1cWt6cvUjToKqYdRD55kPZ2SZN6T6ZbAV5S37q49PxJZ5Lmjqne37SPOPusfPYD7V/Xsrhb+tTWsZUDxJxYSgd0ZtwYHsl7hx/gukN7NwuFRBHRDYbfy5Uoe5zQ4JAcwQmeVoRPOGe34JgRh0OziIWpYIpLAthHheLBzSSzZaKhY0uJKZlm+bM4mmSRtGyLp2PD8uN7UcVSYsuaFS2gPTJZ3u/HuAaTnXhc3kt1pE7UfweQCw/ydSoUDhlFRDcY8mRuEuWfLLBEyDlxDwRcNcfyYEY/5SVeY2p7J9FgXwifs06pnz3/yfun9EmfsEL1+mRRsn9a1Kg36Fj3W9dHpTIZ3zFxpu+TWjr9mj5q9SBmWKMtxGur+bhLHQ5DxPNVGXLp8GG8d1VuZKGQKSK6AQmOL2pkGUuZbVfnJbpHXEU7mOcKP9RPiGM8rZpPbZ4Ws2N87wva75Xm76X37oSpRZ3ZTVLZVdXAPhzm9QZBb3aSEkSS9l7b/nnZuB6Xx3/0IuoqkAEj8+zEc2UYcEOocBgRR6eBqz75faWts7D6yO0/pLAeGb2bh4ctPA5Am7z01SSoeDS2zLaL8n1qrjGRU6VjW9/X3u+VumTghI1XJIBW/FpO2XQA/Xw10FtDxRVE2maZ7apuHrGjQbZg7DJjXrDjUI6RYLeaeKyhw3AqzDgnR6vp3hDsi7HlP4cDO+DmqUy5efBwXraa965QWEkR0Q1M8wGeQsf9icwgKMo0y53H0I8X3b1MOcbUPQCxFhOP4CeZepJ46rKlJNHKeg+fzJ412qKgV1Wz+jHvWCSm11bBtQ2u9lSxY2DGLMqJfpa9iuyyMU47tiJ0pjIXKm2k5kves0zEiXALyjhUvFIe1vc2FQqrSxHRDU73fh4DfJ8a83Q5Ih3Qt05aOybE6HZolAc6x1EmIK1s1uw435cf6QgkR6bSt2zmQvoqQNvYFwab498GQVWnnzunmKaie8NjBMSFfnQJuCTugsNycb5Xw9OyVO3lt+TJLK7qDSsUvoZSJ7rB8Z4bu8j1wCkINQYs0y/LZeDpNOh1ncqBqO50iTbolB1+KFvESZiMF5lL4qmjtIR3dd4njdCadYi1RFoN+TOXl/2qCBEIkxp9NOatAgFVnOtF3RA8Yi23IeyGifVIobBmFBHd4LT7EBlwNJI/C/2ANwEiaIsg+DBntwQf/7Vb5jjBLVotJ3qzk3S84sX6KFTSPmm/LWCtfQnhaiJCnR/bd03BtPUTUuF+YFpkmov9tcO5wNjgy3T8w+DMYm1XODwoy/kCzXv4Ll9zelS+G+HgX60uj+NIJiGminbLohYYeLPvbltpY+sbEftenNQIJsKMdZgkHyVU4zX10D4QKvZCjjx9Pk7fHdV/EnMxP+SfJ4F1auzzwg1dx82DH+Xy1bgvhcIdoUSiBewAi53nrgKp6hKMfuJmHzn2Uanhg5jHEYF/rpzVdd3NtCoL2rk5wVSjOw2zxjpElTrM27WuYh+Wu6T6qHOl+bIguLQfisfyGfhsZ9eg7HQtH2xu5rbVui+Fwh2hiGiBxU/z1YWHcIN4WnNsIzKEadnTxCU+stItXoDKdRjCUj20D2sTB+LYPF7mWuuYx5nzkZsHFTczwBjleHOl45JHULzBjc6x3wQj7aV6AvNO2WWR/6ofxj+t5j0pFO4oZTlfmGD/yPFt4LlE5lEMnxJE2gFjpvulVa4n1fxved8yZ9rNGaZZIB05eTTMn7VejAVHwEngViK3hQN8QB7Np/tzaf+FHwqRT8sPsnsVb0Gh8C1TItHClMgIYSdwBjkS7UuNJgLq09fa5O/7fU0FTVORRXsDEUuOThPfUJfmzmukE+Vmg910/JfU1CsFFKD6/jKZs3BkUCLRwkF07+FHVXgigXay7O7NQfpC/JX04qorvrev+fdpokgRKjG+rPCFwSP4i0NzFYXC6lF65wsHEUfcaMZX9Gs/G9MC/IMHwUEqS1r5M08SzorU+SQ0eFSTtd1tKB8sAlpYL5RItPB1NH/Ls6i5PzWRUfqZG65YwvfL856+3rNfuqefCRWOiErFjbTsiYYMAm+Vh/WvWigc+ZQ90cLXE2gxGpby/CLJAtpHmzUHT9XM+6QHCWhkrMYHMFo/Yl/1WP5jDa6kUDjkFBEtfB1V4H0K2kXuKo7tk6pNOEgwJ1uhvXnydInvgc8Nz+RvV/fMC4XVp+yJFr4OeRhf1jHXieOoSQZ+kP8xkvZAu/Rz148q7h8nBDOuix3vX4tzLxRWmyKihW9I2MfHUT5Nm7uM9Osfo/2+6LR43jA+VgfeNVPmvBc2CEVEC98QeTKL9Zm8GVnxGVk5Hx4OrhfNT6Nm/Gs/WgS0sHEoIlr4pjjP+w76Qd/3nm3u+lHKk8cfYNeFUobEFTYOJbFU+KbEFhWfc0iBg7Pw2eFJk4iKgy48ir9fo1MtFNaEEokWvindmJ1m7CQ5PE3p60X7KDSC6jfaOS0U1jdFRAvflLnH83GnLAHJR743G3Hpe+27lRwQuWptzrJQWDuKiBa+OQLmWMStSDH17k19T32aEd/iSwdcYeNRRLRwu1TKexD0oE/LyrKn7DPqlBtX/+wKhbWliGjh9hlwuig3a1zxeTFSWrIiZexbgrYcs0ZnWCisGUVEC7dLZxiO/a4fW9yXNfWdSjVpWmfF/dbyPAuFtaCIaOF2CcJXUYb08+I9k0Fzri+SqwA7yNupUNgQFBEt3D7KrBnHo9hBe6Ft7lhqwKUBd9L9PY9auxMtFFafIqKF26UxRlLxBQJxUh/aR6CavEZxiBvQ+b18au3OtFBYfYqIFm6XesiNpuzCcpnT1xTdq4KOMO0YxM3cc63Os1BYC4qIFm4X+QH2a+RYFM+YZIU3JhXf92OU07R6p4FT1/BUC4VVp4ho4XYZ/zWPC3AMhjEANyAlkmby333XUodNB4rcMf7yaZvu3n99+VmbH/ies46eiPDvPv3YOYA/f9LCue984sLL3/642ceufO4lj52/1zd6zQvsgm/lFAqF74jSYVK4XcZ/wwul5q6ENE3JCaakZXxwxG6EMRDpxk5mZuyj/of1sq99jQ///N1P/8Hf/+Ln/vKcHX+Mxo+7Wj4vVt1XvD/NTEPXtF/Ch8c4kZME+7iKvk8bntVFrU05ofYyH4XrncXL7nVG9dv/dbV7iw9+Xz3UK0ZLnan5R+Ps4srJyTEyI8gjH/PHOx/8l+ccdxHiw0+89YZnX/8HZ2w76UWfu+2vn3X8yx9z4o5fkwuvGAFcftaOB37y0md/7EK5cJXvbGE9UES0cLuM/i+PkiFPioZ2Y7EI1WCWenmfLAAnqVLh/VbEbY4jBt0B/ceu1aO/eOX20IyGvmu748LA76u8nGjR6tFyB04+X82Eezlnn4wtp8VOg6nu9sEf7b1QVZ62jYwOdIyWW0SweqYSESwEvxiCWzBjz2i5ucV7dypCB/IxwWYGtb+/rz3i5EDXxNm2s93taHxpjEY9qIYzM9Uzx61+xprRBwj12fWw2hZVLwd2W9u4GLs9qN0Qo14bBoOBa+zjj7n4pivX+n0oHJ4UES18A4x3P/P4B7rKP9C7bvyAh95y92ogT9AorZrNILLJBdsVl93dxTHrxCRGOqmcWGNeInQKn/z346hqz3jUmfNOBAxBVA1TTAQBQw00KtiKkfUGIiBOsPzvqob3Dh8czgvOCdqlF8IM5x2m2mkk+MpR1UmItVM0/j/23jzYku0q7/ytvXfmOefWrblK7+lNpek9DQg0gAQC2czCIMQUIMnQBoRQiyDs6KajO3oIR3QTHWFHNI7u9h/dFrRbNgphGsygASFMIDANMkNLIKSHxNPT8Oaapzudk5l779V/rL0zT8kOg/Sqnh74rIiKqro3zzmZeTK//Nb6vrW2MvRJQ+slNA6y4oIjZ2U288SUd1DmQJszqqox9fGjzvuH1HEqr/Z+rtk69DXDcvjZ73zH+d/55Tce+nv719Jn/+Lj7tP/6JGDTbvrf8KxAdH/JEOpX/1Pf/3p597xxq88y5989FWN6Ff+nbc9+o/e/2P3/O+xz3em7G67+97+JXc952ojjl3NekLCPDiU2K9AHW4m5EEhgzSgCTQqw+A5++g21y5tEXtFREgx44PDeyFlJccMImhWA081CE0x45xDnIFoOwuIQLeKOCc4b8DqneCCIw6ZoYuExpGSEvtUgNbhnBAHW9M5p4yI4BtPTnl8L+cdBYfJWZGyKylZd4F3QggOAVZ9ehBBF427b3+VrmnWq6GR3xeRIe4Pb/Nb/idI3Qde+/ZL//cX4YvdxBchNiD6Nzy+T3+RH/zht3xj1ubF5y7Kr911V/s/o+6oeD7kvLwC3Nf2XXxCVD+GuK9s52FQ1TPdMuK913uevy+333GdrII4hz98L9K2xGsfRqNHXEB8uYwUA1QHOQl7Ow0PfeIIB3sQGhuJn5MaOAkGdE5sSeZkAOqcvVfBU9KQQATvbVy+D26kq85bcTZrRrO9dugTzgm+caQh08w9/dJG8Dtvr3VByFGJMdG0HhGMxVZGjN0Y4gz4ETFWLEIIQs4w9AlxELwjpXxRRE7jJLXB+dUq3p9S+j+d5oe7rnv4zlc8/zOv+q/+cPkUfeWbeIpjA6J/g+M33nrHq1w7+wfeubsP9vtXDn3640NH2ld57yQnvQqcTENWBGmCox8S7SwQk6W/OQl3nLnOHXftQeNwTcQf+0pmd387w7mP0J3/RVAPGmw83qBoAteAeNi7HnjkUwv2rm/hvOC9I8Vkdutd2AAAIABJREFUACTgvKciYgVNcSVNT1q2KaCaIWfbL9WS62PpfWj9DXUAcQ7NShwSvvE4gThkkDWQzkrOinOCOEFE7H0B5xxZ1VL+wnpt32w/7D+2vWbFORApQwUESArCgynpx1X1K0PjLz3r+fPXfeLDV17wPe+8+Bu39lvfxFMdm+VB/gbF7/7De194cHH1hpTyl21vtd+9XCW6/eFxF+SU89J64dVpsNpj7NPJlCC0TmZbLbGPqMLqYGC21ZBjZOgi5x6Zceq2JbOZgiTA0xz7Mvtz2ys5uP+/JkdBkzG5EWgEmrnSLRc0s7quiLHBZmZA5rwBWBryCGqaFRXwXnDBUm+1eiYpZmI0FmtgKIbh2coFFlJYrRo4lp+qWsFVK1iqMUtELIW/gU4o3gtZ6jYYyq+tHFUw3AojzhnARx1BX5R7vZd7rZWLk5/5xPKBpm3+iX7oP/9t+Yqf6W/RJbCJL0JsQPRvQLzrh27/ieDkjv0Lq69JWV+UE4e6ZIQIuFMzpJhIWWmLUIMIPkAIDlTpDgaGUkv0Q0JVSCmTkpDx6DAYaKSMZkuxXXsY3BlEHkalxQWQMDHH+SLx7Bfu8uinj7DaF6txGm4ZJqXKQm9M5cng59aMP6wM3EWgnQW8L4zSm8XZ+Qk0a2jWkoJXdjmVCHQNDCtwSknXR4Jb67RZDUgdE/OstLQyUrUarPMOX449F4ZqH604lcYJqAtf++s//f6H3/eWu68+8dErX/+WP9o/f/Ougk18sWIDon9N470//Mx/gvcvzzmeE8J3NK07lHIBEITYp1FICa2nXTQMq0jf2c9D8AZAWcmrSLeK9MvIoSMzumXEOYeqsn08M9tKaAQihOOvKMwM8rAEfRhVb6DlrN6oCs4rqsKxk0uuXGjJKTB0zVhAMnKnaDSByXmHFBDNOROHjKqOx1BFIt8YeFaALJg3hgElgK7VV42VFjJcXs/4eZXFjgCJiVs52/9DqZuufwYY+3XOkXImZxOqrG7q7PUxQ4aUFbzDiX5NytAGuf2OLzvxjvd9yeGf0SwXvv1fnv29m3RZbOKLEBsQ/WsS7/2R069B/ddldfflLN+Gc0/4xj3bq3c5ZRJC1w1jaioYS/PB0cw8Q2+g4ERIako3qswWgXbeMF8EYp+IQyrpN0VJz6g4fJPJGeL1D4J+LQC5H8gdqDqojA3WrEpCTsKJ21aoztm54hl627kQBNSEG1fEopxHBBwFHh9MkDJ/1AR4CJArezRUz5nyg7IPWlJ9Z/VYdVo+Y+19SoylBMXeuLDTuj1Mdds1c4O9t7gRcOv5ryKWsVpjz6nUdbvoaFv3GvWz16SYP/ruN935wO7lnX/6n71n94NP/krZxFMdGxB92ofdsSKz/823/kV9Fy97zwLhuSJm37Et1NRuLTd2ASmcsNwbONjt0KwcOjIzpqQFKJwrLEuYH2qIRfSJQ8b7xJ1n9nA5kXpFArjmNsTPQBNuNkeCQwrTUybgqvsuHsQLPijidMzlcyqgVOqbORUhyBnwV+rnfEnLs46MUpUbgAzWsFMEUa1yVRGNyr+l2KOybbwOyJbG2ykbM/b6QCq/o9ZenY7135yLbSrYEyQNiZS0MPmypLSa+8B7QfBWN8bANcX8PES+7PDx7W3Y/bZbcw1t4lbGBkSfpvErP3Dyf23ni+/x7syZxN2dF5nlrLSzcDJFRdFRjDHmaSZ0A0EDihQzQZ0BbakHihcWWw2rg4hzxjb3rnfEIXHs1Bbd0uYqOwfHT3bkmInR0mhpwG0/mxR78vIsywffTjrIxLa1AfeuAFC2uSTBgfNw7ETHlSvBbFIjvhoQJREDfi804gle8M72f2lkmUWjmEnJwLbPsAgGgt4VsHMysUwneIHe7KEErEXVeROsjLAqOZsCZmUBQ0sH1On9VZiq51gz4ArHHkWn8h0UYFYFN4Kzga6OxytFTCvNA0nxjd9yZgn75vf+6F2/9bp//tg33fKLaxM3NTYg+jSJ9/7gM17lGtfE1eqYzA/996LyVT44cgYf/KzW6MRVtdhu5KY1s3mKeVS7UfMxqho7leKz9POG3asrFocawNLw0BiLEge+8bCMJjB5x87Vhjvu3rdFPNX2JXGEpEJ227Rn3kDq4GDnT1E3ZyuAF9hdGVFctBATRFX2NZMXkf1l4Ikd5XALqyQEb0LM6W3HIQ8fu5i5tBScZhaNkBVOzpXDrWM/CV6U651yx7ZwdC58+jpseeW27aLWoySE/U45u6u0Do7PleBg23liVFpfLVOQci4MVo2GCjgcLgjOmac1R0Updds1K1ROeSwXiJRzTx4Zsnlgi2UrT1YuTcUXW72wUREnwYl8/a/96F2/vFouf/V7f+7yO5/K628TX3hsQPRpEuLDIVz4L5rt9ltF8TFZO2T1IkLJhNdqnuIEJ47QeFYHA7FXQmu+SXHC0MexS8i5hmZmfsq+S8wXDSlmumU0JqZwcG1F1xlD7fuE3x6IOaBNZq/rmQeYz44j4sEFhtAST7yQ/sqfIkHZ6UEQYipWpwFSgqzCyds6VkcSv3X/Ma52sBUMzIYMdx71PHFBGaJypTMozFlok5BVeHQvE1wBv1LP/OR1ITir8cYEJ+Z5BPGLK3CiHPTKmSPQJVg0ws6g7HbKVmP/b71wJMBuhJmDhYdcmGmKtRCKKey1RppyEc5kLEfYl1PN/1bnrU4Eap1Xp9fnlCdvarYHXQFZ55z7nna2eNb/84ZTf/zGX7j0yaf6OtzE5x8bEP0ixrveeOQNs6NHX68iEvt0VxBeoQoxablZq9LNmE5WxlNbJY172XYxJrMlRS03sdVMRWDootmcEIbOUv6m9bSNY5WEizuJpcLti8CVZeZajJw8oey2SuwhLjOzMz9Kc/JecupIwy57j32A/XPvA5pJfBEd9zcWNdyy28y5q7DbZ1ovDElGwDq3r6z6TEqZWevJORujTACKEzvGIZeUWGBWPsOJtWVeW2WuUs5PlbVEeGTXXmsqvqXeMUMT7En0zIVwEJW5VxoRXnhSaRw0DoYKpF5ovAHdUGoEjfiRmaak5OJ1rfXWWrStjQE+1O/OHjS2nyDeFW+pjs4CRV9y+Mji47/+Y7e95tvedv63n5qrcRNfaGxA9IsQv/oDJ14z3z70v4h3z3IiRwFcK8Ri5xn93XlEoFG9drV+B1ZfdHajzhcBthr2dzuGLtLOA+0soK0WH6WZ2h/egzbDSR2YLwIP78KnrmYu7iZuOz7nQg/LvZ47z2Re+bIlOULqwbXQbJ8afZe+PUqKxfpUrUKugAGMYo0W1V4TxF5LJ5LUrRARuj4x1P72bKBUDzsXMSe4yRhv52N6hCCTS9ShDEmtr76oQpptr5xzmL1UEYxdnjswC1JWax+9tBS2GzixEFaDodqZYw5P4nBbRLBSz83JnAXO2SwAS+0d3lPEpdrtNB2z94I4b/YnZ+LSqss0rYFyGhJpyN6LA5r/DtiA6NM8NiD6FMcv/d1Tr2+2tt6myHHv3OhHNPN4NaorLviiYmeGPo7gaqmijPVRX4Z7ppI2ppQhK7O5NybYJ64PjouxYWu15MIy4HzDZ/ciyz2rOQqOjHB5b0BEWPXKnc4AAZTY9WydhEOnXwI5Iq4F9Zx80Q9xfn+P1bXfhzwbbUg1nBerNQJtq+x3AcTRNsY2qxWqH1IRiayuGYIB6QiMZRBJSrUzyUCPYn63Dk0DzjI+xAaRlHH7KWWa4PGl/qpqpQOBMU33DhpxrBSWK7jQQUpCzMpndrIxX1VOHnLs9sK9x+G2Bcy9gbEPE2DmND7mQHRsWbWDYTLtJyUVARAFH3QsV+SshMa/8v0/9sxv+da3nf03t/CS3MSTjA2IPgXxC98x/9tbp0/9VE79L/jQvKnxcnwYsnZJxbmpzmZRrD3OestTNKbpSk+5qppFSRTNmZzG25UkIIsZcb/nDz+75K5jgYv7ymevRQNE1xJVONgdUBGOtRBE6YdM4x3eCf2g3H5COX08s1opjRgQNUe+t6BZsAKCgPdbLE6/iIMLv49vi1jiql9UJmtQEWNmTebuZ/ZcujIzk78a2FW70ljrHX2f5XclQ3ZV1KnkvLzHuufTOaHBoSgxFrBFSv0Ys3ShZsuS6Xz7YoXKqiSUWfAkp/hozHaZQFXoDoTWOx64pjy+m3nGtueeo1Zq6QZluwFfWvnNAaCj5xXKQ0aE0FgaHxQb1Tf6WQVXOqQaJ0f75N8EbED0aRwbEL3F8etvuv1Fy9XwYlVeuVhsvVJRJDi8IClqmWqkOM34MpJNiqJrQCWoFoaKmbjrGDcpXUUOuHCQub7KnN2Hc7uwt1Ke2Etc60Fzpglw7MiMABwsBw4vGhazQD8kS3W9ELwjpkxMypc856BAkYHb/PjzEecR59HUkTUhzrN/4bPEDtpDtmEabnSkT11Iwqljkefd07Oz69hbWp3RiY2zMz9oYdTJhnpMwz7s55OYZj/OTnDV81mM96kKP07wHtpiek+6PnAEnBYfE8Vor1ZJTWXKVFffwzmUTMqKN4soIrCKcHEncX4lrKIQHHhg2SjLDM86DInCQkt7qzhj/k6mRogcs9nBWj+OCexXkRgz/ZDJWf7We3749rfmob/8XT935Zdu6cW6iS8oNiB6C+M9b3rm343i/5lvvY9DppMyvaiwIx8gJwhtM/WT5+mGEzH/ZE5Wb0vlxr60n2kax5VO8Dnx2LXEw7vG1LwH8Z6thePqfs8QM23jyEnZ2e1oG8/xI3MA9g4GcjYhytJOU5GPHRX2+pZDbU/jbeRbu70wT5CU6SII3fVHGXY+QJiZwuNDVaAnu1ANccIzTkSecXygW8G/+8hhmgaGYs1qikIdy1g737jCHGWc/wH2j1wYZE3418fnuWLeT9k6mMz/CWnIZFcu+KK4azHlq+o4Ti+mXISiiPeOWetpgid3kZiVlBOptJv6cogPXjVwPhzsO9rpze1w5qig44Snch6Kw6La0qypwUoYqkocpvQ+WSvpHbP57G3f/PqXHeHn3n9LrtNNPLnYgOgtil97850/meGrvJe59641w7sWxTyPk9U1q/WZZ0rqp6P30BVAOugyXuByBxcOEsvBOoHO7xtV6waT7qvyi1p62jaepnTSZLVhIzEZI+tjLsp9ETycDfzo+syJY8ozboukFcTekQfYefQDNNtn8OLBeUQdYbZFu32c1FwmdWoWSV9qeqm2YdbOHvvTNHB9f0bTmMjTayLlTENhiCLgJ/x15TykNDkOavfSVDUtHlHNZMzQ3wbPSiN9TFb3XAPjWjZAbNtUfq5aWamOqbiqjq93KIt5Q99bl9h87sdzHbxjL2YD4WzHUcfs1Zknta1UysPBOXB52qZbRupkKTeWRGxn3/XzH/r7wD9+aq7eTXw+4b/YO/A3MX7zx5/9upj0u0TkW5yT4IOT0IYbvIGydpMVs/U4Eq5pPWTYi0LM8Phu5qOX4PwBXO8duz3sDZiQVOZmVqbWx0SMdvPPZ4Gm8cxngRgz3glN48iopdLeEYq67Apb6odEcIH77lniPQzLjubwNqde9PdpFicAh6behKDZUSScprv8QVQDFHORZsW3Qi5+0WztRgCsYuDSNc/V646YjDGC9ZV7EdrG2dzRVC1cjIM9DOhMdLEyg53DlIppXqb6sXduPDcheIKTG0oBJigJtf1TkFGccuJogqNtvTUseDcyWoDgvVnEghtBsYpfWFmYh3aUi/tqY/xUODIXht5Ewdp6WscSChBjHvelZiPeW4toHDLOh2/8/pcfOf7zf7qzmUf6NIsNE73J8b43P/NHM/qmEOR2VdSVXHPsJy83itXulNB4XDCgCI3jylJZHcCJBfzhE5mhjKPrM0VUyYVtlhvNwXwWrGaoVSAxgUJksgjNZpaWVh9jExxeTVSyMMCZNbA1H1gtYTbLhDk84yU/yezwMwtgmNKjmkEz7fYdhEUDJFSDiUo1z9Ub1XoRaHzm6HbkzB0dn31sTiiTpHxhmbmksbGIMVmUlKV4Qo01V6AWB5LriLpJ0IpRGYahCE5C10dmrce5MgFKdWTtqpQ2Txn3UZ2l9TkrMdk59yJ1ij2+gVD1d7d2nNV9hdVPL63gwlI5tcgcnnlmpWSRBi3LktiU/NqSazME8jiTNFVBSowFx6R/6yZdppu4ibEB0ZsdTm5H+WrnLXWmiAvrwzbwJb1NSvZq6WrOXNhXHt+Dxw+gi9mEnZJOhmDsrOsTvqR8AqWWZrXApvGT4o19xqpL9KXupoW5arFCuTJ8JBTTOAizVmmageUSjh03kIjLc3DyecVDXm5sTWXd5CW454I8gEgo4DSlzdQ/1WSeldYrh+aZGBMx1QEolP1ShtLVExqPdxPzzMUj6wQoIpwvbbAeYRgMfJ0T2iJWqVpHU0yK1zzWnqH4V60cbKWA0YNr56k4vIgxk11hnvWQRBiinYvghX6YgN+YsO1bVGXVJx69Ds85XOq0Jfsoe1FrC3aMWW1yVf0eyzVTPvfeW3DFbuJJhvvLN9nEXzV+88fveGlO7ieqQixYLVIKywzNuvruyuqUypWDxBPXE0/sZna6jOZMEKVtLK2saaqqpbxVMQ9BRiCMWVn1sdzYJaX1wtYiMGs9KSmXry65trNi/2BgZ7djuRwMpKrP0gtHtuFrv/w6p44lcnZogqsP/gqiCU0DmhOqGc0DIp4UF6wu/gVpmJEj5IE1r1IRhnxNd+13L3j2ihffe0DKyjDkEXTNGTCt6hkKcDXBRCYtLDVnK1v0vT0ggjfvqXP2sNneapjNQmHkjq15oAl+ZLPT/FADrZTy2CBQrVUVoGetvbeBr/2uliCqGLS/GhhimkC92NCcsyaB673y4KXEpb0MztHOwlii8MEYaWhk3N9ak5Wyk7VX3zd+671vvuv71/xwm3gaxAZEb1bo/0jfy9c57xahcWPvdBpsWk/KSr9KpGjTg1wQmtYGEe8N8LGLyhP7cLUThrL9+kg51OxObetH0JjPGmtfXFP1vRMzlldBo7xF23gbQuIdbevYWrQs5mF0BAyDqdNDVLqu2HGqId3PR28oJMS3iDeF/+DCB4kRNCm+KTahXslxIq01bZ7aGi2NFXGEYPs0Tj7CmF2tNw5DLuyZqT7pANWipOexbOG9sJiHG8ol1QoqoiPbRqtHNRNTIuY10Cq10ZyVIWZyKZF45whFra9+3epbFZU1W5qdg2HIdEOyATIiXFkpH3gcPnVN6WIdNF3KFN7Z8BcwsbF8vriSuVT6C14z/+xf/8CJN96Sa3gTX1BsQPRmhfxPiHOv814WMZqFJae60Nmkuqc6+Qd4dA8+c115fN+xnx1dtq6dNriSxtbUkfHGLWNAiTEzxDQKMME5Zk2wtD+b1zPlPJrRQ3Ac3jLgrIITpeWybrvqI+cvqQ0dcZhlyYOfH0VcAPGIhFL7M4SMy32cx7AJ65tPSYldbY0sSneCNOjI/hZzeMFz8w32Hyi1YSuQjl7ZlAz0qlIfnGMxazi83XL4UGvK9pBGkabvE0OcWmitf7+AdAHTPsJBbwVRcyvAslcOVpEhgneenJXlKpLqLNBSF61qe23THZcFKeZ/XxojZo0vFinHYmYAfGWZeeRK4ko3danlZENIQutGxmvvN5WBxiqKau9kdvTWXcib+HxjUxO9CfEr333ihfPb7v7Gpmm+IcWMlt5v39gNl6L5e1LKeOcQb7MuP35J2S8qe1P7r6lqcfFuFtZmNTZXTOdFYCl1x/nMW91OlVwM/BWbKoPTjKXIjQFRLOBmhn4TaHJWThxNNCFBVlK09++vP4CmHuVGB7z4FhdMfMrJeux9gMaXEXgZPIoPtv9RYRasLphcpvGRGD3BQy2MWsputWTv6ygkQxJXhKdRVEOIWh4YKTNkpY+uWI5ktBSBfT4i9EOiT8rzTyVOHso8utPw2HXH844nnINBrdVzSMrFPY/XaRiKiVw2hKSm6xNbzjhxiBjg+vJ9Jk1rJQq4uFRWSXjeTHhmEIZoCn5OSr+MI6Daqa4IOk3eR+RU0/r/8s9+6sve+ZL/5qP7T80Vvon/WGxA9CZEc7z5Tu/CP7Z6GeOKlZJu9DI6JyRgt4eI0iVovRCjddRoqccZUMg4oDimTMzjLCKGAtI5ZaIaOOa6/noxklfxo7oBqj3HVaGnDMVoG0c3xLHL5+KVhmu7DccPW+nB+xaRy+w+cT+H73wJw8F5XNjCz4+T+x3SAHGAI21mGYUWODzLxCCFOSoxC4fazOV9x8nDytAr9z8UePAhz7yFawdKG2AWGGufUJYIkXVfJyOgWHeTbTel+0BJ+VMGJdN4T8rKcpmLkgQX9oW/9/LIC29PXBuUa3vw/FPROpHUkRSWvfDOPwo8vuNIKvaQS5lVF8eyCEBMqbBUV0BeR7dBXnNCOLEMYcim2r/IKcuymqAx5mlgiRYP8QSkU4vrfBFIMV/fAOjTJzY+0ScZv/oDJ14Ttg69GrhbE4fqrEhXBoPUcMWEPmTl/J7y55eVIVdRJ9+Qtq2iMuTCPHFkhdPbyqFZZn+ZePWzI8teuN4JJ7fhmYcTKcNBL8VcXwpoRXWvXK6KU5ZST2BlHy2EACeORF7+wiWLBUzqUELTAtXrrK78CVc/9Xb6/YHQOHY/8y4O+QOecVg4tIDjR2DuhcYr23OYt7DVQuOEI4eMqc5b4cwp5VX3QN81fMPze55zMnN+17HfCTbVcy0Fp4pxjDYiV4+r1EZzVtqSPmctswfExu0t+8xzTkReeFuiDcrrX5b40rszrYeT28odJ8C31jU0b2BrSzh+DE7OM8vBcfcpY+mXdpUY01iXHkUpNYdD24bRz7reRRW8o2mkTHgqVqnC/LeDkmICbDG+0NiEp/rgGLvYSkknBE9W7v++FzVHfuGjyw/dmqt6E59PbJjokwwX/Es16VepY1FXpTTXipCZlp+odbSkcP9lgwkpFiZk8kHuJeVvPSdy+gh84qzy0rvMPH/8iHDfbYmuU04fyux0jj/+rOfSAdx1Ah675vjkWcfFfUdwNgyj0TzVUktdUIsKXzti7CYFxAYoP/eeyLFjpZ44tk7OWF7+Dfr925DwDJr+KvmJdxKW93HP0Qs4DTgHwY8kl7L23GRxKv+ugB5xhBj4ijMDR7aU47OBU4eUd3+04eIebM2hT9U8by/XNeAXMYEqFZvRui/WXmMM8sQ80pD53i+3YdPLpXLfM8yyhIKKmfVHdUAhD1bDff4zlJOHei7sCI+0wkHXsHvgSOLK6D4ZjfjeYeP6cMV6Zj+vlivnHDGrzVAFbjue+Io7EmfPh6nkg9hqqTCOA9RixXDFRzsMCUS+ol1svQsu37LrehN/9ZC/fJNN/EdDlXf/yF1/7py7z3kJ6+xpWhJCCUF4ZMcA7I8ez6UTx43pnxQm8tzTkTd8+YrtBTQoAUUHhSCFn9mwDHEGVHs9fPKS544jcHSR+P0HG3LOfOCBwLIDXRNu3AiibhRpqtCTVVmu4LVft8eXPu+ArDKClmJ1zhAiOSWONLAVYGsxmekVY2F1fSIy9u/6/2pmLSty5lVLvLIoJnKbJ7DsrT77yx9pmc/gyr7jMxeE60the6YsB+tYcg4abzXHfsjMWzca9Q1jhLuPJb79JZH9VebYPPP82zKr3taBykppsmfcp0mdZ3I7JGuvddhD7+wq8OePOX7ngYZzO8rMVyHMTqR30EdjxlszU/FXQzkV3vHVz4ocbpX/7xHPD71yxZFG+fhnZ8QI7dxsaOt13GrAp+yvcwL2Xf3FPc9ZfNNL/+GDj9+CK3oTn2dsQPRJxrvffMfLmhB+hzJceexaUdA8jbhTgYd24NE94epB5tgis0oeJ8odRyKXDjxnTglverUtUFTXZAfQ3gb41m/rc1eprHiFF+JgIsUj1xy/+8mG+88Gwwkt/fGFlYZS18uq45T8/QN4/bfu8ty7D8hlGWRNNg5vq1Fm7cDcweyO78edfjH6xAfQNEB8FPrPsj7hHs+0zrsw7aRpRmiC4ew25LXjKuctmp2SlOAT5x19dtz/mOP2I4m/OB+IyXFhDw7PlFPbts3MZW47Ktx9XDl33fHNXzrw0mcOLHtwwVYAHUco+VIKSCbq1HbN9eEvKOQuIV6QhZnfnRMipuz/yWc9D192bLXKpT3H7lL59EW473RiEeDBqy0KvPp5mZff1TOXzPEtxTulx9pGHz/veeRcIKvDh2mhvbFjKebRaE/Z30L1708xveO733Hup27SZbyJJxGbdP5JhiOeQMNWFTUmIUfXttLRK3n5wAYCH/Tw4jsjdx3LfPVzBx676tmeKxKVVOlf/g98YFKbDFRaKxWQBJnS9onhxNG5CVfLqPRRmAdYNAAyeiaNOJrYBcpsBr/5wS2+95s7jh5RRIwJ37adwUWa9m7Cs36Q5vQLoD2Bbp9Bhwukx34FLn12Asmas1cQrWXaCqQexKvRzzQhaOm8JBQG6x287O4MZAKeO44mXvnsxKEW3v4HM77pBZHn35744KcCnzzv+PoXJu49nTjoYDYTus4m3Tsv4Jwx+uK51bJ/Y696HU5FASuY6i/Ytilm/MyztSX87RdERJVVB+euKFf2BE/gRXcqX/f8yMNXDbO/5PbIUK1dUdEEbZPps2Nn6VHx49g/wb7X+pCsixIKUsboZTRrArbe/7Pf8VO842e+sIt2Ezc1Nkz0SYfyvrecWSLMq+WosofYp5HdXOmEMM9cXGbuOJJ4zqlMl4WXPcvYEGtrKsEEkpUhSaltomu/k4KiWScAKGxGBJucLnB16fjdTzX8wUMtWy2sBohF1GpEidnWMeojvPjZHS947gEvf3bk1JHSv64gEpGTryXc90MwzuJ0qCYkLIgP/QL5kXcCYVpyuKxjRDIPqVh/5vjo7h/dhujQwcyvY+XB2WvGf5eaoNZjLS6IpELblm4otZR7HOQM0zlac6ujOoKkOCnpvN4A/nXqvDQAxhBFAAAgAElEQVRuAtTKUlvbSY22/LR4q22LCDEpXQ8Lr7jWpuynwfZX6nr3gGsdQxQ+/IkF/eDQPImRYGAdYx53yDmbPVq74FCWqT9483e849LPfwEX7CZucmyY6JOM9/zwqbcih5q6zjswTmuqISLMvPCy5wycPpJwCm1QclGPtXTvAKV2CAQZwVGw+p1kS0Urm6J4B0WkbA9gN6yJJrb5iW14yV2J3SHhgD98KPB19w4cnWd+9SOBowvhFfckzu04zhwW7jgBJ44rWkBaChDKrCUvzyKzZ1LzcqnN8vEy4qGqR6o6eT/yWgkiAxFwilv0pKuzsSwxRgW0WmPNJvTU39WHVVOANfYGetQlo0fctHOoSSmtQ/bdhLVzXbvCqgU25XHYtQ01sL+lceMDqv5dSwOaKWtJCXOfyUMZMrLwSFMotpbkpADvsBJ2dxXvkrV+lgdvLk6DnMxXWn2+uYwwdCg55T/4zg2APm1iA6JPMkRmLxQhihOv3gZU1E6bnAURY1lHG0HEs1jYTZazjGAhsJYT2NpG4sXS24zdfUXlVjNArinepfWwps6VhdXRbJigdN9tmRAGJCuvODNwbCsjWXneiUgThLuPJ7pkIDO7O+K81S3Xc5Xc9YTF7QhN+SWgiXztk+jehwzIyz7UzyaWLqsK7MlS57xqyfttaeFcE3lSEdJ8JZFrO1BY43pNGOy9x9pzmWmKgNaHWrB03kATiJOlDMSATpgYqQOZmQKlq2TsU9wEqK4+zCojLQCcK7pbXdPNPZrzWJbRCugx8/DDgZQybVneWjEGmosq77zgG28dX9TGCBOwknIN/UWQ1/+Vr9NN3LrYgOiTDBccTuThDPeNS9+WThOz5jicg9PHE8e3rZfayqc6Mkw38+SVgZK03m7ePk+pfCgIWtLG8YYqbFUHRhGKXASpYIwHMDU8w7OPxTE1ThhzdYezEaWkzL0BjlsG1A320jLrFOfRy+8jPbCDu+f14LcQv0BXj6PXfhuGa6D+xjpuwtL0wFgftVKEkvcbrJ8pj7Yo1tZbov7sRk+TgdB6SWMNtK1dUkfmBxTWqSMA2vdjn3FDOj+CoIGvlOEwBDe22kpTRunV0kI09qtRb1D46kMQL9AX8aoo+EQlN47ZzJnYJdMS2BVA63Ii9f+1JuqckAdFoNkA6NMnNiD6JMO59GmVcKUufJZLGum8jBjgXeb49sA8JFOj1W5uaSy11D6V+qGgXR4ZlEary1VlvgKaVHtOZZ5uSpe1lgMqntRanq9DP4pWIrYPKhVUdEyV05UFbp4QXykU4EyC0v5x0A5WF0mXPwwMMOxY2xJNOSncqMyPrNlAI12bo4OBygigNWRiraMNKRkIKvXhsXbsa68VX0Ax6ngO8bUeUesAhZmW/RQHOtjnutaN53kCarHWqFzqunVVz/pwE5lYaGXT5T00x3H/NCky89AogYw0QpgFcsxoLpOcgg2kyc4OLOs0Ok9KWh8aT8r59z7/K3UTtyo2IPok41n3HP2lTz20/99aCW8ytucsNq1JhEGFP/vUgpfeu+T0Ybtj6w2qfR5vWkoaSmNMRga19H34HGYJk6jEGqMCZFxejnGGJxRBZFgDReog4wIwtZaYFY2QDxz+SJ4AJwO5QYee/PAvo8Mu7NwP23dCvAqEfw8Mq+otKuBBB0/eD6SdduzvHJn2NBt6jYnq+NAZWWfdpv7xaz+vJYR6XmrvfRGnxvpnfa9UNm1KGWFkp9j/12umFJbeGjM1Mayef1AErdnE3CMecl8nXzEOqlaEc5cDj5xtCI1N/x9LQN68wlrqnzokkGn4SYrZ5hB49xVs4mkTmylOTzJe8D/8+FnvSqInQmg8IfhxNUff2NzQ08etVyW7wnaGjHbJbsbKDIsnUXyhi2JAoKhtX9PGsX6n/x5wVYvVCKyOadL8GgaPwlTUycZTf66KDt5Y3FoKjYD0T6DX/wD270d9gNV5mzxSa5eV9K0x4IqvaeVJO43VFdcfCHl6zVg3XNvHkW2Hwsrrn1FImh4iI+j5NRYbdU2BL4w9r4FkKudh0HF4jKX7zsorXshdgiGXmq6WMkp5yDmxB0HjkNbhZm76nGSlGV1l6DK71+HyNT8enw1wNnabhkzsE0OfSDGP5zBnG58oRrIPUrf3ns/vKt3ErYwNiD7JEP4BwC+lAgTTsg9FUS2MpnGJvgPt06j2rtf5NJYbuc9TbdABzZpv0BcRxK29roJOTXkrOCjGYKv+U/+9ztpqX+E6C81WQsjLQLreUoeZTCzQgzaohgJ+AlrrkXWbWsdj8ogKuO1hBLu6vZ0HCrC6UuZYuywr+NeUudq8ykzRfJCm85XKMRbGSBmabCx37UGyLkzV0kNlzoMJf+INGKUq+uUc5oNUnAcG0tI4cpfRIY/ZRTpI5INIZfjSOHsvBzsHjovXG0LrxyEydbapda6BL2l9Ow80rRnzi+04isi51cHqoS/kWt3ErYkNiD7JeM/33/4lIo6c06diH4ldmsaWwdhOuLNsIHh8I1PaXtPZIm5oZTowfTNxrY6nlJqpjrXP8edrdidxbmJi66x1nYmOaapMLHdU+BWiI15tSdcXY+pdPZQjSK+z2+ntyr4rqEOjoAOkay3p3CEonVAjoFdFGy2puY4sHKYHxfg56yo4WJmjkXGto3rMZleaBDjxa/sXM8Q6FYsbXAV5UMZBrmrfCa50LTXlAbBMaFfqpLGc29LOOrLU8v5SgFy84GdC30PXUxassy/Z1l3KDJ2xULM0lYHTzlZFUOG6og+oxn/7hl9ZffCven1u4tbHpib6JGPHDY+eSM2vOe+/i6z0XUKcLTbmyo2SYma5VBZNNCW2U3Is9bOq+AY3+ip1UAMGL+Quc4NlqOLJmh9SmrW6JRSQKgp/ZXmudubolAbDBKbRVPrKcgEkO9K+4OaCtGsHXVXodS+su3EfFNAIaa9FewddudScTmWGdVSv71XT/KiTH9MX5q6Ql9F8poVRSvFSjv5asdqklpVGrbzhzPMqYnXQXD7H2QOEnI0Bz9yopGvSscbpFmE6KGFM4yX4scygQ0ZrDdQJri2/84Lg6Ad48LEZV65aJ5hlKdmm2gcbzGxr0Ss5xfJ5Dle6yzTna+D+SIfhz/6DF+Imvmghf/kmm/irxPt/7J73K/J3Yp9Rrcv32nT4OinJOfjyF644NIujB1OCG5VdU+pLatgYm9RhjUVWMaXUPUemucZkR9EKazGsN/JYA10H5PU2TYqC/DkeTFSRrUxz+sBqpNHAUVqZQCXpBOQRQEkHnnRlDl7RLpjNqZQgJsvW9BmjCu7dDbXekeCWl2if0QRuXth2sZNprH5MnVo4w7Qscn2zsXPKre2PEyubeBnnFFhJI42gWPvuZWZ+0bxKCDLWRIGpvqxWEpFaIyXz6LmGv3hohhOlaV1ZBsSOPUWzTVjDhi0AWBs2bHapEFM+J/Anr/2ZH3kt8pNf+IW6iZseGyZ6kyJ28Qm8H0LjmpwL20GnSeVeyEPi7BPKvXdmu5UbNynHSqmLFipX66BNQY/MZLTPddizFAUaqiVIqsgi1iM/gmwqANoWkBrbKg1kpHHQm72qAvsoKC0dw4VDSJsg9JAgeGtTRUF7k8jFJ3LvyMs52jlQj/ZYWlw+r9qCbhDFKkAqUI/Rmag2punFpC/BGSBXsSxhddvC6HUwR8Foh6ougPp6L5O/NhZAL0Ke1tJJAef6t66S/bwtLapVCFs7hlo7tZIK9v3ObJ8eO9dw6XogBDtYVxYfrAbU+lATbyuUosV4X7rgVB3OMUf10xsAffrFBkRvUrzuXzz+5t9465kfUQHvPVlsVUqUUTBwDq7sB/phwAfMbK3l5quqbwEOY2uFZZWa5sQ+C/MBA73SerludZpaeBgFpwoUUkQUQRgHpUhhwCXV1jURShPonkAOxu5mEF2HeE+8OC8KuSKLnnw9mKe01mRt5P4I8mPaXln1WqeSVON6Yct1n+3BUdLzKjp9Tg12NLeXGrAwMXyQyd7FVP8cQ+0YK+vMXWkAcExNDOXr0JXNBzQzfh7bOEfxq6bzC1sY8OpV4dNnF9hQ6bwmwFkrq5Z5gwrjctM567iInTiXRfgY6Ie667vv/vyuyk08FbFJ529S/NZb7rhvRXgA1dLFPeFYFYbt38K8Tdx1euDuOyegVdVi/LZXu9aNo9puSOWVyRtZ1uep4tIoRtW6ZAVeKaypWKTEr3U9VaCoWfyaWXxkgOUYoLAxBfGKzATtZBJ6oqIyCUPWb46B2tooP8pbS1XGazcPJb3GmGT9bGmcgWdca3mtf6+D17rboHxOBWPt0tS4UME1MTkbKpjXr2lNbFpnnGRFWldU+VTAXUalfhT3xNZl+siD26z6sqz1MC2eVz3FQ5fIKRNaT9PaWlnDKiLOTUAKT6Su+4HX/ez5f/v5XZWbeCpio87fpPim/+uJT6L5Xyt0Uu85oSj1jGmbqpKyZ7drcW0BFs/kgSyvAyYQqyy11EbNrqRr7JMpbb+h3Cg3AnA11jOB5Q3pZPlZ7stUoYW31LcAzDi4IysSbOVPWWO+SgXLiXFK3ccgN+yfuAqO9ZhlqrHWumZwpfxQaqF9nh4qtTtprelgbN9cY+F5yJaO188eHwpiYNgWdb82OMBYyxxtT6XO6WbOVPrxISNTiy5ln6LCMrJ3TXnws4Fl720trD6NbZwpKX0XC+N044Smaleb2lfrUObhXRsAffrGBkRvYnz7P3/s9eT4L3B0pszLWheT1UabmSdl4cKVwOOPSrmxSt1uWEtl+zxZe2yk5lQjzKV2WlLZajYX1sBRa3rKCKJS5mrW99SYzUAep84kLWwJsLV+1lVsvw6+kFeJvB/RaI0DNe2Gsk/132vDR6Ye//JZ6wBYwb4wYzebPKMiIK0vfsty2VYj/Zpx3xg300On+mbBgLR10zi72ugwrmViuKgxT8Aoxr7dIWsSYNBRPJMiBrotm5aSDmw2wmNXZ/y/H1nwyNmAxjRlJGUa0zhWT6qn2MYm9l0qwp8jliWgc9LPhCb8xud9MW7iKYtNOn8L4tffeve/8d6/pl+bJ1rtTs4L/TKSFO4+0fGsMxnf2uR1B6MKPNYng0y1zDqfMxszq4ryGG5iuww6gey6iFSHbFSGBcjM28ShPlk9cOZGi9HIBLtk7oEiPEnrTKEWGbty1kWb0VpVVq0c368yyNo6CZPYtZY+i4iVLcosUlfEOSjb1C6kz3EY1JR+nDPQyCgqjYy6WJiqaV+HwqLr+lhrrL4Oghm/h/rQ82KNExlk5uh6OHttRsqex87aTuWYp0labjLtI0JorSbTLyMpKqGpir0S+4QPjrb17O+s/t13vePs19zUC3QTNzU2wtItiG/76Ue/5dfecncMwfmUdOxiqsZxFxwOOHut5dyO8MzbbMLTM46XGfOqxSBuN3UugKGJG0BT1pmfL8BURw7VOmOtF8IEnjWrr0OFQ6kblkHDtVTg5n60RY0pdVYQLQKLvacEgSSTWPW54s1a7Va8AYxW8UywDev+F4P56GV1pUaaGVXy0XAPkyhV2i4RIK6x8LVJVutWLts3NYeBn+Z5amdj8qqyPtqgYHIWoCNzHjJcOS9cuASX9w24fSlRJOx4ADRLYZpKOw8GompsdLblaWeBOCTiYCl8qY8+psqnb3xKbOLpFhsQvUXhHP8S1TcPXSQ0jpwcOWXaeRgbelJ2xKQ88pjncSc8/wzsHcDpk4mjx0qXTe2IqVOfpNzUJS3VwYDNFZ/hOHZtDTjtbxlrqGPLZfml9tnqnzM3gisYYOdVAp0M6GPtVidBqxrhKxtVZ/XCcc50PQZxpIM42ofEO2Re2G1V42sPfmXkyDhFyQ5D7KpNYup4dR5kQarAlTHmWMz1IxOv9dP1Diig+lTNL2qsuB6LlRNyLVFOg2OycvbynLOXA/0qs4oenNL3AyH70ZoVGm9DRbIxXYGRheZiuRKxNe37LpITNI3Qd/H3Dp048YPXzz3ebgD06R0bEL1F4bw+nJMs29YvxDu65VCW8zUgCI2tW17bPFN2PPS4w2uEXjk0U+ZHvbFQBb/tjSmt0tTrvW5Kr62mwpTOjuk1Y7o8rmI5c+ZLXRbgW0vFRz9kAY08rI3gKww1Dxkp4+FqfdbNLHWXOs+zkFIo7K9LE4PUWpMtx1I/ry3lgMTkma1a0DqYCGN5wc38yNDtMHVkoxowRjqUv9dnBSSjy6qg+2X4si/AW2cZKGi2ziLXCkmFs+c8u3tw6XrLcj/hG0/bOrpVxNWacznXZpqHIWZmW8GG0nhng0Y666/PsQwYcYIvtWkn7AQ5cG/81Uuf3GDo0zs2IHqLIsZ0PvjwcXX6khxzCK0todsty2AKvDFIL8wWtvb4kByDzNGtnmuDoOcyQSOnT2KCRMzjMhg2ob3ULEf1vrx1ZYBZkbiWvq6JTOMNPvM3DjUBG4ICqCsstYCLLm3uqcYi6DTO+siHwoyLIFYXf5PgbkyjBwO8WmuV2pEla/sdp+NYr0eOgtb4t72n+UGZUvdiMZo8okzdXBmk8TfUUUdfamXTo7FeiD2kg0xUx0EKPPrJhttORj712Kysn1UGV2chlqn0OVsTQmj8CIhxyEWht22Sy0VIiqQhl2uggazEpDRBwLt7dq4svwHhM7fg8tzETQz/l2+yiS8k/tWH9z78/V9+2PWr+CU5caJpimgw3MiuavtfGiznnM09B53n8rXAhYtwsJ85ukhcvmJ1VPE2md75YhMSzFVZAbSw0XFGZ+mfl8a6ZCpjq/5RmTlk0ZS0klEIqQC/3qM/jecrossqobGo6DX1vQGYymd4x9igM/eTpaoCV5fH7W7o/x+HKJf3LbXJtQ3Wyg86TnHSPtvDpTgXpCkPGhFcW/hsPRam8+gaZ4OTW49rHWevBh49F9jvGi7vtFy9Dleue0Jj64EMQ6Zpgz0Ek5KKhSkEe8NQzrmWMkMoFrE4ZOJgSrzzwmze0Mz8OPULYcj98v943dvP/dObfmFu4qbHhonewvi2n370bT//face3T48/1fOuyOxS6PRGjExw5dBvDlmmyfpi7AhNpj32r7nzz4Js7nwwOMLJEdOHokcOerIKrQS6ZKn8Ynbj0VCafVUKQufiRBaNyr+o4VS67g3M7HrDWm2TunxMC1tIa0ZzKW1ZoB0kEp6XChfqXMaM6zIW8A0eJxMotXoUfWmYju/Nl25vHZcBK8yyyryGJEfyxr1gVHtU+utpaLmxWTL2lqHLuNtRCiDOpLzPHYu0Eri+HFlmQLnLzc4lN09oe8z2hnwN20udWf7u2k8oXEMXZn/uTZ9KYSABqhDukVsxB3A0EWb0CRCnf0qzhR7cUJO6oblsLqFl+YmbmJsqi23PJT3vfXMxzTpC3NWP/RpvHl842gaR0pKGpLdqPNAKsbsrFMNtZnZ/MkUdex8qQJR8ML2VuLEYVN3d1eOL73XUs3lCvoODh9SFguKDcoUf+vfr+xUxlqq9rZ8hQ6WBrsjzWi5qmPzqkBVf0awYcR1nJ+b2QAPwESrysiK1cmVzqe8N9gDZWsaVHxDR1L9Wal1itr6UL6RsVNK1hqRRjbuBRfg+mWISTh/LXCwFK7teW4/adazISrNzHHuUoOI0pZSw1DFuuL1tX0wv6nzVrZIMZPr4BDVMsLOdtk3DleY6Fi2Lj5hwLqUso5MtZ5L5+zBKkDfx3d/x9sf/65bemlu4qbEhone8hByuvP3Y68vdnVob8x2Q2npaFKzPXnvDAyckAab5mMT8kfjEM5B2zpSGdRR13La2Xfs7HtjmgJ/8kDDYpZpW+HiFWhc5sXP60i+4fI1x+2HV2xvZbIE+l5ofYbgSV2Py8qqc7Qu44KgB9GAs3TrgDUGuC0/MVjMzmPzNxmnI9Um2FpHratnaszjNm7mp3psPdA1QKxdWc4JwwDXdoSjx0obfc7srBr2l46d/cAwgGiibYXFPLG7A7t7wsEQCC7hvHD+SiBFRTXRBHDOAM17IWabsjTWjYsrIUYTl0Lj6VeRnDK+ccQh45yl6rHMBPXFyhWj1T5D42jaQF36uK56UH3DmsuCLmrDvFFWoXEXnsqrdBNfeGxA9CkIJ/KloDH2KSiFORXVtk7Ad2LWoJQsBfTe4xqrmTpX5k3GXAZZCF6Kuk8RnTCmY/ijdIOw7DzBKykrMXo+9MD2aPrf2/ccWmQGaRkOBk4fi+x3noN9x7Ftu/lPHFZ69ZzYSghK10PwZVpdyqz2BWk88wXEgyKoeExw6jO59UhW+j3riGrnjn5QfFZSdmSEVXQ0akC72ALJmWGlNN6Yb8zwxMWGLjsOtZkUwfvMpSuOR883aM4MOTCkImIB4ozVCo2x+aw0jRDLLFHnSomBYEyytGVKYZ6p1F5Tymgd7Qkj4xTBvJ4zzyzDMCTbFgiVYRd/qC/10bpap9QFAQHVjGZHVvv+KSWcFHUWh+H6U3mNbuILjw2IPgXx2p959NXvecvd75VeXjsMUdYnmtcOndpDXpfLrXNIc5om1nvvyno7labZXzVtdE7GXn3nITSCiKPxNjHIh+lG3t33XNtxOK9odly+1tKGSPCOLjU4EjSZR88HGokcP5zppeHwPDJnIOXAgEeCow3Ktqy4euC5vD/j9hMDeZWIbcPpwwP9MpMQZnO41m+hQ0JxXNv1pCHStgZw24vMqnfsHziecSIR1bG/FPb3BSFzsAp4Z/VhELpuOlYf6tIo0DTG8HI0YJe6rpVCTJlUJzZR0u9QLEerWNhmqfEOjKPt/BprrG2nQ5fM+186mXI0H7AvD74Usy3vUTywqXyX3pc0HqwmTv3uqWWDK0L+2C2/MDdxU2IDok9FiJB/6I5tVEUzuGKaL47Gscd+3XoEhTE5QZARPK0umkfQpNRXc8qkUoCr77VeNkgxkwbFV8VY65rmEGYen5V+6UnqmLWBmAKPXUzknNnvhYMu0M49V64KB3vCfCtw+LCj65QhCTNnAD9kz9mzkayBxRzOH2pYLDx7nSOverIoKoHFtidGwaVEUhgG4epOU5g2PHY5WBdRVnBKVkfbGtuLyR4oPthyw6aui63WWYUohViEplnjzc/qHVKsSOPKmlnLFKVSXkmZ7B0pGjOdzaxEErtELqJgznYuc61jemvZlJraN7ZAoXTggv2+W0are4sUBlrq2co0M7V8d1641i4Wt99YGN7E0zU2IPoURQjuj1ar4fYQ5AU++HF2pDIxyFxqgFoKm86VBZBl5J3UyfROMGM3heGUlNBmbuQCQBTxg7U5lhT/oi1bEmMmxertzAzFEuWclB5u87GmwWb2NY1jNhOcKDF7VBO5H+gK2/MBtg4Fui4SExwMDcvB2HJ0LUMXaWfCal8JrTCkwKp4S71j7HIiZ7JO4pHZrWwiUk6KegOwrHLDQwHsmHP5dxzSWO5oZjZ1Kg917ZA8nmstjN5lM9dXEcj72l2k44CX2CsxpnFV16GPpvqH0t6rcLA3kHJmy7ekZAJbO2+MoZbyga499HyY6uVB/HMz+pINgP71iA2IPkWR+u6aJteotxROCnC6opY3wUANP6XxfRfxQQhtMHXXm6nbubJNVZCdknKdaq/EPqPeJkblApB1HZ9UxI5mbut1pCETZp40ZJpZGMHIB8dsqwGqy6i8P0oI1iEU+1iEEsdsEQrbKmP0CqCjtpIlWM+4Kyw7xcSwF/HluF2Zn6lJx26u+kARoQwwLqPh0FE9H5n4/8/eu0bbkl3lYd9cj6q993ndcx/dre5Wq1vqllDrLSQhhAQWrwhwZAwYJCPkBEx4modRGMiOg22cZEAMGJuXIYBGMHgQ2yiBGKyYJAgkMiRhBAIhQM+WWmp16z7PPWfvXVVrrZkfc85VdVrqvv2491pjsNcYt2/fc/auXVW7atY35/y+b+q/zTGL1clfZhcleE8IUVLpAdY0cug7ZRA4oN4ODJDSktIgaBwQR/qcCkrOcM5pXRPwzgGNSDxzLnAO6FNB12ek3GEYMuZNwKz1YC3lkAM4S901ZwCNR2hI698FZejvuz5X5mY93rUJotdplUIvmrX+KaxprwGurk9YdwmOCLMm1PQRAFxW4w1N4513osw09yVClXo6dScqamBhqbqPDkWNPUopCMGJCrQYApL6HQVJQ5PyVbtVQgjSjU7aJHFe093CIEidNjROywlca7OzLRkJLF1srp/jVcGUEsOp3RvlgvVyABFhsd0gNK7KY50neKeGxmpiAu1sA5rsknm2MgrMu/X4OfL6HumoC1m+qBHMfBHld4oKhT6m282MnLNa1kHUSFqfzln4ooGlcZQZ6NYDcmb4kOsY5KWO+ej6Hn5JOLHToJ0FeO/ARX0JNPinXsoVPjgUNE++XtfmZj2+tQmi12sl/m+5QesDfVHOiORJXXtE+dL3BSufcfJEW7mCRIJUhk4QlNmpCRF9rM+RdnZZ1T5O6TMMCZaVg6ozzJlLDQgAIQ8FjfJQnSMgOAwqSwQwmZEun8HMyIPSgoJHbD2WB10N6iUXNd4gFOWU+kCq1JEA7INDS1rzdU4CrvJi01A0yCgjwVFlJVgQc169WB3JFBKrK1YVlzx0SjHpqaqkSI4nqU2hV4qYlQTMcct5Qk6pNp6IxPOTyKGZR9m3XlBsYUafMg6PEprGoZlFDCvlA4NlXIg2mqzBBSL4IJQxQ9IlZVVVeQDYv16X5mY9vrWRfV6n9SvvXl742hfsvNCBPifORGa5PEo4PDIHDiClgsPlgH4oylt02niSsbpEJJJwJ91pM3omIh23W2qTiqABLVmzw1epZxoygtfmh97UPnrkzJXzGBunQWiszOWso6DVjciI5tLA8kh90Zqm1FPzIIT0kmUUcL9OEsSiXnZKFWoXESE4mVs0ScXBqPSf2gSy2qeidaMlWTPNOauRov5dGQ3F0Kmk5vXnZCpTriWPoRMU3cwCnJfjAUs9mXRTh8sB/dLjxs4AACAASURBVDojg7EeMhzkQZVTwXqVkYWuVClTIUjTzoyo7VyyWha64BDUU9SBmr/14q33/uI7Lv/Ftb86N+vxrA0SvY6L2f+NQkATHVbLHl2fwBBUB6B2pnNhXDrowcxYLCJmjUfXZzRR0/KpUxAL/YaAmpIys6bsXNErAchFuYsaQH0Y1TckG5Ba7QS5cSnILJLEpvUSVAkoOkojpwIXfSXJxyag7xK65YDYBPhIqo6SgEnazR56mYSXU1HpKBC8Qx25rgExeF/RYh4EkQMS0GPjBWknrgidYb6mpvyUc2vKo5QyfPCVtWDsh0o/CoQ8iDKqmQfMFlGoTKowW/cZ61VCiIRUCvqhIK9LRcfSrGM4BcCdjhYJwWN7EeGcfE++siokG/BxdHAqGSilbN351Pbt1/J63KyrszZB9DqtN3756acCuNEHhzwU5L4gOMI6y8wd548Hw8wM75x0uYeClBlbC2Bnp5GgRFxTXpCgmMJcGyzeE1hro2YPJ3VBhgua5mvTiZyk6s6N1KgQXW1ghcYhNA5ZfUFr4NbfpyGjXUQ0s4D10TAeNEGCUJ8lAFpjBkWDjLxfpKyjIYcESt2vojVUT1XVVQrLiA4eg6Rp1J0pnkjRutVXtRxQm3Ja242qVEISDqmVRELj4aNXtoPq77UU4gIhTYydjVWRM4OV3+s8Iajp9HqVq5OTi6FCexuJHNXha1DTa++AlPkPnvxdH7h/06H/9F+bdP46ra9+/tYPOudeQESCnIjAxFjrbCKbAgkIMrIanUwcljQ25SKcUS5qtiE3LOeiqbgbyd2T1NZmJoGtEYPKg8xJAtzQC0IbOhlXkYdcKTdC9Be0ltUNqZmJ61AdwKaILiVxKJpp3ZCcq02eUsQOThCwG007dGImYwzOAHSAm/htWjC0NN7YBgaas9VrgbHxo4YgVhtmlpRamnQSZMXfU9B6HqTs4KNHAdQkBIDSkkrR70DLBMOQYV7+Xt3xQ3BIuSBGhxgcmujBzNjailgsYlW1WoA36W7OBd1qqMGeHPlXPftHP+/zm+Gtv/7RdHBdLtLNekxr85i7juuNr33CH4fon2mnfcgFl48GuRlZf6ppetb6nfdjU0X8Khlt47F/oq1GzNIRdqP1GsvPglrIpV5G8npvgZkxdAleeY7WZIltqAhN6n+i0TfJYslC1ufCCI3H+qjH8vKAduYRVP+eegm+s0VEt0pwnmpgLxrsvQ6uS0Ouab4hREBQYn0IKJE+K581RF+Njk0ya2jckLbUYI3a5RTljaM5nJOf912ux5JTRrdKiG2A94T7719iyAU7OxHeE4bBjl0oSd4DXSfnyh4w83moxjHeEwIRFlrvFd2/zpSaNpOypP45Cxp3ahsYhMnwrr/6cx/Z8EU/zdcmnb+Oi8Dv8o6eWVjQYAwOe9sR5y8UpMLqRkQ1LTd5ICDpasoMR0A/ZKy6JDQlAPN5qGluUlWMpcKsXEtpADFi68FDgddaYxpK7RCnVCqhPDZeOJV9Qikiccy5IBQhvFtDC5ViBO3Ci5DAB0Iz9zU9tuDs/fgwMNQYG18J8UW77yUXGUmvSJaIak3Vmj+s6Xwa8rg/XDRFDpNUH1XtBWBElUMWxylPcM6haQNC9Dg66sHE2N4RBVVWBMoYSyWlFDgCZnOPYWAZiQKpxZ7cnwnbILGKFPTBUMZmkr3Wyi3CA5ZmXs7SlKNQzm8C6Kf/2qTz13G99rP2/6kLft+62lDEsbfXStNHMvSxLqepJ2F0e5KXENZdQt8XbQIBsXGI0VeOIzAye/ykE21UG1E1OUWhWje1MRhKpxq6hG6dJ91v2YfYeDTzKPQlTGqRkNKDjTwBQ9EXV4aAke2dl2mWQq0SJGdBnzRQidMRKTLlikiBkZIkKbGclxBcpW0JJctSeeW2kkM7F9XQsJYyymwRhVkwZAxZmkJHqwHkBEUKE0G8Q7139Xhi9HBBkvOhz2gajxgdtrYiysAog3ByvbIsvHfH9l3KF1yzCbHGEzd8c3Vyzm991V3+9/63d68/co0vzc16HGuDRK/TeuPX3vAFuWABGsdvElCDy/6JGXr1mcwsnpbL5SA1N6MhaUfcOtW1cbFOyJkxaz2Cd1h3CbNGmiJMYj6CzGhnQVGdqGXYSXqbc6lI1lLTVBjdOmHoMmIrXFDnURVJ3XLAejVgtohSJ2WuiNRoT7bjPgQQBM0aOjR3I6MeZU3tjZrkNJg4R5puG/I00jtqbZPI1yBLjhB1phWRSFaJAG+69SL13ym96GjZ4/LlHgCEXhYc2lboZVnnxnMpyNUIRura3gPzrQbzmZg4e+8w325xdLCu+2JqMVGo6YRPLxmHGaGQ/FhKLsEyD8CDz+R5+w0A3no9r9XNenRrE0Sv13L8Ik7lBpkCQioplEhAQ1aEJDd/EzzaOKaOy2UCEY/paRbUQgCGviAEQtdnHB0NlVd56EmaG9FhSAVDn7GVGbOZx3qdNciq+1AuypMEuiHX9Np7B5qR8Dsx1hxD4zGsE3IqaOcRzIzDi2tRNw0SeDEDmkYs5FOfKtorRbmthWU6J0MRHaQOq2NKhi6r2mp0sJKaoXoC6LnIalAdWpFclizMBVNadWtxkbeAnIYinE6tiTr9vMJS07RaaUqMEEwvL+Ot+l4CbE5SGpnvtfBEaGdyLrtVwuHFlXw3MzUqUaZDSaJwckqt6tYJ3kY86/UAZvTrUh2o1PrwwnW+UjfrUS535Zds1tVYBP4j3/o8qoZGojhYR0ZUypHUCbcXEfMmYH+vxVxd16M1kCA+oSCTR1L9OyiJPmXp/idlA4iWW8wzjtYDLl3u0ZtjPcZGTdLhadPa6HopDTAAGNbS2Q9Rfr4+GkR51YtTkfOCrqEEeEO/8+0GTRvQtGMjiRzJADmims5LeULHiUB5r0pQLZO0vxRGNxSkXHBwqcPRagAT0HUZFw46rNcJfcpYdxkXD3qcu9jh8iohmSOWU8ZBYgRF4uYX6gNhGOR8OSdpfE6MqMYubePhAPSrYWJyIo01O38A1SbXFGlb0857NX/WY6oPK6V5FQAu+Nf+0X/3pDuu/xW7WY90bZDodVpxsfhO712QuqQ0loyLWUnXWs/MQwEr6hNDC4dZG+pr+qGIHp6tiApUKAmridKxngQ5QsoFlw46NNEjF8bQF6zWGd4JGgxBtPNbbUCfpJwwm3u0MaDrCwolxOiRc9KmkMN6nbBaD+AMLMijTwzyQGRG3wvdyTkCdxmtBUdP6LuMdZcwn3ksV6IO2tmKKFAZZZ/R9QW7uw1KLlgtJSACEsC8czhaDegn86F8IqSkxsaloBRCo+dr3WW0M4925pGUWuXVBCYEN3qtauc/eELXlVpiIQBt49DoQ0yUSWN2YLVorQaDWWSxOWWhj2mt2QrVPrraYPIhYOizNAWV6GrKrpJL8+EPHj4JwAev7RW6WY91bYLodVrB0xMAaQr5AHhIrc+61tZBJ2d3ok7bJG1K5IKdnQZHq4QmMgYq8MoTzUW69ipY0pteOvSVbK5GHtYcYtbJmcRIGTKuV5HwwdEgvp1DwdHRgLb1SInRX8zY2WukITIhsPvgsEoJpZN9KamgTyIBHfqC2Sxguc5wR0JAL4UxqDHH4ZGrevmhclelJkwO6Hup9w6pIAZCjB7LdVJjaoxNLOWKrtdDnZtn3f5Bpa+lMLq1yDFDIMRIiMpFHXoxWHEkzbCeRIJZckETHLZ3o/BHy2isXFKuen52ym7QzECktON3R9FKOAxyLLPtOavySo7Xvpuhz9V/gDO2im++BsBvX69rdbMe3dqk89dlMUrBe1Kfme3GVpS2XibtSOt88jIONKv6b9kEiAjbi4jTp+aYz3ROkNGYMI4cEY29zjjPqIipZJWDAgBT7dybYzsgrvDW3JgppagfRKUzZKH6mPJnvc6q8pGUuOuyujoBR0dJAzlhSPKp5IDVKmmKPI4QNpeq1SpjvcoYUkHQAJe0w962Uh5IWUxMhkEVQlDk2o3NpqIputG2uABt61Q+KpkAEaHvBKF2fUHKGcMwDhGctR6nTs5xw5ktLGYRpQijYGbd/SGLTyhRZTPkQTwErJxC4JoNCDc3YxhS/W4rt1WdupyWFPr1MD0vFFu/+Dz+/mt/mW7WY1qbIHod1pu+5bbvIkevLAxm9QlNQ8bQlarJtjnvBGhHWwOMNn6AcW4PAdjZitjbabC73WB3p1UXfNQ64tSExAKLU4l7SgXVBQOmkJRaX0oSoKwLLvJFQYtB9edBOZleEVfKkhrP56EG45xLRXymCDIOqnA0ZbRwSiNPNUZXUbJ14o3mNQxCPxr6AiuJ2DbN9SprzbhppMnUrxMAQtsKEyANQk2azyUByyqxJBZamVPK2c52g7bxlQZlzIB+nbQUIOl6u9B58fYAmglp32hi62US79YmwE269UW/a6+14/lOxHy7US8AroG8FEZsvHPB/83v/eaf+wbeBNJPy7VJ56/DIgLH6GZpyBI0WOuhGpT6dao3jyEXowrJlEt1sFdEmQahEM3VYUiCFKqyaRikmVRYgiWRjQdReaJ+rslD5X0WOCdNm8SYzwVZLY8SZouAxTyAAUVtGNEiS3Due9HFt61X9RDQtMKRNNd8cWMCAhGCF2eqXLhSgXKWYAkI/5UI9fw4Dao5i/9mUPJ+09q0ABLOLQG5AK4U5CIPgU4pVk0jrz2x2yB4h5QycgbmrZhNx+glpSYGyNV6sT3EmnmA61XjTyOKjLmgV+tBO49bezN9YArbgJIqv7zQ7a3hZCVt5whxEatBdskF/SotOQ1z/Js/NYbbZn0arU0QveaLwXTHbd2QOwK13ktDhkid4fUGnM2jEsMVyU2J2dooctpFZ4jhiE33LAVYzOKk2x+qK9EwyGjfnArOnV9jNvPY2opYrxIKS3ptdyWpnrswa0cftQnTzjy8E+NnU+EwgEEbO5bCSpCWYJCL6OJbNXCWel+ZmEbrFEwGQhg719ahJmdaf67SU6gZCJHUWzNUB0/HVV2NWvuBDEFLPTZ4ws52RNuGOk3AEeBaqg+xrDVUazK1M3H4Z2asDnuUovzaJE7+ofFIy6EKEfq1OPY38zAaozgJum5OQgEz4xLZceQylmbMQ3XostgMArtdn0/QV/+bTQD9NFwbxdI1X/8IX3N3hIvxa33wPvUZKY3E79AYmpxUVjSYuDB6aAKQ+huNLvHOjbPNLaV0E3TpgzSpghdzkJ3tiJ2dFiVxnZfeth6LeUSjiHI+CzDxlPcOTXTIqg8gApZHSVLqjDoCZBgy5vOAtmrk1RBEFVOmHW8aJ5+3EH261opRlB9qJP2gFn1e/Uy7tQS6qLxRIbo7lFKwaAO2txtsb0VwAaIXh6X5PGA+D9IU2mqUywnsbkXMZ1Glm5qGN2p6QqMZdhUMQJz6rUFXcpFzB/FgDeq76oMMo0v6gFnszTDfbmHNLZsxH4yDG7x24MXYumSda2/NRnX/t7LIbKt96Ws+a9f90u8fvPk6XLSb9SjWBolehxW3Zq8lRkxJUOFoS1dqTW/QuefeinTa9TXVz3TQXBEeUE0lQaNEchJva91S+J9Fh6RJMGhbsXqDBgYfPfb3HIJ3mM+kmTN0WUZ+AFivM0IkVdpwpQY5RaZtlLQ/Z0anlCBr4AiSlqAwaq6UjA9Js6N3WGwH9Mr7dI4qUlzMlHMKUVRtzRukLIHby6mCA7C70yAl6aYHnbJpnFzngRM7jZqzyChlYDS4NmmpBcTSZUHC2jCy441Nqw3BAdwlxEYG2eVU0LRic5f7LFlGKog6vwpA/cxSGB6qvsqMPGg2wAzAITZB6tuOwBD/gVkbmiHll12ra3SzHvuiK79ksx7P+vffcNO/mG0tvl14i1LrzDroLNfRFxApopPOeE3l3cTByYjoQB1mZrLJYAbLE8K6UW1k7ISRyzFyUjGOai6mP1eKlDRBNNQVcyVyVY5pFnhODUr6LmNnrwWRdOLTUND30p2vjkl9hiNgPo+yPRPbk2rI1YkqNh5dl4AizSlL301t5KPOhWfpyg9drujbRoZAA6UIAkLlcJY8oZHBmm1U/yZIB97mxPvgapnAvgdA0v31cpBGEOv4FEhjb1BnKOjDo5mFmt7nJC5WqRO3KEH70lwy9sS4RHZLRoXTBlzul3/nr/+r8z9+ra/bzXrka4NEr/Vy8XPWK5H4UW3qSFCL2nyRm33Cl9e0EtCGSnASzEy6qHXI2Er6x6o08sHUPTpOWI1MKgG8QFCuItg0mIMRqS+mRNFx0uZoYGKBhbPsZ2zE/q7yTSFWbyE6BEfwQB3BERsPr7VNH5yk3KrysREnWhoURK6NJlNLGcJmJC2D2AGpvj7I3Pf1kdQlhYJlRipyPi0I2ZmVh4KS9IOhZS1jOIC1hmsnz3nUh15sA9bLoaJP58Ru0M5VsMaUWv+FKE7+OXFF/VFnWuUktRt7iBLpSBF9GHnv6owsMCO0828C+Mc3+OfTZ20oTtd45cJbw5BzGkod4lZ/V2e+j5pxLmLGkVPWoKrGwkrINzd0kxOmPqNbDWpVJ3e81O1kG8adrGm1ZtPeu+p6ZCM66rwihzo+xFBnt0pYXu5xeNBJoDIdffSYbUVBsnUqqAMTIaVcEVbt/OvnmJ2dBS9rFpnblHW8cy5YHfUYulTlmIbQrYDJ2oyamjnbuBDzF7VjKzrz3QyXK0o12pUyG5ilrturR0BOjPVywPKgw/qoH5VKWg6w15giC1pTpVq6EWpb9UJVjuvQp8r3zSmP3xNQyyWsiN55h3kbn/mb33TbD1/jy3azHsXaNJau8Xr1c3b+S+/pLtNU5yw3GmN0RHJOaDRC1PZoZ6ESr82nExAUNVtExOgRlZM5dKlq0G3CpqWTln4yQ6g7qtuvUzKnddSaSZKOKaGKStOQq9GHmCzLzHqbPWQBp47RYFQzEK/BUR4UvtZUASC2oSJphhH/xZ4vpQwUMfXI6icKYGzAkZ43Q5qKvp1a6E2Nm+tDQonxPggelQcbRtksUOvHwh0dgzmUG+pUDlUNrfVBZufWBemqH1xY6/hlOd9DLw9FmwhQywUskls7PhvIxwDiLNQprAABzoyd6YWvfu6O+9fv3DSZPh3WJp2/xstH91nOOeFCJh3vMZn5XkdkZEIeEkBc3dWZHcCl3kRitKz10iKIrF0o/cas4ZyDD1wbTBX9gSqqlT+AD9KVIQBMYywxOpLct3ZzE0KwFLRUezgzOzanJSt1Bm1ahWjqK/nFMMisdeeEWN+vc6VDAcZdNU5sFl27l1KIyUNBZiHodGSyvKdbDwhBbfPKWEsFbNy004aNq1xYydhlnhVps48LAKclAIipiPFTjbpUcsH6UFyzrIYtB6DeB6z8XHPp9wTW78e12pyrmYMeO0mZw2ra1nREGPdXzKyZ4ehFV/lS3azHuDbp/DVeRPQXITrENhxTuDgnXpeA8i4NDvJ4UwmydDXFM826NGPMHYkUTbLOdc/jzcZjgGOl5lhqbaUBlNFh3lDjtOQAADGG2jEeGy0yiwjAMYqVjSD26nUKKErVEoO44nsEHc5WEaF2/MGM+XaDdh6kG94GqSU7wmwexD4OqOhXxqPIdqE1VYY5yI90MKEwMXJf0K9z/Q6OKaR0UoCl42nI6vJUKoptZjKz/tLZlYxqmQkXdHnYyyjq6LHYaSSboFFOKxcD6mcVLeXUcoR9j8qJDZatqLeCGc6on0KcRfel//vfuvFfXZOLdrMe1dog0Wu8hqE82ZpDll7Dyc2eM41ddIbyBJ128MW9SZAcg5nAilIsbc2O6jgQu0FFEy9TKYlcvWmtHJrLOFTO3udobEIBIyI1krv3Y1faaS3V0ljjNloaOnQy+dN7qibQjgAXPdZH4hhvSqk406F6K6kVmvyVWVL91Cc9Px5cSn3f+miQzwg0mlZDUmxA65xadyUyy7sCTuPvAOF52nk2bihnoLCMP2lVHiriCFTa1+qoR79O1dh5tmiEFK+ZxdFBD+cd2i2HonXflIqeiyxD+kyGq5eE1Hxle/KgLZWRYOwAsIxW5iL+pj7EDRr9NFgbJHoN16/97Sf8k8XMnypaZxypSCOhGwBiOxkip+ODu+Wgs9lFmdOrc9HQCepywQIuV05hpUKxkLmt4230pTpOWcdWkHbwpUY3pubOEcxJz3iVxpU0RY35fkp5wT5IHgTSGCuaPssDwtQ8IXj13JT5RjmP3XWZtlngA2G+FdHMpVRhNCcAOoXUJoFKScFKI7ERfqihaTtmUSVRnSQqpQTZdIgeplWXxpul1qiihJwy+i7V74CIMNuKKFk8VK27b9/h0GU0s4Dt3Vl1z/dOji+pu5VJRkuRxl2vdeA6KFAOu04ENa6wjV6GfF785Vffctd1uJQ362HWBoleo/ULX7j1rOCary8kuvScC4aOq2LFOsxhJrU6HpJOfhzZ8jbKwsYXG+9Q6maDoEhtQFlwtFTcBt5ZCiid/xGFAZDgpPFvnD4JAKXOWbcSA0iGxtnUTnJjTdeUR4ZaSxa5aWzGOizgKqJNg3x2SgVDl6S+6QQV2hz2kc0ghsxep5L26ySKJkiQ8+K5qZZ447FZPdQURiCC96pjcMDQ6Rx4NUcBUOlUReuVNkTPEbA66uv2SYUAQMCls0tsn5gDwNgwa2T0dMlFa8CozAiuAbIg9VIjbedis2eo1IQR1u3jyfuLOmDJyG2aX16VOwC892pcs5v12NYGiV6jddvTdg58wOXVYa9uQiIvzIOY9BrdSUucY1qsNbx2FtDouIrYBB0HQso3LLVhYY0Mo+4YWrQxzNPZ8+StW89VoWP/1v85lu5OeZJWs/NBgmdQPqTUSvXut/IfjZ1t8za1NJ1obDbVhow2stpZqIPkzMVq0JQe2qRp9DX2OeBxbDQXOyf2ecpS8FQfFgKcqabiIr/U4KjNMx+E15nSSJyPKs9NvQR5sHyfi90Zhi7V4zEuqWUNI8NB3hfbcGxSKrTWbdMAfDje9DK5rUVYZhnXHHzB6d10w5e+uP9e/v9u3YCh/4xrQ3G6RuvNb/+eS1/wK2+/O3X5he1Wg3YRK9cPSjDPSYTjsZWGiaNxnEQaTD9NcG5UF7F2vJt5VAK8IJ/YiGN70KaNzX8fU3wIqCwqv3TjSBBLhy1NDmpUXEdx8GjPhnKMDSUUHd0WMI2jo1uUNWpklLIELRnDoUhPzTaC1iiTpvXtLMBHP9KBMCJsItRjtoeFPITUFi+XGhwtDba9k/3lisDtNTaaxWq/9j4zJDHU2q0SVkrsT0NGrw5NMcrYZdP/L3bbWsO2cSeWgWTVxhvNyQQEzCP7AWTSALkGomdstRm33jjg7tuWOLM7UBvpyYcfXF7+of/Y/961uZI360pr8wS7Ruvnv/NnX7ds3Dd2K9Gfp14UOl479WJNV+BU9ZO7UkdEsJYZxUQYdRJnKWL5FnX6pXX1q3QTqJQpqxlOCe2knf7ajNLgI8irVMMSC3DSLMqwhEXGXEi6G1tf09Q6ulj1QBa0bf6cNV0scNt8JknfCUM/wGaymxEHACwPe0G7ymiITZD0X8/L0OdaLw1RIJtxb43gbkEyqCu9jGcuFRmDRWVVO+Ta4LJ9X3adIuRQ5y8tdhpAj3O2iHK8WR6GpQhtLKeCYs2wxCBIDbtbDWBG3V7JBbENWutmNA1AzuHkCcaJ3YTVsmDRZFw6CrhhP+PMXq9IWx6gFIDY8i3X+HLerIdZm3T+Gq35onn5DScQ2Dlxl8/j6I8a6KLc6N1ywPJyh9VhrwTtkaLjpqk1BKl0q4RulWrqnZQq086DBDdNn2tbXoNXTqUS5K0+aWjUOJeWwpc8yhjtc4LOBbIGmAUKa16ZssoHM1geu8+APAy4MHoNJCLNlL+LEuuhrIFmFkBEWC/7Wv6YnoNqVk0TXqnKSI0mRBPEaQosOz4rT1RvVduODZZLdhz+2MSBfp2RBwmYwKi/N3I/AESlfvWrrDXegNDoiGiedOoVPRMB21uMxbxgMc/YmSc8/eZD3H56iTtv6XDLjRnPvKvDTTemsSSjD00fCBSbLzz40f3Pxsa0+T/L2iDRa7Qi+ved3lp+9MzT3C25ZRysIg5WDXJmbMWMVAKGwaHrJFjNt1vlb5YafEwdkzT4cSnIydJaQSzZJkuyjAKByUM1dZepkoTMqLQZWYQQ6RhS7VeC8sx5KGejUwmKtbdmRyhgIbkrJcg5p/sEcTOCNIKAkW7EQdEzEZqZV79M8weV15qCKfXS4bYlrICsggOuCLTWEHMRwUIu4CJo1gUH70SwYAT2oAHOao3m4mR8TE/ysOjXWYJoG3B0qcOl8yu0rXFCOzSzgL1TC/SrAd2K0WwJXSt30gg0VGr1zL4r8JxxeidjKB59LkiZQEzwlPGkmzosmoToGLGBjIAu0vgDQc4ziaZfUgiqzAf05XZ2+NFLP/bD/+ce8E+u0SW9WQ+xNkH0Gq2n3rLcAegmAsO5HjftdTh72EoDhIAHLhQ0TcGZbcaFQ49VarA1L7h0qdR6HzAiUO8dMsYbvxTWgCQ1UiHOQ4MnasMFgNb6AA9Bm0bViY0QFYXmZNsSJAuoIoldNVy2mfZOGyPW/Sbr+qt6p1uJaxFbhZTlP4LuHJqghiIKlJtZ0OPJ1RU+Nr5KHq0uyaXAYep+xVprJTjWGe7kUBVKNNK6YmND5pSWJZRamZ1EVvPVsSadDrZTZNvMfJW/2jJPAfKErb2ZKrS4ovfKsQVhfzdht+1xaidjPRByybh85LG3y9jeJXCXEIq4XDkCEAiu0ZS9Nt+EKywXg6rMsqBvFGyTh4cLn3vNLujNesi1CaLXYB39zM5fLRT+uivsCxFKksh2encABULuGXOfQVxQyOOGnR7v/VjGyVnG+qjFgIjMhNwN2oSSMZSOx5Q6G5XJiQnySJtCrTsaWwpA5RlyFrQHqOVd0DqkA2Ibx8DjCYCTOqqjSUMKQBJkSJPZSfIZH91/oQAAIABJREFU8pd1/mv6rL8ouVTE3a9TtbSLs6Cu/kLODyQ/s642QR8UeWz8QNNyoRWNMklgfADlJDXmEFQMwONsqSpQKILabTifmboAqhhzhPl2Uw1YxIVJBBDdaoCPHvOFQ+N6XL4MrHugbYC+l/lSL7x7jd2TJK5QKyCuhY51406Wu2/mAQ+UgUBaZ4Yap1B0IOekmWd9MW3ZcwEwMOAAah3g6XmUsbw6V/BmPZpFV37JZj36xbj8M6ff5hgvyj2DIkmXhSFBqyugzBpcxWZtyA4dO3gPXDjw2JoVfOIc4cP3eSzmQAiMC5ccGiXme8/ILEEoGZ1JkRUgQcHSeWMwCXocuaXSjLLRHarmMX5pHmtuOUswM8d5YxAENd1IyoUERhZBzqUOsmMeye/tPFZ5ozVqqh+oo+oNAKDOo6oNG5M9qomy8VdTKvBa97VjLmzIXExQ7MHBpVRjEDteciOx3RyySBG6FFRdnVEvJtciYXU+YD4Dbr4x4eTWgOCBBy54BGLs7BG2XI8YACwEq/Aqg82gOQFu4aUrITRaUCP/5i6DBwY12rKwKQF2Ygh1O9R6QB9oYM754vqb+KPL39r/Cdxzda/pzXqotUGi12QRXHNmQVbM8oJcyEshrg6IiwTuzTWdEaMgrMUpCUrbkbG38Fgnh91FwT2xweEaePodazAx3vfhGQ6PhHQeot6ASoQ3ehIgzRKvbu+A0XlGjbzTIFJ4dBayMkLOqE2qotLJEB1IlT6mKzcDZXK+BkZBUaxEf+3IDxmlUG0yBU2zh4r+nHhz2uA9pTYVpRlxEdcjBzOXpurDas5UgJzyWn4wipU2dkZakyqTshUeREaaTUNPBbOW0cSMniPmM6BtGZcPCbtzxv6JAR8/67G3SJjNCbOGsTUbaqmAlwXFOVCvAV+R91hzAXjQkkR04FQEfbYe5IxDTGP63mttVx224ElIigrMgyNfFs33NHfP3wWc2wTR67Q2QfQardKX0wTAqRa+HGW4mQepcTLpcDVkCQwS2Byo8YJEinTvz5wsICpgAp67uwbA4MZjeQjcvHWExV7CEbVYU4vgBJEdLAkHBx6OGH1y8JBBcMNQ0HcFs0UQShBQkWJSaaTQmFylGUnKzUhqTmKEfvP/NDTHjqpZBxuntRRtHEmzyqu0U7JSRmikLGE2gUJGV8QI1EF8gLEVVFs/KWUwC7K2uUdBjU9IOlCVWZCz1EKrnl4J+YEyGISmAUAOt96WcOGSw6ojDKXBye0e23NG4QGntwYQGKttwmKHMJsDN+z2CK34p3IB2DtQIKArgAbE0eQFQBLul9sKEhwZKF0BHMO1EmTJAQg2WkD9V7spQRcgK5UMLMGU5WFKnmYppb8L4NXX8PLerMnaBNFrtHgoESy0GXKiFuKiF31msJ9IMJVjiQLAFDSpyOsGrrzR7DRqLQtin3HTSSDMPU62BckN8CSIdkiEw0uEYSBkcli0Cfc94LFcEm4+3aPrB3z0/BzJeczDgMJSV10sGEcrV1PHnBmEjFJQO/XWiEJtxsgxqLuQpvqKlqKrOailytkkjVpCMEf3ZiavtUFvJTGIJeBasJyO9jBtPwAQMxZtQWGgz1QZCj7ITKhICfMtRtMwAhWseofFjDF0BbOYMY8FIQKLObCYM27cZhR2yHDwKNW9yinKb1sGckE+hDxgBkH8rvUSQBlAIEHlXiz1iAFqHNgDyFp70cYVWNNz9sLOGDA+ZPUPEcBOgq4dOBV1fQLAqvMPM3dHhnvipX++/Tt733H4U9fq+t6scW2C6FVe3f+y/fQhzL+rLMsJuasL2JHWvgQ10CS4UJDgw5klnRuS5NdF/j0x+ZQ3JEa+nKTbvhelbkZAdEU5qAxfGHuLggJCmDnkruDWMwXzGcM5IA8DTp1inLsUcbRkEDP2d0Th9MDFBtGLw1RhYLkShOnIIQTGpQPC7g4wmxWcvwCkBEW18ocV2kojeeROWnDMWYObN/MUV3mq4nZvDvtCq+Jc4IIHqx7fOYFqTZCZVakQ9rclSG0vBNF+5AGP7VnGfE540k0Jq7W858YzGX7iBTD0LEiQCL6BDgckkCvwpcCDQV5Qn3isKD2qMMq6gDvt9njS71F+zb2k5QjSQbfvzySknAV52rbsAVvWo0eCZCtq+6eUprFwrdeSrsoJBpALECOFxM23AtgE0euwNo2lq7wOf3b/ewD/93ngE8xMzAAyV5J0JVsCMNkkSFAKOYgwesgoSzXnDVITQxFUSialIUG3pEodu6kYkJQRqDd2WYpLvMhwSG9c2a9+IMSW4IiRBg0YYHQrxtY24YGDiCYAu7NBdn/m8PEHAqgUnJh16ErA4aHHyb0BB0uPj30iYJ0CgmfESEgDY7UmEBV4Jzd5yoQYgOAZuTi0LbDqHNZrYGuRccsNCffc18CT1GFvPAPs7wyY+4R77m9x600JsyYDBXj/fS1uv6nHapDywnaTdaSyzIwiJ5/nvZ57TZHrObPvwAJhYpRuDGZQehcnPna3yENPUCC1ZtYCrXdqbdrLwxEOtR4u32MRpApCUYUVdMgraxPJbYmEtQws7zH1lV1HhmLtUtJjk9EtJGSM1dGX7b2u+83Hf1Vv1sOtDRK9yitzXi1i2F8NcrNQ6yWN05uQogNro8HN7CYjRR0MHjLQW+fVGhFQOpE2HzyBWlf11QCA4MF9UqSjjACnATMQmAUBkyeUVa7ltRgBeICZ4AJqw2O2IJTgcHJrgPfyYy4SOLbbBIeCGBwiCrZ4AKLHyRMF86aH8wOWvcN8xuh7wsWLwJmTBakrGIrHbMYInhE8kBIhtoz14PHh+wK224ydecHTntRha5ZBzJjFAhbjU3zGkzuwUqwA4Ck3rmWm/VaGySGDTDEGitRqvceI3Jz8HNDXmGavMFgEUxV5UpDzbeWUGsic/I6coVpBidwXCcaOlJZUKikeZNkI5Gf6vZGDFqUBtA5u5mU7RXih5JQiVwSRyuuhdeGxtFH/VlDaRqJ1H04sf2rrlsW3nP/oVbi0N+sh1gaJXsW1+vmdl6TU/oLL/NRCQpR2iyAIMBUJpLWhpGgoF8C4mKnoDSRBYkpxQZAgyKusHVxFP85uRoey7AEIaqLGaapPwFBQVqmO2EAZa3Jj54ZGxKMlB84sqNZufm93Kerv+UgCMsVx0B4FJ2RxPV5iFqUNAxhK3edj+1KkrMAOKM7p/Cc5Fu51H4JC2TJNYRVB6pwiIZ9bqowxSBJGJJrl/NRUu2BEpTqozz7DHnjU6APNAq/XYKrHJaR4S7m1xmmdN5OaTlJ+FH2P1UcVCdepqkZxMrqZ7id5DdC5HDseIdPqtWAlASAHB5+ZX7bzbRfecpUu88160Npo56/iypm+HIS7RJUkgY9zAQ+qL9eL3m48mPa7U/6gIlVEudlYDXxp5uAaCSDUuPFbs/pjn5EPO1QydtEUsBc1Eay2ZrN8Zh6u9XLTOdIUXlbVZicJoGYnZzcyNV72EZCUEop6tQkGpyjZOZ1V5MDkaoOMvZkpQwMSVeWN9NfEzQrMKH1BGcqofLKxJQRt1jnlR2IMrIWrDR+zIGfOXM97LasAY2ptabEGJE4TOlF048PMYfQ9U4WYBFD5fyu1SK2UakOo1kpTqUhUHgoENG6sufYFZZWPB38Lkjz+2wyxKYwPEPk4o8+xVS18PzBKwjcf/g9bz3yEl/FmPcq1CaJXcXEOzwA4U9RpmaP7Wk3buJ8EVehN7WhMxSCB1C0k0NV7R29WCcpy85sRMXcZ5YLULGkWlC/KQCoofQInQa9u7scZ9l2uCIYCVfRJMz8iJj/pEisqlU41yef3ajenwRnKOOCMsSmmSIr7Al6L6xKCBiZnRimQn2kwsbqinT+KrtJ46rlWWStnPReG6oBqN0d2XqHnthRNz8dGjKiWYH2xMWjVuUwWnFFfD+i+Ja5lmilqhXbza+rvnSB1PzYUQaPPq5UH7BiNSD/d9/rw1Z+TczUYU6BK1K+fa69jzsT8Gdt/73V/8siu4s16tGuTzl/Fdflfnvo4gJMg0hGcqOkdQPVmJyVdG0IStYoTFGRyv2C0KNTgwFmCGGeuXX6Kon9PH1+CPMGfngM5owwFLroxtTU0ZAHOAp91fa12hxGx1qjuSdJ6Dbi2T2OzY4Jy3RjsuLAgaEulJ8cHpwjOfjbZLjnZ5hhEpk+YT3HiDbkpSiPo+61kYcepCBUFoIaAPNnGdLuBjqG/6fdUA7kFKy0ByH7IeWSd6loDcz356jBl9VHbd5KHAjLqdwHmKgNlaz7ZA61+p7qfGqgNoUJr1xSEEsXMHXn3LuThd3f+zsH3fIozuFmPY22C6FVaB/9899/Bh1eSp1CbCJZ6JZYUT28q1nooTRGITq6UrrsiwCDBtKzUDSk6QSnFApHWEtsg84oeWIEaB7cdRnRbAAtA3I/1yBpc7DWKaOq+eQ36aqTBVn/UgGhSyVrT4wcFOQtoTjXhNKazI1MBFaUaQraAKvs2CRoKzurQNq+/Z1TqWK1Zku4AUQWXALSWyDrlbaw/1v2x95pEF5MAat8bcDwI2jlUHwILYGwPg+k+T2qtxzKQfPz1cm4mDw77jAkSP7Zsv6fbs5Rf/Q6CA1IqH00r/pz911285yG2tFmPYW3S+au0POjXUfhsvYBHhx0AAC083G6A2xZuJ0WqiAwOQKRKL5KbHUDWZpSl8ussKTFpisuMssooRz0oEPypBmWdkT7RgS1dn9TWuADc5xqsOOm+Ko3Kuv2kTRMLkvU4Sq21oWgwd4sJwdwTaObrzexmwkxAKkAaqTycpd7JfZESgfFm3VhXrCj+QSn8+DvUAMpJtgNL0y14e1LSu6HQMmYGk3hV03k7V8P4/T145LEdw7FlwX6KUidkeXKkdUt9GBWr01oZhKRGrYPuZPs8HqMtd3y/p+fFrjlD0OSFQmXoNwl1ai/M+Ys/eQub9XjWJohehXXx+9onD4zT8BTM2UhQG41o1AFapJILvHGj9fswQXEMaaQQwJ0EGrcV4OYeZZ21qUPVpAKszZFefuf3G1DjUC4nIW8XwDrEFDA2tzyBGqqsAEwDie4HkZQZLBhSdKKY0fpobYQYGrQ/NchxLVvYkDxnTSlFl6z7z10Rmg/wyYjLApdul3kS1AvGptJkld4eMHmsVfK4vVo3BGqdF9Pva/q3dcjts6cfRfZ+aMDSzzEUmiZBvqLaSdlE/0xtC+UAxuMaH2IY7e8mxyJKqUnD0bKLycOCGQjBbbN334LNuqprE0SvwvI3t9/qvPt2EJ0omjZPu8oEqSnyMAYdc16vNVE/IpxqLlcbLfJ6vxXGOmLS8cZaN6uNIihRexHGQKavB2jsrBtlqFJ7UG3tatPKU6XywNJg+70h5EGCld3cUjKQjyj6ELBVUhEEmsaHRjXTwIhya+BNVgJgqRceC9C2VZ5wMVGDBk34n9NzfKzhNP1jrAYc/y6ONXcmgX/8HdX9Pk6vOp5SC7LnWlee1p85FfB6GKlKJpyYBmxD+p6O7x+znrkjgM+DSxoDb03x5RxL5cU97/JP7r3hoWsDm/Vo14ZsfxUWgxJAN1HhUEUkFhADgDCpZRotx4mDk9XTpNkDGPexNnHWBencWmJFqzN/WWuQUdCsb500jGCoaBydzGlsSlgJAE7qnVCWgAWXiqDsGKwsAaD0Am3cXChMFpxGLfuY0rKaZYzeAHpcREImD2NgZXX2h5t0rp0EV85FjtWQnga/Wl+s/qlcz6OxAUgt8+D4eEMo4FgQFnYBJojNGlM0Nrm0HAB+UPBlQHWj9XMN5VdkGVylRdVGlJ4POY4CZgd4B+bzIH8ScD1QmmNoGePprQ8g6eITiDvQztNB7W0ol/4UvH5v5boCJydZhtgcgvyrDn7y9J4rJ351+9sv/uLDXdubdeW1CaJXYRHyAcN7S9VoeqPSAFAzEtZhckFrREjqeawGZnU0SMAiRuWLknqIGq+0EvEbJ+m/Nn+MslSbKdY88dK44l5jwqQeWbmeFoy00821wcGSlmpaz1azDVCWgGaqRChdrjVJCdgMZKoO/BXhKk8UsKBiQVkeOIbeKmq1AGYBlKieU3jItM+GVCILwEkEI/ucPG4PekicJ0ojptoMBMaUu9ZCVQNPFpiK7Kttawrw6nvsIWIAvD6kjoDFafjdW0CLp6AslwinbwFnQvrznwDoZL0eAKj/rAb5woB3cPt3AeVtmH/J/wruPo71m18NlKfB3/GlIJeQ3vMvZAN+G1wagBneU1uA5zNoC8AmiD7OtQmij3Md/uqTbyj3XvhG7xCyIhpmACmD+4ug/aeDD98DhBng1op6TslN71DHP1gjgov9rW7t0YH05qmUHA0+wFgjI68qF/ud1ucqyjSK0TCmeU4RJQ9iqCEb5DG9BUmaz4LMrDpAWsMj78AooOCrWqkwpPzAiupUulgFBL0IDCzYwkFoUJCASCTa8WPZpv0/jcdGZD/gCdKmEWUHPQedInJNEWozb8rhja4iaYIgyyldCAXgCJAizmNGIIT6gJJzAK3T6musnAD9TH3ogVfA4qnw+0B8zj9EvPOLIZA1I5/9M+T7341y7rcBtw8bVU2Yfu8AsEY5/zaEZ30b3Ik7wPkJiM/5EbTPeDVAQLr3Lcj3/zYo3oBy9EGgOwtwQM6A93RbAr2Z3/mkE/S8ey4+yst+syZrE0Qf5yr3nv8V7+j2XDmHinZwEfE534tw67PQ/8kbwBffC7fzfGB7C/kjvwQsAcQ9EPm6LWq8ACcT0WRRI5myCdDAlFHdzgHUWtknmZskNim8dsg19XWT1xZBbLzSFDw40MxNCP2ShoqAYDxEkARGil6VTRhlnEZTmnTajSJVO9cTgQH032T6ddYDIJ6gz0kAY2iNVz6XjHBuHpvmFzBAAq4ZTVsDT7cNYEzVMQl2NROwH42jl6spjAVIqxc7qo03TkVUYrbPFvDNuckB4BXic74Z7bNeBcQtjFIoD/IzgO4Dtu4AdRdQFWNK5ZJ6egZoieZzf0m2AQeKW2if+RoYdA1PeAlmX/QG8Pp+lHN/jv6t3w00p2Q7iUG5PIOe96GLIyzfrMeyNmfvcaxL3487cWr/9xzhDNvNDgC8Am3djMVXvAn54H3AMMCffCZosQvkhO5PfhHcA+ldrwNwApwlQJEqijgnUDkHLtsQuyUPCkFI7UkVT30GOZVumjHvRNtu6eiDuYNCpZHfM6g2YET+iMolrXU9S38NgKmjFKwUYCjMkLQ20ACMckYN4Jai12671Q1N488QAxZDidPgaevBDwoLxPUlXGuAVayg7zcUfkz6qbXPY8s+d4JEp3eKUbosm6if12gQTzwGZ2tEMQQpMyAefhfRftl/RHPXF37SdcXrcxg+9Fbw4Z9g+KNfA6/fCU5zqb/YA3M4j/jiH0L7nK8HzU590jbqyj3gG+RzH8DRzz0FtH1Sf84A8wAqv7HzkrteTS/4T6uH3shmPdzaINHHsfL21ix42jU6jHWamQOwfj/yxfsRn/RffNL7Zi8U0cgqDUh/+HqQPwkG69ylHuALaF70LzH8+Y8Ai9uBgzcD/RrAjUA6KwGJAYQWFHbBfZI6q0281JSaoaoVGknl5jQEk6GaSsgLKb4gjc5SkY7XBk05Y+YkwIjaaso6qQ+amoYIHBiESf21oj59r6XbTgfKAVLrDSTptRHdIbGkSi6ZR3MQWxYETbEzYETHhIr0axJggbBM/o1xn2oALZAHmR2nnWurlVrZhcfDOnZ+FFHy+iLal/wgmjtf9qkuK9DsJMKdnw+iz0d6/zvB67cB8SSorAXh6me4dgax3nqY5RvZ9XN/BMTJeXcE5ygWuC+9/Lb3/QKAVz38hjbrodaG4vQY1+WfmH9F3G7f6BltmfIJJboBA9C9+XMedhv+zPNqUKmBrlyCv+FzEZ/2SoS7vhHx6d8I/+TXAye+HDy7A3TDlyM8/4ew9Tf/Am7xZBCtgNbboLKRcO705lV/TE6TKKP1ULcIcM1Ex57HoCq0m1zpSA/WoQMYkar+f1U7qdJqihKrDn1CJQIgPzP9e+bKAeXBuJWozR1OZSLBVNejCY9VtPgAdwVlncGrIrVeQ9OTVWvHFlTNsIS5ymIr51OPuVKbpjzN6TL+qqPR+ORBvyetJPjbXiLk/0+5CC5sg/w24nO/BvF5/xD+CZ8N8MUxsDsg3fsOIA8PsY3jK5/7MGgGDcLyM/0aHMjdePEH51/xiDa0WZ+0Nkj0sS4fbwJwc3FmwVZG09widCV/8zc97CY4jQilpo6xgPaegnz+D9F85ncCaQV66lcCAMrhR0DtPuA8yHm40y9A/sh7gNzIzRuEQgRg5HoWhouu1ivdwkOMPPOxIAgA6It07rUZxACo8iIJLkr5gNe5mkWPTRRMAs4Y6I7pvIs0mmpHnHGcz9lM6ozQ4Emlbrf6ck5SdDAkYBr31KP6EMBBNf8k29agXKGDuVRp6aAaoEz5mirnrA8hi3u1xGGsAlakWcZuvr1OD6GO9nAAH52vzvUPt+KTXwG+80vQv+N/RvnYG4F0HnAteAXMX/GToLD98BvIPdK9b8Hwru8C8haY80jhkgzAw7m/4rZm28DqV6+4Q5v1SWsTRB/TYhDvBqsHVuI5WOqT6QLii38Y85d898Nuxe/vSAc9JwmMwQEJoO3PRnjiK+RFcae+3m0/sX5++tBvAnEXZa37MyHFH8M/FthVv5+HAmpE3cSsWnYrO7LWObUBQlmPCZr6WjCr3EchQNnwNQDHNfnTvy2YauOsOsCz7b9FTtR6q6iZDFnTiLanwYsUtWZIo0vGfI6iAoPCLDWEavRRzw9GOz3rulsZw95qKqEHn1sjxZOciSrhhf6dMFJLpzXV2Ta6//eb0P3u3Zi9/O8jPuXz8VCL4jaQlnC7d8I98TvAlz8K9B+CO3UjyLcP+T5b+eADyB/+DaA4gOJYa7aaA4DoCankP7vixjbrU65NEH0si78a/NPhrznQIq0zoB1vCm680fqPIN37uwi3fu5DbqYcrPSiHjv0nIB4+/OvuAv50gNI7/8JIG9L7RIABkbR0cOwgJO1hgiM0lNLh61jnM0T1HYCY5rdl1pz5CwziRiGKCfGGRNZZEV0hrJN2w2A2PThE+WQc9UMpO47CGSCgYlu3x4WxHScSuS0ruugEz1plIYS4JiFQmWBjlEFDhwwIbYzKlc0X5CHXNwD+ADwOlaFtoDiwfkA1Mp3VptLjBpAsQLQAIgNwD2AbYAawLcAH4Ev/T9I977qYYMoAFBYoLn7NYif8TdQzr4T+WO/B3/jZ0tQvMLy+5+B9f1vB3LU8zz5jqePBE8PVVvYrCusTRB9DOvSj7zpjc12/Pwe2pFNY8o5Nk0iuCwfchu8voDh3rdMkIsEN7cA+nf/O8zPPBtwD3WTEPzpZ4BXALW93CBEdZxIbXDY/hCUAhRGDbippbK64BMhrwYJGorO5D0evFZSfRTifVU32fYtKKnNm3TqWRo6tYCKY+8zrbeVQmAEctJzYXp360ZPzUAYY93UGk5u8nCw+e5TBGtOU9PCrhL1MbAEUqeB12UQX4S7+UuBdg/l7L+GP/0KoD0NN78d5dyvI5/9I8y++JdRPvFm8FEHXp1DPvgAwlO+HRQJ/gl3It7xBejf+yb0v/MKuFu+HuX+P0Q5/2cgzAAnAox89m1I970I/vSdoLj1cJcdyLWAPwGEBfLZ34c781xQmH/q66u/jHz2XpT1A8gf+l3QYn+ivBq/FhAwJEYT42sv//TJryzL/nv3/u7hTz7sjmzWsbUJoo9yXfzh+VcC9PJ+XcDKFyRtJECVN5wBf9tfQbj5pQ+5nbK8D+WjP6tpptQGeShAswM++8soh98Mt3vbQ74/3PICtC9/A/p3/BT44PcBtyM3hjkq2X4p5YmryxFqSutmDuxJjE2IwP3o9VkGUeXUQXmYNJcm/EciDVjqnFSFAmblBow3rQV0Q30McFEbPEXGXCAjRIxWZKhYP4NtO5iQ9O3zDM0apmJU1ZR06ml0pWI9tknAlZ9n0PZJ+BuegfmX/SLgI7q3PxH+1LPAw0X4Wz8P3e/fj/aZ/wDNM74S+RN3g9cPgOZPAMI2/Inbj31PzZ1fCDf/HZRL78YwdOAH/gBAo7F8Ab70VvRv/3M0z//HCE98+cNceXrMJ+6A232iUJcepi9cLn0I6994NsoSoPm+pCNT4j8wPliYMWSAC1oXm1fyL55+I33d2fuuuDObBWATRB/18jG+NHq/15nCh7gqURgA8mX4Wz4PWJ8DhcVDbofiDtzJ5yAfngOAOggOXQvsxOMX+6feAtrnvBbpQ+9HOv820FwH1BHq/KDqB2rjLWybw2Tjk8YSRQK1BLjzoCiqRF4DbmcHoMuS7nsH4EQtX3BfxiaOmwRH+5lRraYWcllfZBMwE8s4lWMGH6pqYpXJOgJXZdDY+ZfRwhJAqdVySr4E8oMamACuPSX9nXUejY0BDdxa7lCTF2AAfED7Wf8jaCacyvaFrwf3R+DUwc32MP/cH5QGHwB/5jlX+Jo8wq0vRTn9NAzv/j8qHUpa9A2wPgvEF4Mvvx/5gX34G557hc21Ug64Amotly6D1wA1Z6Q5N/memVlMUdQkhYg0ElAoOd9HX3fuvvEkbdaV1iaIPtpVUi7kpc5m/pDAyLvkOcr5tyKfezl4dRY0v+FTb+boPritM+DZCQAywZIigZxc2MMHfgPt87754Xfl0sdQPv4DcIsogKIvUvdSq7oaNKeNH09wCy9z0wf9ud1M0YH8edCJrwJt3YwwP4Fy9k/BF/8t3C3/NZA/Bl63KOd/DeB9Md4gjIFpAj4r3QeToEeGBLWhpbzRknmCcse0+hhiJNSareyrBs6MUbaZBoAuw9/8RXAn7gbtfib46B6kv/h74OFkHT1dTagdwD2P0wYI4LSC8zeBTtxRzzM1J0DNiUd+jXzSIrjZDeBerWMJAAAgAElEQVTuHtHzm99BIPAwIH/gDaD0cYR2F7RzK9z89GP/qJyQL3wU/Tv+gT7c87GHG1jbgUXc98cps3rNFLzm4o9tr058J771cRzwX6q1CaKPYnU/c/qpXZe/rhDBNXph9lrHC0KCJheAIYF4Bpo/tJLE7d6Oct9/AA8PALSPsspwLYPnM/ib/hrCHa+44v64vVsQnvKjSH/63RU4cF8ka0usQXk0zJC0F2raof/WIMUdo/TnQStg68u/D+70M0BckO7590D7OvgzT0P+xB+D15/A8IHbkN7z4zqC4yRqvs3AMQQzDaqGKquhCI03dfUYlfS+uvEHd3zGE2OioNJmVB5QlgDSAeABf9vzQKfuRvvC7wPNzoDXF5A+8Esoh+8Gtfp9WHnBEFjWkR5+gNt7BpoXfhvKcAjKA8hfuXnzSFY6+6coF98DClujAMuRRHIXULhBuu/PwO4Emjseu2/y8v/+xxj++AfgIsC0L42uKS9XT3W1W9SHk9WbQ6SQfft5wNFj3oe/bGsTRB/huvQju1/cpfK3KdC2OMSX0V4OGInVLClw+6JvwaiH/uTlZvug/ZcCl/4tEAqICph7+NkT4U8+F27rymikXLoX6N4EDrcA+RBu7oWvWk1HIOhrmFB0MqTLrLVOCgFI9wMeaF/2Y/CnnwF/w2fCipHhjq+qVBh38jNA7Yvh5jfBuXMohwX5vjcBmVApADRJ060DPJFxEqhOp5SDwDiWGSuQS7qNXR1XAik/OEOcpXJxubsAWtwJuPch3P39aJ7/VSBklESg2RnZnXYb/vbXoLzz9WPwpkmpQzv2pWcQNeDz74a/6aXwJ259pJfGI1pEQLj9y8Bn/wDcdyhrBq+MSbGL/OH/gHzvryHc+FuP73PiJbidE0BnPxh/Vz1GLbCqYAEedTxLlizmKfzuM9v0jE8cPq6d+UuyNoqlR7hc65dEtM0F4hk6dUEnVOMNTgW8AvL5P7/CBiOaZ3+r2MhRBucDcN5HPjiH/h2vRTl/z5V3ykdw2Ie74ZlwcaUpojvWfEFW2z1N42nm4GZrUDgP9OcAuh/h7tdj8er3on3etyA86Qv0jRYUx7vQzc+AXATt34X43P8e1CagrEYt/MMtS/cdjjd/PAH5PJDPw+3dBtp9AdwTXgq324DTOXCfUCkDZUKpKhfgb/+vEJ/736B96c+j/ZxvhT/1TLhTz0a48dmTz42Yv/Q74GYAkTX+dHyIpfBAHSEthiZXB32Oi+H37wLCHKXMxB+guvNDubALYAD6//QdQHlkKqQHr3LwIfDBx4B0sdLGzJSZH9xUAlD5osaYUIGFB9qD3+rf3v3Yzl2P/Zj/8qwNEn0Ei/+vZ28dve/Dz0lDfqof0JRINc2sUkWrt+VLiC/4AYSbX3jl7VKDcPe3gZo9+NVllIM/BIaL4AM3GkU8zKJmjuaur0S+9GH0D7wD4CTIElAjk1JRnHwgQO4c3P4LgXgb/B3fAPKMcPvz4bZuesTnw83PgF0AnXgu3MmPoJx9u6T1NjzO+JsTWz77/NFxXTfWn4N/6usRnvQyuJOnAAzg1UVwR0gf/HXkD/60PqQI3O8JiFpfAO1+IZq7XwnMTiA84WWQYiPwqRoi/fvfIk2WbQeyIXVzVXYVMYWmViWjGVi/9Z9h8SX/0yM+H1danFfgw3uA9UVQWaIU8SngQbKGOk3Vn0T5/9l782jLkqu887cjzjn3vvnlUJNqUKkmlUpDSSAJJGQxGYwGhqaxTNMMy2CwvRowGC8agw3YTSPZDG0MGLRAshEzDUimQUiMktBcKpVUUkmlKpVqHnJ883v3nnMidv+xI+LcLFVmvpIEa5GZsVZWZb537z3nxonYsfe3v/3tkx9j543PYfSS36G65CxJq5kR1j5J+77XEx78fXsWswcppxrQ0hRwploLBgZHcIKIu3Li5R8Bd39uZuHcHReM6D7G5sfv/yV6nkunT40+V8VQdCuN+B3B97gGxi/+un19bnX5C3CHrrVN7Gp0so5U88TY4RYuO/sHuApZugrZPIqGk6Cr5uXkxEwbHqfavo5bguYL/wv+0ueekT1wtiGjA4y/8IeJz/4udn/jEuLOSWS8BNKQshdD2Pg4uzYkmjyMYP5lPznz22FXN9d/OdP3LaOxpr/3fbD+V4isAoLUHVovUV/y4hkDepppGo2Qi18EO3fbp895C+GnsRh4naqJOs+BO3DJZzQn2u+gu2v09/059Y3fQNx5FN0+SnjwbYStB4ib96JhD6lrI717QcYOVKwcU4TYX0Q4cSfxyO2wTyOqkxNM3vIdhBPvQOTAYDADBo1kaplPNf06k61PgiqSI4TCfFDnIiuf0UScZ+OCEd3HkEp28e4Z4mIVCwcSW329DhVBZfXur/hDfIOf9QDrBcSPz4CkPv79Y/yh5xBObKRKIrNcpQ9P7Yw6pEC/hn/adzN+6XfjD1xtNJnPejhktMz45bcSN48yffvLIIxB5meMKDMe6szcRQybnEDiTuVvNXy8H9E89weQ8TLT0e/Rvvsv7PsEj8RN4vrdcOWnS8k9flRPfQnVfc+m+/hdaG9Se7HojrpCxYKArN6AtkeJ63fjVs8WzQbi7hHi2v3o7gmQjv6BP0A3bke370HGS3Qf+yF0C7tGdQDxjR1yuXeUUtp8xDaiXQ8ddLf/PNXlz8UdfCZDmdETj/7oJ4mb78BkFbGJT0pcs8m9oWXJ0BcKL0UfIZe/alS8d/OxD9+1/rNLl+481P3ny3928uBZJ/o8HReM6BmGKq797cPXtjv6IkKi1HQR3Q1DoqPUrANhB5l/xmec0RU/fpJvcCAjdO8uGIH0isxXqU88iQgf0ekmsng14y/5fvzBaz6jezvtLVRjqiutTNVf+mF2f+dmDOgdnRLGz8aTmkWQpcVdcsAwQPfER4fMXwxEwomHLQtfB9AWf+WLicc/gMYWcc0Z71G7beLmNnH7BMgKGoMxF1KdvQaMY4pHt0/Qf/zV+Eu/lOaMRjSw/TvfQLz/TTbXFcgCuJXroG/p1v/v1EJkEdUGEHse2Ut3YiyJTpGRG9phO8HNHSZu3UJ3z7sZHXr2WZ+B7u6Sixg0ahFLmRWjKSyHRHWbtculjXNmLaiiXlCVi6SqnnX4MHMwOet9nK/jQmLpDEOE2O7G59JzHTFW1IKb80OZY/ZmciZcOqiut743f4eju+sHQK4uWXCFof947ZC6xx266nNuQB8/3OJT8Ve+DFm4HrQdEk7ZI4UhwcQUt3oj9U0/wtlrwB3u8E3I0hch3urVxTn84Ref1YACSL1CdeO3IeNLIewWCT3AurJmI9Ip2p7AXfxK6M9WsOPxl74IWU6O9/KClWDuHYN+A1n4Irj4a1HdBhdwI5faXMdCB5M6lbxmtajGJA21C4is0H3wXxC3jp31+1VX3IjMvRjVtaGGvx5oZ6XsNWfjFXJzv8IqyU0AE+Mk1TvMoTx9Mu7OLuZwHo8LRvQMY/sXFr4F/E86L/MaKC0zSH3jc722CVlEVJeQ6jhx476/s3uM248QHpmge8dRlaG7Z0y6mLTI0pj6mf/6yX2wRuLeicGbPOvrFXxD88J/hywcxtQ3dMjuqyXZcy27uAhuE3/xS5gVYDndGD//a1n8p7+LW3IIwvS2nyfu7d87qp/2Iqorvw5xnT07b9Qe13iTCuy1sAZk8Vrqa87O05176ffT3Pz9zH3Vm5l72VtwF78SbTeIkw2a5/xLxi/8IUZf8lakeSZxe8M0CFI2vpSqRggbXVKeSkmmVtHoUYTd372Y/rHbz3gfbvEyquteDp0ZRYuQUouXPqYWzViSUUxse7YrQR6FOzrzyCsvl+HnfnHfE30ejgvh/BlGiNVXNDFe102stbCrBby3nke5BhtMZ1NAd9ZAttF+epZP/twN7XdxF30BuvUppO9MGT4LHEeFuEl11b+lecYr9/FhisaW7pO/R331VyMSiNv3gx8hflxKHZ9wiCDVHLoT0a0/h+YamJwE3Iw3qpaIc4KGKW7h85FmvwgwuIXLab7g95m89euRRXCrz9j3e3X7OOHonyMj83oHD4yC17okWBwe+LDxbc96QzWjF/10iY3dgachzevQvZO4lafaa6pPEHffDe2Y3BIlbhucQO5blfRK88GsMaT+Wopc/DLc3Onxa40d2q7hVq4tODOqpbRXKileppUoJ0O+F8zzrFyhP2nm9OZmei5V5El8ZN8TfR6OC0b0NGP91fPPE5Fr+tQvRxyn9I+nkLQjcRqR2qLS0Ytfjz/09P1dRMO+vLAzDb96HeMv+Vmmb/kiqFaRuQad9ub19VbPr9M9iP1pccfhdiaEjU8SHvpL4smH0ekcuv0RpDkMc47R8/8Nbu7M1Ct38FJk8UXo0Q9bi97ZZnNwSiJOd44g8/unVgE0z/xqpu+AuA7Tt345zQ3785TD+jrs3AOlammG9iO5Tz3GcNh+G9P3/wzjL/r3SLN85g+eARfd4uX2o2Zp5gWR3EO7NNIDM2xZnao1zQP1WvowmaC2IL6j++Rf0tx8+RMLMGskHL3VIIPlp6DtNqhLwjO2dnPPKzOWKWyvkthL+nsps53hk4oTY+5N29fva5LP03HBiJ5myLj+sQr5oh6s/FBy2J4WWQMkkQydBqsjV4h7j4CcHULSfptw/MP4wzfTP3QL7uAN+MWLTCItx777MLD9o++l/dAPo/0VIDtIb6pIromoB6kO4i46jE63kDN4NABSzRE+9R66236NXMkpdaa/WNJk9OxvPSOlyB+4juYFr2Hyli9GsIRKkZyTjCPbjzWO0L1tOLOWxuNu0tF88a8w/bPvRC76iv2/L2ykTHV4XFYFa6ucMUESnsjZD539DDdewR94AXHzFpuHKZSS0whxL9iBPBazbyLQOOJuwI2XiGvvhf7lxL1j+KVPN6LianTtLuL6PWiYWqSkqT9WzLSmOHB3u2SoFyqYWsPDPA/lUPEUqCrGiDTjL9v+ueb2O/984z3P/2NOr+94no4LmOgTjPWfWviHUjvpnezKDHHc1akfkcdwqy4i3hm+1G8jCy9AdBOdnrmNd9x8iL2/+lH6e9/B5J0/xfTt/4T2tl8mHL8NnZwkPPIe4vb+IigZreKWX2gbqI3EnY642xldpt9Flq6lvvaL4TS6k7Oju+uN9Hf/PjICmgO4uYNIdRD8QSOjn/jQWb8bgJtfxl36lRDWS7bX4FEZ6Fe6Sjz6p+z95bfu63sOX9jhD99sdfJX7t+I1td+MfXz/zPEdVMwyi2RZzxSSxAK6By6c5S4d3T/mPBpRpxsQvtBiI0Z6xgHY+0GbF1ql8pck46qA9UpjJ6Bu+Q6/MLpylAVJRB3jpnsVp8vzCn80FyKq30k7hkToHQEKB45pZRZ+4i2EVUhRr1ORb7jggF94nHBiD5uTH9m6Qa/OFpxI7kT8KVdesaWSKd0nUSLR87oMb5HVp6Bv/j5UJ3ZtdLJFv3H/h+mb/9hug/+R+LmSfp73sT0g3/A9m++mL2/eAXdx9+wr/v1B2+kuf5VSH0MnCW9tDVvVOp54vFbIAhSn51YP/mbbyQc+XMzmlmdPv+JELceRffRGE33juKf8gJY/ny02y3446wXSlinfs6PMP/yJ9/Wxx+4gfrmH0bmnwwlTHCLh9Apg6HCkilS5xJJ+4l2Nd1Hfsv0R2f7euxnaDjln+I68M8GZ0pRbqEyhkfCrGWU8PRI0XSNbTB6UhzB7i3ERz58eq9YPP7QCwgP/Q5IZXhnP1NE0Oug0ZqSTtK4Qc9gVhowH3jYz1WViIDKjYjsE6M6/8YFI/q4MfqBrbto5MdU3Q+ijErjMxE7wacRbc0YaJ+yn4C4eXT9DWj0Rqg+w9DWCNVUS2hYQfcWiMfvsmZkxz5BPL7O9JZ/t78bji3tna9D/MWAT/tBUoJhDjlwGe1DdzDslCe6oUj/yNuBAyBzwwbD/q+dEncVf/gL91VJFbcehJ0T+IueAW5iEEiiOJkQiv1d6jFu6ckLfchohfrZ34Rbupy49dC+3+cue2G6jzRLzUzSC7N/pV30HPSP3Tb8cp8jrN1J+/H/QVy7k+mHfpXdP/xK4tYnQa0AQXuDNWTOD+pKKeTO2KWbq1J7F4dOoX/ozZxpq1ZXvATVVxD3tu0zW+unVehUIeHQlQyVSokUmjFYYBDTUcOxXWOlqXQRjdy8/tPz/+xJTcZ5Mi5gop82FN075LxYDXHuGBnbZAVc2mj9QFGJXUT7Cj0OOjk77cYtLcPi9bjuAbSfI04V4ghpxsicINUu/rp/BbOFzU90p90u7UdfT7j/V9D+oG26jNlGRfsWt/BC6ouuO/NnibPk094RcMvmyeRES+q46cYQd+4ibtxjmeAzjT7SP/Q2hAXcyJrpxS4MNds2zXR3/yrN874Zt3L1Wefs8cMvX4WeuIO4d3Tfhri/2xSSTPZOTKSjcegkDvXrQUsnzP4Tb6R+2pcj9RMnl+LOI8SNTxGOPUQ8uYaMIsQjhIfeTrj3LcTdR4yq1Ed0EnHjCkZSpPdsHSWvuAcawa80aBcsmkjtXoqo9mmGtuv4gyuEbVKCKBpkke2/w7zq/PqkX1Ay87lSCRCfGwTG1BEAiEKF+t7X/xj41X1N9nk0LhjRmbH5c6vfxujwD6JyQ0jiwbnFhnYxSc1JSTKpT5w7B7BJ9Zxvwl9y9Zkvoh2Td/84TO6G8UHLDKsbaCVhisxfTPPMV3JG7xEsRI/LVkHlYwoLFUTRIBBPgJvHXXwTpZPlE43YQ3sSuegl6JH3mtFQilAzuk5982uob3oFOlnjTBXV2m0jS4dBVggn3oc0hyyUTfifqdRbktgdfBHSnAGr1UjcO44bLZpQSD2TWPFj/KUvRBaecsY5OmWMrkri19EOjhRF5IpTk4UzXVjtwV/1EuLmffhDz3nCjxNX097xWvrbfgOZw3rRJceu2gENc9CPrVbeJ8PUJvgga7r25p2KMGCYTTJuXeKtujPDQ+HobSDryNyKfUiLZfwzBBVz65O0BnIzQSypNjATgEaQKDBOUEbOCTqg7R7Y/2SfP+NCOD87NBwcCTeJanUKIJ87eZKynklyrtBkBKReJD76W8TNk2e8RNz4FMRtZLxo8nQjjxs73FKVjLRHJ0fp7n7jvm65uvLZVn+eQ9FOS6ZVmlX02B8wveVn0e700pAaO9zlL0HGlyL0oCdBTyK6hnabaAXV1V+IP3QT/pLnn/n7rd1LOPI+oEL8XDEKkqg2ZiwEUaiu+jzC2p2n59VqpL/rt5je+nNM3/vjxN0j5Vfiatzy1WeFTk6Zq8svo37WP0YqK5PUaSROzBMsOKIX0Cnu8AuBKeGhvz79d915hHhy21omjQ7jlg7hFg/jxgeJ4RDIglUhNZK6hGKhdWe0OLC5cfM+0Z0gbnbl+WmIVkF74AWcSY9Bu4b4yJstyz/yyJzHr1S4Onn+pcuBDBKAs/h+Sahpgqisy6vumUcMkJoK7n+yz6NxwYimsf3fVp+Dum/rpjHx59IiU1tobsGbxzIT6kiVOn0mIyvzQHe27LUQHvh9wJIipRcR2ILttpGlG6if9r/s6751soFOkhFI8mZSO2vi5rzVm1fXnJHvKNUcfvEq3PxB5OBl1De/muqG76G6+UcR31Nd/iXo7oP7Sir5i25Et7aJJ98FMi46q1mQ2QoAzNNzFz8XnEP70xh453EXfx79vX9A/+Bf0338D1ODtic/tNsiPvpO3IEroDpkEYAk46YDpYdeQcbEk+8nPHYrbvn0JbxSX0K4800GP3fH0XAC4nFrseJA3DrE41BNwJ+0tRHXcXXAjS0hmWvaS0M9lw06dm+ja4kn30N3z1tOex9u+QCMgNAPB3vifZaOqJo9U4w7mvB8W3v2fLL616D6lXijUelbRZ3/xo2fmfuXn9EDOIfHhXA+DUeY1/kmEDDunDNuaIwpjO8GLC+HYkaXdLaJwg4y/jzcylVnvs7qDcjiC9G196Px4CCWG6PBB4sXUV3+QuL6h9ArX3xWgWBZPIy/4jri+gNIs5iokIlSVDt0F/yh/Um7zX3Fa4lr/5rYnjRjpT3jfzCx5mhnggNmRtx4iP6+P0r3LYOn7gXtNPX0sbkLRz5G85xvwo1PQ+BXBefw134z3Yd+lHD0bWj81iflfeYh9RKy9DScthBNa9WNK7vFbvAKB6+tItz/NuSFP3r6z1w8wPw3/SFSLyOLlxAe/gD+ss+jvf0N9Hf9DLLyhTTP/X7C8dvRtY/TvPRbCA+/k3Dff7fkYutKGSzzPkEoAW0VN3bEqRLXjxFP3kN1zen7bcXNDeOfVrUZzKDEXBCSSlpFpGjeloKRbDDFOiHk1i1WXy/ghiIE5yBE/ejKD+z90pOe/HN8XDCiwPZvLVzSH5dvF43Xq3MWEuV+6IFUphhT8YkzObUsH+9yCBSsb9LmPfjx55/xes3nfS/Tt38zOCs1VMwLFXXQHyMGqA4+c18K69KsIIvPQtY/WfAvICXAOlhhXwLPebjV6xAN5tUQzYDCvqk+3YPvg/ZBcAfKBs0KQarW6wknUM3TfeD7qK99BaRWHk/4/VSpL38e8eR3ER74Gbq7v57qihedsZ30E4248xjx5EfpH7oFcZswGiXqVWJaqFqCqbdIRKoFCPcTNx/CL1/+hNKB4kfU1w8Rgz/8LABGX/A9xJ17GL/kNfhDT0f7r4Z+DxkfpD9wNfXVL2Z6y+uIR98CWD94Eat+09aoUJoZDYrt0tHpsWMZjaAy1of6yri4KSmVT36NisxwQjMmSvbAVQdvnOF1eVjthxza/uWV/7D4LzZ+7ElN/jk+LoTzQDjKLzbiv1MDS6rYSd4FMuk59tEMZRetOkkti4mkMLBW3MozkP4ThLVHIZwG44s9ceNeug+9GnSRVKJiOFUC8AGkutwI5WcbGtF2k/rafwijK0ADueWEYV4OOggPvwfC3v4mQzziGqSePzWRs4/R3fl7TP/4fwNZLRVcRc9SKRqnJkPXoD2EI7ee4fspxAD9Lky3kOoq+vv+hLD28JO6LwD6CYRd4sYDpbNlnMH8JGt85vuMAfwquvcAYev+J3Upt/RUFr72jaX8V6q50n7ZL19FOP4pwok7QOcRbwYqtpG42RG3ezQocae3tebHuOVL0e2kKhU7dLoGsWV62+vo7n8z/QN/lVpup3Dcy7AOSJj0KPF+3YD1S+I6gw4dB5L2q4aMhUoJKGKvV/aT/nMhRHtOjfPeiG799OKNiL+/RXqpXQH+wfAjN/KlFY1ICkkrw680Z/C9R9tHQFdx84unFzx2FTo5Tnj4DqApdJSCqzaJCD25lfb2fURN4ojrD9De8xZLHCXDZQkma4msU5D6EHzO+wZ9+tB2Ag2mJqU6eFOzo03iKP061XX/hvr6M6glOYeMV2nvfBPx+G/BdI3+nl8nbhw5/XtOM2ThIqgOQHs/SpWy3+lwzGIt+RmMHDJuIFR0d71xX3J7+76P8UH6h96Grt9PnHjiboCUcJPGlWohchWT64F5+jt/kb2/+SnCibtp7/jvTD/663Qf+X7aj7yBuPEIMG+H8cgZPp+bAWa8F1JjwkG9SRMVbla0OTc0PKWKSSTnnu6rfH02jcDzblwI50f+R5z4V6jgyyISscRM9qIqZxSVvWDtFIJab3cBeqw1iIvE9U+iO4/b4GEP/BCKyfxln3506QweF5eIa39KddP3nvXWNUzoH7mVeN8fI3MHjLaT1Ic0C1vUnvbWH6J++tfgFj+zthdnvY/YoruPIQvLJYGEZyB7OywhF4E+cRgxCpDUZ+pAYQdVePBX0OnIPLcKdOcutN8z/c59DqkWoL4I3dmC0UEzHqnUklTVU5456dFXFUzvR3ePwfLVn+HsfPpobvo/CPf+CRojisdVKSLxDup0CHpN0oY9TKbE6Tr9Qz9I94EfRJaWIGxBWEG3/190GnFzB9EiEK5JnNl6yzNy1sJmppIpf8dc6un8kPQr5Z8zFCd7mxxUz5npGefhuGBE0RNNJQemQdMJzqntjzOOp6SFnkKdRLZXZ4bX+QYNm+y95Rtp7/ht3NKl6PQI2j3G6EX/Ddglbn6K9j0/DzXmhTLbaiRlrVuBaUV36/+JRqG59is4XcAQT95DeOB/IAuXI7qXWSxDC1yvoMvo9kmmH/xl5l76twNltbf9NuHB3ybu7iJ1Pdzu40oKBWxDO5dKEc/S21wD4bF3IQsvhHgHGhU3vgZx64Rjt1Fd9uIndZ/x5CMWrvYZ37bDMmpEkieqnelvqoK2jyGXvgh/6dmbDj6ZodohSyCtt4MPiJu9taBfqqzaKLM2oqA7mzCuwK/Y/XcC8QC6F8Ev24GVa+UTv5egBXIqGfugUKUXBZJHmtZ6McA5aSr2+qSSryJ4dDX0vHLAaS4MOM/D+Z1Xzz9PxV027bWTZDCBksHMfckLVcRhmFIWY47Ju9KcvJ4Ht0h46H/Sf+K1hIfeBn3F5K1fQ3fHr9Pf9RZ06xZgtVCSABCIeeMAcbpCePR2uo/+Twh7xL3H0i553FCF/lPQbqI9ptCDDBnw3H6iWaD/2I8TjtzxOZ9DnazTfeSHCPe/FT35XvBL5Hp7qd2gqp7vt2xykIWz1L6Lh+oKdPd9wByoQydbtB959f5aSj9uuENXmfFIMnSSDIc0bqCrpcuKFwhzxCOfYPePvw+dbD3p6z1+hCO3Ek58nN3f+1pol0AHz7dQjHJ31NJWWg3r1PT7KOgU+78wNJfLDmbWA7W3JvaBqfaTOzCQkn0hWql/MF5opkLNqpXZGrdigKBERY9s/deVCzSnmXFee6JxsfpXc+PqVZNWiZNgpXejVL6SjWXm8EmyY8Ur1YIVZaV7o47UoKvmwY4X0M1PoO023e2vTaD+gWGz5oy3CHTWltMMaUBGq+hjr2XvbQJaUV31D6hv+Aa03SJuPEA4cgf9/W8i7l0P4RHzoLOhL4mF1BaXBjGJP8sAACAASURBVLod9t7xGua+7Efwh278HE3ghMl7/iu68RjUB4cM/qxhEEGwnj0lW6/W12j03K9jkBt6gqEB3b0bdVej2yesd1XV4cbPIj76VvrlK6mufMlZb1P7PbTbpL/rb5A6Pb5Z454SLuxFZN6bbuxeQGND3LyXuPVzbB97G/Nf/0f4x1HYtN9BqgXCyXuZfuDHEF2G0Qh/+Fpk/plUVz0f8Q27b/pSwtF3wfxhZOSIO2K84omVd7pKiF0k7vapD70m4e8BZpBKrMJIBFlwuMYwejeayeaL1cPHVPMufljPJVufQ/aUlZ+tZhoqqZJYiTBgxkIUJ0jUv32A/e/ROK+NqEr1krY3Q6MxiQfDqZs980K9ZTK1jQNu5qUwnbS3zL0GLXXZtLtQO2AOqrGxabo4gP1OSoKD5LXFrR4QXFWhYYn+E79kvMEDzwaU6Qd+ge62H7YSQwfaL+JGTenkSBbYTfcpPrV0lgPEB36DvT+6lbmveh3+shd9NjOHxo7+vvfQf+THoFoeDFIcXoMaAWEwqlIwORnD9H3/idGL/gP+omc+8WXEI/M3oCfuA7diDtQEhA30yO30R/4Ri//7WSABQKdr9I++C93+IEoz1O+n0l3XODSLJJOeZXbmtDGWQnyQ7qM/Dzd/r3VolRoNe4RH3wl+lfb9r0G7E/THPgYxEA7eRDz6bmTpq3FLlxIefRc6mUemE2RumbgTEFVmW7uKk3Rwq5WfJmzUCjuS+n0y/tpa8snVjsx1ze8vPOGRt0TVXihr1Xiw6ctlSpxQyPk4u7bUlPDeBMkF76hCL5eFibzn7Gvk/Bmfvers39Ohv7FwjdP6x/teB0pQJj47i120T3hoTpZoBvZkwKDSiU20tQ+Uz5Ok4ZgpUeLsdyKW3ZdU6qe94lLfH01tHegts65tg1uoiSduIxy9m3DXa9B2bBs7jBFJyZFOi6E3JXlJAsPOmFROkHqMTh5Exs+kuuqzMaKC0DP5s29Cdx8BtzB0k8yZ3VxOCIPHExX6dC/NAvHkrYSdR2lu+CdP/Iz6lr03PQtaoJq3eesV4hT6TXR3E3/pi88oiBJO3klc+yjtLT+Lbn0UcfOGfacEjOHgCf7IFTsp8iWm595UuHpEOHY74cEH6B98P2HtOP1df0l/31voPvh96PqdZsio0N0ddPc44kZI+Ai690GIqxaG4wvWqNOIW6wHr1BSI8REii9GMqY22MjgkaYQG01E+pSctHbMtk5dZVxRi5A4BZ8uYb2ka6TIS6rBMBevlQKthlHV/uTC92z9zme2bs7NcV6iw7/2NStf+ryb5167OKfXLzQ9IsrcvBR8SZxhlLkUr6gPJU8gt6U1VXsLx1TBjex1cTLTojZjVpUMi7cfsNDc3jZTk4rh66NBBLnxWJiCbAMHjPhcO+K2KfC6eZ+qgdI1fPqMRNXSvWD1240jtj062cCvQvX0f0t907fgli8/fVmoJrGOdgvt1pFqnsn7/gvhEz9hRkEP2JylVrzFI86Z3fQ983ekT7SwyoFrkdE28994HDd/6NMv3W3R3fVHTN/1z6GrAD80eKODhetxi8uMv/z1+ANPm7mI0D92C+Iq9v7s24lHP2SdNeNKOcCyty4jS+yY1qbMCHcYlpgFuc3D66Dftnp2h+GrI5D6INobbIETwqY9F79iUW+cBGuGF5Sw1VkFXGvhuj/UkGvW4zTaGkqyi27koBLitvVDsvdZ4os6HcCTYLJ6GQfNikwpQVaeQ34GGTPNSaWcIwoMvecz5h/UHAOB0EdiJxzZdLfd9BMnLnT/nBnnZTi/vDp63n0P+4vnRtBUjksviszPd0OxRj7VMx6acKPcbtZ+zkBszth+6lFjakCSWvBaBUrxZHM3BlVEBTf2BidMZwyvmGEsNcxthFiBO5CI6sm7EEx7MuQNg91L5UxAIrUKQTCaVu1wVKgcgLBGeOgviFsfxl/2Mppn/9PivYa1TyB+DnfwRhBHf/Q24qPvpX/oLnTnU+jm36B9yhbnrHb2WrIhz39PXvAg8gFoCjn7Ct0AnRyHJzCiUi+i6/cjcYcYVwtf1zZ5jW48SH/0GHv8OM2zvpb6aV+G1AvE7YeZvv8XiOvvJp44irglNKSySjFv2AxJulAfLTGXEy8JO8yRhOZ6dmrwq6kNtSvaoPYgFO3sPW7eE7d74k5vostBiX2AyuHmq5Rg08G4Jay9XG8acI2UHkziEgwU3YB5h+SR5ox87i2fbqcIjXg7REuDwJQwBazxYuobpjEWiIkcRIgY1ATcf3TMsTVP13N4sLwXBpynRrSfTh6p6lHd9kIUxwOPBk6sCdc9taMZGRyVT+KizylDaMw0/WyGS6chWq5pZN1AtVXjRKaKJBIeJS55QlMlTnsk2k7OnoNJz1kFS85um/flCnWliKNUDmkEncqQbc6Gt9MSUudqFdssKZGrh9CNO2AzEO59M+3bvwd/zVfiDjydcPQ2qiteCnM34S95Jt3H3kj3gf8LmSPpSy6DGLUmQx/m2aT78slGOAwbVi112UXuTQXVHlkFf/DpaLsOGpDRIXRykrhzDLd8Gd3HfwTt5u3wGQu06aAaOdAebZfh2Bto/+oNTDpwl7wEiXvEtVvN0Md5VLPYR1oApdSRlKUm9ZLTUw6yXEZmB1Sa/5gmOGOJaa7Fm2RiTPij1M6imd6iC41ACPjVGiKE3jxSqRyxD/aMC+6ejOkkVaBVgiNHFhiXdBqIE1LllQnD+NUaqYS4mzDQPnmSfgYrdQZRaBJqFqczGD3lu2k6rESUIydrHjpaEVV2hO4nL9jQU8d5aESVhZWrXto01fy0jUynSgyOaSts7MLFcwGIdOqoJJ6C82kfh/AoUrCnYWRPQGxTihvK6eKprzWvdkZHVNNmTEamLFTvjMOYVXkCBvqny5mUW4IWcifNCNoF81IzR7BXYk7qlBa6c8naLcAcxGO3Eo99CJ0epdvdRrd/MnlmV8F4CaU6Rdy3ND9LB4XmZFL24nLJYMbVapeoNKRmaBW6C9NbfxptO+i28Ve+nPa2/wS6Ae3FALiFhXSoyJBtRqyiqVJUD5mBnLTEI+8E5yGsgKTftzPJkwSTFEFiDIaRsafobgaro5dx8uL7hDdDEizWArOIN88x7MahzYjad3XeDGGYRNzYcPO409vv5n2JGLLSVRajyUY4qy2RSLYJWSnls7qb2h4n0ebcv0oaN+TwkqqXZMcgwUcZ+ilwkknd0ffZuRb6KXz8gUW29yqUgK/EQ/MqRH75SWy4c36cd+fJn3zXFb/snP9WlLlsVJx3eO+ICIdXp1y0NGVjp2JlIXDRoUCfPU8YPNLc2zu3U4Yh2x4GbOnTQP0cctdSsqwy8hZSZi8zl+KljCwhFtqS5F7gXfIqZoUkXAr9u9SnZ7EqPNeslSlVqqOeNRhBh6xwphv43ojzfWq/rP4Jv0f2lGTkBugztdgoBQS5HUii6GRDZrhkj1tZIe48WDY6DmThSnT7QXAHh+/HqQfN7HxlD9+Sc3Hwjp0k0ep0d9kI5fvMhib3OmqtkEK7iFtMKk8p8Vcgi4AVSuRkYButCV1eH5UzzLJL9flFLjElh5qBnhQnITXIS/OTsE2/XIOXoalcNn6VDEr3kVIqrNNA7NRCdO+GarEZaApInU0Z4IiEw6sqIQh33Dfimsum9Hg+8cCItq+oaqGbBrwTQogfeuWvPvi8J7ntzulx3nmiIu4SQMVZSElMnlJlxurhh4WHZY7KBe4Nnmde23HJ6pS291AJVRcQiUjjrTSvi0OolxdkCqPN00nGCYrhKb2ZEimezig1pVKmT5FkMA9T5u0xFS7gNBJbk+iTOhcDJJ7pxCyWVM4YAZXY66fRmAZEM845NMyQRPJyzZVVJFbJk8my7+l7ZC88vRfPQAzP4X2vg5FOjpRpBCSsbpwgjBCh8ujuBiIHijGXkYfpDvhDhifu9MjY1LVcI+U8o1e0DWaY5gW/PCZOO6tIyqWUtUNH6VDLxl04RWxEIwWTLoIkI1+ijtKLKSV1VLC57CyJSPbAC10oonsGA8icw3mLCGLGJnPpcO3wtZTmcmYM7ZCJkzDcs1DCdDeqCgZq4tZJdNkJ4hIlL8YBX23j4G1mT9esJg4lCqxte+5+cMTWjkNEObZe4UWpRh6NkW4KzgkxRhD9yGe7B8+1cV4Z0T/77qveE4O8EHCaFn2MinN20sagCIbf9UHo2sDd91ec3KpZWAh4Igu1stJg3kv2RDMZv0vhtKYQvU2/FxkWuhc0BjNWtW2SOAkpc54SUV6sPE+YKcejbCjtdfBAQvIuhOLx4MUyu264FwmJPpWTYxnzcqbmExP+Vryh7OkVCCBN4qzcHgkamCXS5/fkawCzyaWCDedzpRIM5JuBAiKoJg8/J8OSd6kwUIAkGcFkfONuOxxEnRqk4nTg86fvZJ5sEmR2iR1cJy89dSSVUfb27KYyihFbtfflhGJO6PVqhjn1k7eqp/QZKQpwo0RfytqsqUmc7oayRuJOj1swQxkzkT4d0G7sy8Gkffp+2XP3ltXPkFPhheY+Tpm65WG3My93b0944EjDpPdMJ5G6Buc9fRcQHC7hqCEdSjHoXlQuu1u/h+vl5z/7DXmOjPPKiO6ub/7geHnlzaqyWEo8FWJUvHdUjdBnZR+gqhwBz7E1mE4Ce1OPOI972HFwVXnaRbtMO8fCqiZ6CymMs7BQZzxTjVqi5ewliAixDQOBP/1s2HzJeQ3Je0iG2s0b1UcnwYQzxslgysAMyGGtBrsn86Z02PDJ09WgMHbJwDMYvyqJUnRx8Chna+FzqWERax6wwvKaVMhQMNgUrmfaTO7zbkkQBuJ4nHkPpN5Tg7EsvNuxQGdeOZ2iISDOF68eL1ZO2yYQNlv1LIDSx6HhYNKE1V7tPmYUqDQ9CEGKh52/tlG17EazelLOoWnUmTA/0cDKAWTPrxjXZNi9qmU2BYtQwjC/NK5058yRhIIlMLOsYsJDSevNOyWoEEWoXWQ6hTsfrOm1ZtqZF+w9OC/4jJOmAyqmZJcXg2rEMec0nrxgQE8d540R/f3/9dCNzlUroVejGaZNXAjyGHDvkmeGKr6u7N8C260jxkg3iTjvaBplc1Lx4GOe1V3h0ErAOxj7SB+F5BikD6bgTuV6OQxLmFVpHJaNZa8DIbqLZq+yKIWCToyqUkoCvUN9CuVzplU4tSImJ7BSt8sSfuY+OukeSUUB9veZjZ8Mb/nstPGHX2qheBUntNTN5/uZMb7MeMVpTk4Rfy7eqiueqCTql3aKtGakrTeVluSMSxxZ7Uzk2OZYkJToK3zaxBwokoT5M2TmnmZZD4kCVviTmWmRDWs3UMoULBE2l6CLXonTcAp2SjQqmyxWpU6ebMDzvOT7iBjdSDNLAGIf8ZUZ1jBVnFc0w0ijis0t4cSxmu09YWWhxwOPHRM29oRmZNcz5Ck9cHMFBjaJpv2QpqkeeRR9JRfGKeO8MaLjQwvPjzE8B9WFEE3hxiUcKcdqfRfxXqhqR0zCC10XqBpvUVpQmsawxq1d4c77xmxu9Bw96ahHDfMLnotXp0wmyo1XTXA1hH4GV0uRXNawLFy+LPIwi6WqGp0mQ26Jg2qfYTvLz1fI2BkckKgqpdWFd4bbJiwvJgjA1fb60pZEHjdReeN6LWGhZaxmfp8SM5INacYac6Ir2RytksMqDA300nUNL9aBa5t5tTElncTI5wQzRmXyAqVgIaqFuFYMEUvmXEYObZlpi5G8yDQXquaBZY84qyWJF1TiKV63ZA1OkkcKQzviymATzQUE6YuLCNLIAJ0kwr6W+VVrYDeWYV0kz9fuYXiOBoUkrzAnNNXahxSCfRvY3BKCOFpqNCgnd0ZMp7C1IziJHDuZujVEW+P5GbmcZIsQRdPPXKmI0qK/AO2k1z60v/kZbL9zepw3RjR07Rf4qn6ViBBnPcIIIUaakafC0bXBjFsqs4tR6dpQ1Gyqpi4GQKuK+WVHTDjgZC/yaCtEav7mQxVdLzz7hilNbeHf1makcnDZRYFAOuHJRPWUKBBb0KRMrniBRmAy4G0mz5c2ZipdLMYwYYRk8r5SKm+0V6LEGbyWYptKeWvRtsyVWfaLrHikUDqd5vuwhFQsBmsQIpkJ7Wc5pTJAGiX8z7hvVIMb6kSb6qOpGKGJ1K/G03UWRVhNeaRfb8nCxpZBt1CdOY9oSk7NzySLZjzpoqjlBT+q7MBxFI8vt4kpws0z1WiaWm6IA0017vka2ql5+cmLdSOPpvuTyqqRtNVCVTIKVpovoXQ8UBjC9EqIrUX8J9ZgfglCdDxysmZjx+PnxlQusLUJoQ/2fueo6/wgHL5KTkLaAzGawXZOiCGpO6WbiCESg+KNzrWtk+5dn5MNeQ6N88aIOueva2p/cR80QWJqCwbDPp0XnBNCHwl9pKkqq9ZMXmnsY4q40spTez/Yngm9hdehE3ylOO9pvPKxT83hXCT0yrgOzI0i0+A4tNQzHsFeKzhV5kepbDArMPVq2pspmxtz8iqH1hlnTd8vZ75L9jzharGPFgYmAylQJP5mDW8WUTFsbYAa7AtSDIHkjqfZc3aCYJl39WrVQDNQRo7aM84769kUyblU/60lIaUpY21epZsznFP3TAU+JuUj1IoSCGqYqGBqVjmRIukGnBi3NnvfM1518cidFMMmyYBZ0UQ0L7WIg8zMCWaAi6J8uoYGJc5wiIuzXyX4KGfpuvT88rPIlVFiB5WgpcItwyKhjezswMMnRkynwnIH+IrNqaOLEKdKh0MIJXpy3gxk38eyVkUkeaH2ub4UUtkD84m1EZNYS+gV71hq5hZ/CU7+2hk323k2Hh/MnbPjj7/zinuduKtDJC0QC5FiUJq5Cu+FGKFvA13b42tPM6qIIRJyTXvyDEQghGSEZzLVvjJPtu8CzbjCe1cWv6qW64UeM1QR5pseccJTDkfqBiaxpuuFeaZElHre47xj5AKHVrvkACUBlDjAAhriYAxmvbyY/lRiJYepEdspGfRU907CYQsRvVhoSpiaPbaS5ElcVp0GgybS68UxYL51wkizYU7GU9V+JiMLTY1TmQxsaiec+bZhy0SLpRLiXiw35RYr3MgRtnqrN6/d4A0nonmpg1eGbHr+Xmphek5ylUMohyrZOM/CLNmg5pGiBk0HKXl+Z6TkBIxxoVp4nqXUV5WYSO59F2lGws5E2Nx2VJUyPw/HN0eIKHSBjU3hsY0k6KzgnRR4V1XNOM6gNa4SnHOWZScf/vaevKZDMvzioaoMd45B6buAEymfNRp5+nb6Da94/WN/8BluxXNunDeeqIg7plGvtmx8/hlUjUtekP3bV0IMjtBFOgJVPXiokkvz0obK3piq4tLJnhNRmjZnVTmcM2829BE0EsWa3TkvtLFGEB44kQyj5A0xx7hR4lpk0nma8YjldWHs9rjmig5fKbFP9Jx0H12reC+4zEMUzGNNh0ZusldKNHMSKXl/2dssYT0MPFooxieTtLUCV7woKdcrO04wY+QESXQyKTQDhux3G4snKHlF+my4gDagOz2MHW6+NsxuL5SkT9wNkJJspUQ2FzmQChUSrzJfu1QHORkU4LMBjTOsgmzIM3Urx9cz80HEavJh0ODss5CJIN4OMldB3wux1VOIDl0PjUa6Ho5uNIm7Cw+frCFE5kaRzWmDczCdKH0fqSrzLkOKkhQz7D6tt3baW5KtcsRecXU2rlbKmcP5sk7SwVfagSdcqao8zqcILSXfejm/xdwfP84LI3rytZ+/8p5bj10XghJjLEYTbCF2LlLVjrrxgFDVHnGRvgtUTY2vIEbDh3w2PjBgaymrGVJ4X9XeOHYxAfaYAQ1dLMkJxDxiX7m0N4WA9Z7XRFeZTIWuBV8ZLri17dgII0DoOvM6mgYuO9BRVcqxTWF7WnP5xT3Lo95ah3vQzCFMuKhowvIkY4ozbgvMJH4YEiM53BQKJctVrgj2SmPhdQ5vbYrsMwpNKn1v66Z6qmF2tUv8zmxZzbuWkSOmZBHRylzdfMUgfDKQ2KsDDWGrGzzkSTRREAGawUvWmIskUgJo5j7Ks4UBf85UrNoXAzubNVeyKlWCfVPSSvcCroIOx9auZ3PHsTLfU1dKiI7KwSNrDRubjuW5yM4EdruKPghLC4rimAbP1lrEVxHnzNp5TzmwHGrCTMGgGOd9MoYQNGHDas5BykmVr6uP+8rihhBe1Np5+8oiNI2Kd0IX4707u/EdZ9ly59U4P8J5/Wv+9J9/m7apq6KvzPsMfaRPzbvqUYWvbBE5K28jZArJDO0mL7LslcQQBywpezYJKnBOcN4VbKrvQvHGXFmwRpnKFSHOGfDfd4GQeJYuhY9VJfi6YrLb004s/vOVoxk5lhd61jcER2RpSbn6sshkCie3PIdWexbmYK7uiVFY33QcXg222TKnPJDq3/Oc5f/MHhqDRya1g8YNFVI5PM/GLZHPleGgKaH8DMSRaUMZB83he9xJMn9LlQlqJAMSt4MpXOWQ2lNoQ26xImz3SdHdEdvEw2xSBi2oJaxyR00oMoeFepUPhZwcCmZs3ThZpi4mKymoCH2vNGPBVULfwcaWZ3cCh5YDYQofu6/m+FbN/FipXKSLwtI8bO5VgHmFhUWmWg7VGGI61KHvox3gfsjkh/i4+0xrxyUoJ3YxJS4pWfjsPGhKCpbE0iwsJRm3hrlF8/rbvT7vm11tt7/r5a8/cSFDPzPOC08U+VLid141qWo3jr0Om9cJde1SCG2hTqYQxcTVi6nCZQhzSCFjxlZT4il5dj41Asv4JxqHBStCM7KKEPswe73P9e+4UhfunEAtdNOedhosTPMV9AE04n1+HUx3e45PhLpxxAhrG7C+beFfUylrG46I4/BKz8Hlnq1dx4FVC3fvf6hmfl65aLWndpRWTgr0QRiNzBOJAVy0JMVkapU9tbMsc+xMwapgjoiVxCacr1CtZnRUS2FBzpBP7TDLikNZO1Mn0XBOxTDGPnchYOA0pqx/3OnL4VbERcbeaEhtok+pwR14V55JoSeRwviybhKkAIRgH91OhONrI5aXIqORsjsRpjsVW7uerhM2dzx1paxvd2zsVLS9UleREAVXWWXW2mZEXKBp/JApT5StTC0yY6plurLxE1JCSDBsOkMxVYp+NCUTBXyd5LQQQggpCy/lO+ZknohFApKcghA1wQIDe6IaeerKzU91/t/D8d88X/yv/Yxz34gq/NF3XvkVdeXGUQRXGYaUM8x5xKhUCQe0jKbgR54YoGt7IzbXHtdYuGQJIsuANuOKGJV+GujbvoTn+fSPqcKlSso+0lsYX4+8id0mlkDso1VPVZqMulVSkT4vhkg3NWjAe8FVntAHEFv0Ka1sCQiNoELXCzGawTi65jm5Dl10dLGi75SNbU+9EZlOhbZzTHvHodWeuZFy5ETF6lJga+LY2XUcXupZXIg8etwzV0dWV82LOrE5ovaRy1f2iK1QjTDqVp3moMLC68aSQib7BgSrv92ZOObm0qZMVTy+gjhyVrLYR1NCqh1OlbDbw0KNa5zhx5V5sHHkkUyw94L0MO0dNRa+BzyNh4cf9YxHMLcIFYGxUzZ2hGnvGVVWHrayGOmnkY09TxeFycSxsWX84O09j6sc82Pl0GrgxEbF3q7iKsE7ZboX2N6pigaLr5LATS4GSHivYZhGlAdNRtCMnsZY8F3njEESo0FC1cg4n75yhBAtikgGMR+CknB8VAekJuGepgaVIq5on52z9lXtacaVRVRA2/W29npl2vWEoNt/Rzv37804543o615yaEmvYS1Uul7VbhWELmOjJSmUIrkQjVjvhL4NiFi4VOCylBzKPZnMU7FkRt8Z8O5rnzyHHLaDeE836e2U7zAsy5sHsrfdAoajxmgG1TkZND6S4Y2ZDaBaPCTnwVfVENaRNknyxMwgS4IKzJBPOofGyNGTdYEQQuu4/7GG7F2sbwpzc8K0dzx23CMxgHPsTsbUqQQWUY5sCE0FkylsbcE9riFSsbKsXLLaMarhgaOJKjbyXHRYmRtFGu2pojLpHI+ujfAErn5Kizhh0grr256TkxGHD0ScRo6tOa5YmbK3Deocuut4ylwg+poHjlSsznfcc7/niqd5Rj6wsxGpR0LXO46eEDZ2PRcdsJLHplb2uoqtHTMmB5aVyitrWzVVpYRoUM7IcjoJe8ZkBNNhVtcgovTBcXTdE9qA9/bMQz4w00FrDyVhlpLZHS4lHK3MOCTqUdEXYKAhabTDsGo8ErPugl2rz0pNJK5nCdUpmGbxNr1DQxg6ymaeaAocYlovLn2PjFnng10AnOy6MP2NC17oqeOcN6Lf8c7jW//fP7vqp2PQlXZiOJt5BynrmBax82Zo2j2jHGkc8NOq8fjal1C9mxi2WY8shIpq3FOpfYEKMi/PVZ7KOzrEqFIpda8xMtntC3YqDrwboADJoVwGLcUy4eIEFy2sy7il965QqEpeRIYSxZwAE5FUkimGw/VheG12VTAK1c4uiDMjrNHjjA9DH80gIEJUYdomTC0EOqkZL9ZsTZT1R2pCr4jawVJ1jp0ptK3RuhDYaxMuiGd74lmYizz8CEymytxizc4ksrMVcJXnxIZnutvim4oaz3oI1ItjjpyoeKxuOLke2PuUw6mwO/UszAujkbK22TOdRo5JRSWRXh1BzVuPKFsTT98ZVSAEIZcxtSHh4z4dRgw81rwuECxZqMxAMlDl+vbkFhrmqWXtgaIofa/2/hQ+ZyMIFJw8hHQ4qysJIyAdkunaXtLzsYRhpt/5lMHPlCtfDcZPU7Ai5CRigrRIQYxq+W4Z269rNx8jz/4st+Q5N855I/p7rzrwxbK6tCIOCSGFxyihs/pBl3BNRAh9QFFGdYVz3oyZc8WzzIR6caY0Lgjt1KqZqtoZtaZ4HwnzS6e24ZX2Xu/tfc4J9Vxt+Za0CZ1PlBUdkgEAVWrv/6RqWgAAIABJREFUEBM1J3sOVmqYCN7p8weiuxIKs2dIvbvitdrmGDwYLThlTohlj0iSekpRqCeVwY6ctUPWmnrkqRvPNPbJ+1FEHPXIJQqWeU47UyujrRt7Fhod65tw/KRpDlR1pN1rCZ09g9j2+MoxvzJP30U2NwJTHbMQG2IIbE0i4zlHiI691uZqZ1fZ3oXYWTQQAqjzhNbRTnrqkUeiMt3rUyWacSPz88nDVYLHJU/PlL26aaCqvUUJDqRK4iaajVM2hGaYcmKw74zxYRGNnlJ4oJCYGTOlmPkgdS4d7JrzdoZZpmfgxLBoEbHSzUS3Cr0SiEkv19giIeopz9t7gwb6tLYzMb+dBvo+4L3DzRSjaPRXfW525rkzznkjWtXuZpTnahxwxUzB0Qg+ZWtDG+mmvRkuLFHUdxHxsVCWQqLf+NoRJz1tm2r+gL5TfBUHDDQYJaVvQzFK2dPsO6NUoeY1ZAOajZivMzGa8vMYGfRFZ7iomRSd4YW8ae194P3AZdUU/eXrF3aAG+g/QPFs+y4m7E3I7Ulirj5NJH5xFVXC/FSV6cQwNO8dVPZZ2RhnrzsLmpQER8q8awj4xrpfdpPeDE56TddaAYPzwniuYm6xISf982cYDYfBo0shrWJeVXTCKLEt2r2erg3loKoTzti3xorImKC41BM+5rkSqsYgCufsWWlQQuCU5wUYPzhJyZXDyVlWHygHeExRT36e9r5YuMjZ45WUYcoNFVPQY1zQzPvU4XmDlvvMh25eV5J4pQolmZUTVvmzMu5KwkQ7jVMRfexzsC3PqXHOG1HXjC+LIUZfe2fZRgp1CezvTh1RldF8jarSdRFfSfIuB89uNF8R+sjedoevHKORL58hTgw/StnO0Cnqky6Hs5S7hYF+uL6CSyIdXcrAm2HLrwvF89RUfpeNb6ZJ5cRBztwWgyvDJsh4av53xuLKpk5hKpoOiGhVTQMdDMC8bduELvEO1Sq7xmPa3V0Li3W4dt9HINJNkwF0alCAQt34dE9G59EQzRiEaImOuZrdrWmp264qZzKFURnP15bAixhmmI10eu1orqJWmO529ixCEitJEUdVO9oQmVtoikKRBqUeV6eE1DFEcObRZSMnzrxlMKOj0ShIVe0TLS0WLzV00bQYcvivSZMhDsbPDFjiyDJESvXY005CuW5IFCcRe3b5ucyG4OLMOGbc3p5agl9Iz9rZIS8+RRsM8IzzUpgpTqCaqwvmmnRXRyLuq/6Wturf23HOG1Fi+JD66i5BbgQTG5EUaptRMIERXzmasSd0ga6NKdSxhSoBSN6p88L8UoP3lhltk+flHPQpPBvP11SNo50mDmW6lnl3IXlN6eSPGftM3l3ymlwi4lumVtPvTk0+mBFMeOhMjXWuxonJ+5TkaeZw33nB61BF5VOVTZyhZmVO4XTPuqB672jGluDottvCNujbHg27yeAnw1NwuYhgobuQKsWSIRJvZS/d1A4KVzl88tz7SU9Ve8bzNSKSMtCJM5t4pA6HitL1ljRpRp520qeMtFG/nDexbTOyRlIPXUAV6lFVMO2uC/TTgNIl7zbNeTB4JWOEpARNcghTcYWSucPFSEVNGqbZ0Jpn55LrHEKwOc2eZPLijVlhr++mgcwbzc+ueKp+YH6gdjBlmlTmjXpvB17sLbx3mdJVUvXDwWz/0FIxB2bg8zPLh603/H/+c7Ivz6Fxzpdvfd0bjvyuUz0qJFGItHDzhvR18tRmQqrimUkG3u1PCFoMbAixqOFnY9T3ZlQnuz2hH0jyYAu2aw0HzQs8pLr80JmRCF0sia6QOnM6SYvYC9VMTXuuLslMAV+58l1yMqDwXRkgAEkbuZQI5k2OJa6qyjw5MAO6szFle31iBirxW814BtppoJ0k4j9pXrF5CiGTv5NqUJozm4wZKUBHKkJIhqlPc9kF020dV6ZDkDzo7C05Z/dRjyqjOUUtnmDXBaZ7fVkDVrYb0nMwyprGmCCGSJ3gmgwLOCfUY+O2ZhwzJiij4M5Dvq8MX1sSMj+nYY5dKa4ALbhpNmAx05mwz+8T9KFpToeLDIUaeR5nowxkwMzteaQoKhnGvgslErC3D8/EeTezRmTm0J6lQ8Vp7NqfeDL773wY/uwv+fs93vjNB14l1ejbgbkQlSZRmGzxZRpKSiAlKypOElEZSziFiEhe/HY6dwkPrRs/0EoYFmamrZQFD8kAU/h+2McPdcnFw0yVKdmWy1A1NXBE7d/ZiHs/hOmQQkWleJ4wVE/l6/hKSoiY6TA+iVX06Z5Q22Dj+RrvHW3b07XmzTdjX4z0KWIruSqrSp5ll7QCEjc2f4/Cn03G3KfkRTOqinHPRQ9Vk2u4tSR+YkzcxsoOpT5EmlFVCPx141Oy0A6Hqja4IPaKc44qeaLZ2DifDF7yYPtpKB55xii9t8OqJBoLK8JO3Zx4Ux3+kEJ1g3RSFJKSekOJLCnJN8wnCSOf1WkoB30y6CEp32fKVB5D1OEoP06Hq6tcqol3xWutErZrCaY4rOeYmR3Q9/Gxr37dI1//2ezHc3Gc8+G8uNHznMhBYPAM1fC9vrNKFQG6aU/oZhIyCbwXzT1mslLHUA3jK3+Kt1c3nrrJyk9xUMjpAjFl+bu2Nw+tGgxazvajQ0ZXGQykJLHckOhKhoEahOAaT9eGRNNKtc45mQGnZPR9LcXjExRUSr1/9oJCHwnJ45lbbJBFSiZ5OumKQbFKmxTyhZha7Q6ej4YAbqB85aTX/9/eu0ddu1X1Yb+51nqevd/3+w4gyk0uMd5STTXebRpj1HSkolxEpaFRsI2hYprUNrVNOhzV2jYZIx3VdNQRpbV4LSIgooKRNF5iNGqiIFoUEZSKHDgcbuf2ve/ez7PWmv1jzt9cz4u1BjgX+L69xmAA53zv9+797P3MZ87fbdr7TRC1B02Zs42usJET/jrE29ruMiF2Z1BFq3at8mx5B0bG8b9TdLLTZEVxXZoVVye8VhjzPGuJhx1cgpYdty5F0ZwwA4DeBNUxaj5IrSMew5x2myxSSiizdetm3HDisJMY9D9P/Fo5PWyiDUOHLFDRK5BNdIkYoovWNy4kV2BEgfYvGll/PpBHcM647ilZdoRdb6CulfIm5O2bPZ04N30R1V4PteU2zTlrM0lLLmkwyl2tU5lyPPEn73rod+eoKBAkv2K0a9baojCPUXAKt8i6OMsDRJ5jZlfkshnbh9S8M7EoMmoA1ce1MpuoqtXGKmqblIsV9eVYkUvGvMthChABMpKn03uBdDdWKin+v3Ua1vnUdQj3eZ1SUis6ZbqCz2o3Mm45GMnTtYc6IE3ZxdvWtU1eLCWZsSB0leqMvasacqbsDKaacLnX4WKx7l0EIk7CJSDtMqp3xnliwdOBMYsRLQuaO816qBkMz0ZgvgYtcFzn2KyRYaBdoYnXVlF8WmFxgjINvgOaDQKqG5a8bMZkEddhXn3/8G9Laz2UBfDvDB+G9jsMn2Xs3Rj/xaLrAuP0Z1je4LY6IIDIenAIRgCoGzwsbMbVH0mhSd9+BVQ9HQC3QBGVnO4pJV0IcJtS2A4raNxZJHAgPVtRtE7SJShJYmkmcci0wRPnVNByj5t9OTYUH0Ory0mmeaTfQ8S988ZsY0PkUGYDAXpFFBiOjvz973tSSZDFbxxQCO5CbI6e1hjG+6emEXAMjFgquyZVxyfttVpDuCkIV6ABwbRLERloN7tAtSP59lCF3eg5JXP1VBaQgcWx+8pe4GOM9dGcXWGeHHdUv8GdjAMGhmejqJNRJZkmVWxh27wTLvG0BxvsukyTdabroUWhKVNGyiNZy2AT60STILaAQgcp170Apiwo2Gg8u/07XnNgFEdCQfYvEdpOXnXAYA/ASTv0ARv04beHjGhGTjKUK5EQ623olfk+o6gKnGQzzLmweAvQVW//gG7Cm/zc9O359E59Uc7yewT5RcZN1mqLbqx7AAS/aIB1hLt9sRu42EgDIJ7uJIEC2Ifd9HXpzihbZzbNZZM1StGywlV6jgeaCPx4udoY2EdRo35x6/UHOCVbgZl2JXz29u8kCiXF9eo3eAj1k6kGMjd7KuJGZzc3zUbulNm6Y2ooe+04XlbT1qYRcG1pUwMfzZ5KRflUntKQTREv9EJZJmPySYBs4/Omufj7zPE5tGavQZ0YrGsLPSWLc3ZCDhii93VpqEtDLoKza9OVpK7sdtwQxvuo3Xt3bHFrahhjMYkne5CNPFI+bPl5JY8l5OdA3Hz7bKTawy9PGDa2HfI2FFo2/z+IxikH3s0CyveZMuMeDSvnf6gI6TrSpAAEGSqqy6kL/aPnpu9El0ccvnjq+0+0Yub4oRcJdhZGNHX01W6GMiXMOy713hAL6l92tX9mWGQLDCylhGk2IqoUx0e5QI06zyyY9gW9drTVC7doFLFpso4Y2m0nW7IEpW355EhoHQt9zhpiacKQrXW0y26kUEle8EhIdf+dRqLEMj6XPJVsciZVODNvD5viCoCUBPvzKQryemMFBK4HHTe9kXIIlprkGq9baBu9aHJNrxkcLMeVqVmSBTklx4s9X9OhlJR8nYZ3tB3quPGAaogdZ4czAAR8s/qDi52XQQo5JEW9AZqA5n9ufz4Z0eVQAvyzMsnZ+Lu5FQEYbHlKYuuk4t9vIgjjyQJARncIIORb26Qp/ntOAEFAri3CSKAmX1PHVElgUWnCWEhqkAEvxs0iIlMWZAC9yqs/sLvw5j43fxE94k6Z+qunnXxOV93NZwXc5En9HrsGUWw86yZvoQ4ze3fVq20AJQmzFbCHD155U/D3AJMn42jHiMILtlRQckJv1QqEj7LF49BUPejZv/xOBEcHlErCFLKbweDWtYedjyRFBO+2DhXmmZKlBzxl2Ebug1kcu+qIDPQ0ImoV18XgD3biFtxiRSoXK9B2jYCUM86uF5N0dVc/OG8NH/khI1XIumigwYokTQToG0gBwEpnE5UIOjqyLm7jzMOdA2e8l7UF2dT7CKIxe6Xhs3WxB0zyri0VS5ai88dw8xowDEkqFqQrBJE/jANv9UlCMYofx+3MmDv7t1E4u8MqKRQcAycdbL/BG+KfUW9mJU4pBWY99oNZ3GJ3uIp/d1u7Z0YkXqu7j2u994G4Rz/cz01fRPfXdm8XwWO06643c5AkZ3PLlDzw1qpSmWyVBvG7o4fRlpKsCPoI37kdEsY0G5suELi+z62cZUqoSSBJIXD5zCQ4Xlb3XKdIWWq14973HpAnwfWH7Y0k2eBdLKDigJxJZ+yu9/vWbkAnuqzIJeSQwQBc8xA3m7+HlJNH6lm33vtmnFsbsriawLv0fGbKhrq0INRM7dB8dYUVt5wTetFwGrXecLjhna5LtNajF5kkmH0poDhuLBAvYKOzq44fcqHgVisreYy7ScfywMgo9Q6XBBSOFgBD/W6azANPaZfIeNCSIMs5oXuH3ZfmrLoXxJQoRLgyCocELsGMCE4iAoCK/hF5WEpDwG//MDAa/y6N0Z2jfRKPBVRYB86HonAA9+LahsPNHs4JvWfo2sEkqOyqBkn2QPdtt//qy3/wHf/4fr05b5Jz0xfRp//Au379p573xKZdYrzrraMfK9QxujIV030qmyP70u7OzJM5uf3TOigbcba76JFslFMxrV3Zjc7UPNuA6vDVU4vJjqFhpEqth4Z13zABQVblKRlR4FibKoNBYCwwZ7s+ii7g/mvvUqIT9RZPXaqVXRi+Hisgw+qa1W72GB9FUPZmWV0vKupi0hcy8LwexDW7d1Sm1TQslax7rx1VJSyaxI9VWQTUGeeO3uzNLUzQp87R9bnRvvL431GmFAQiu0YWxLq0wV4r4hpQwEPSioYMUSvQSa564S0BxHpFpspzvF69I2dnyimEL3XLyvNhRiKMfzdH/95tGd1g5zcFFlQjDPgiuVWVu8Ti0qgrCfz7nX2zKeEOwB1WTYMQbPZBoDe9/gHdgLfAuemLKADUpf/zJPJJoCtDTVTO6kOGtK09NiMC9oWa99YJXd5YAgsUIHA6JpD3bhF52fR0Nkb7+IYuaKuNhQYLpNBMdgCHixW7c+uS1mPDcqwmLXLfe1s7utjKi5SIz25cKq1vSK4OSWbRNBnREE731jGfmT98XczRs/1d6sL2lFO4iKIj9SI87QpEGuri7G4XHC9Xu15pYLLJMVl1/FhpaEjWsWV//6kIJCesRw3SAwC6j6Gme3SlBCTS3y1AxVl84AporE3RfOe9AOhVkSdB9i47gmSKBYC0ZjuStsx1CSsmx9xhP+Ux6RCgLY1iKfYvWFSrW3gZawcfm/nAyGmsBgGVE/Bu1j/faSbJo+NB6k98VQkyMJcE8YfYthO2N+u4LVeM9HFtAY3vJr+z2bt3Pshba8cP6ia8ic9NX0R//Nkf+Vkq8jpkT5LfsLfHyxXHS8sF1W6SJMqX6NXORYA81oTs9hZSUmtHXWyDI1RthYe7blbXiAoE89mEtjbUdZAuvBnr2sJhhK6hBJAkdlP7DUv9XkkeHIKrCUDUCZoLxj5SEi8yZXdXAYBCiPE5tKCHzbTohAsJESuuw4uvqr7SWLE/L657NYKJThhe294swo4MNFUArQ5pzfGiGqlVkqddSagnSMSJGGHUNuTLNl2KDxGrXRsM0Ikzc27RHXVVT8rOtMwepM3rtpFvaQdqcwgHgwmPEGwBkFxK1Jrbb902qnAtarJdT9kCsbUh5Euh23XHGV+IqoadUBJlYtT0CiTlIW3K1hDw4Q7/Z827ZntNdOp11zuLrwdvYc1djzXgiWVtmHYFLgM73rjr+D/cv3fmzXNueonTaz723a952gve+p25pHeS/aV4XtVCOsK66BIQE3XbU5vJ3mTf17WFFpO+b2aKRqSdu1aSJ0GVXcbZ9Tk6kyGCZrITO1d1n7gEzskKpxhWySHYxkZ/aHO7raIwrLQyMDiPsY2kQo+uSnHfPUdcXiy+wqJjPZh06XhYPSDEXgFHWRYeCtT5+qtnbdo1qfF6pl1BmXL8bOgSMUZr4pmRsO7dOi2cUBYMV0L4/njtIx+VXTCZ6upidq7F5oMxYA3/sbYOSRpH6q2wnXKp5OYDwAkix5k3TbB9Hp59wLCZYe4QxzWH5XOQTnQl+ULDIJeGrZSC+LraiuiRMraVLPFs2lFofFf4vTJlwMgvJXHKe4OkVc6CaZcvv+af3PVz99MtedOdm74T/dZvtU0bIrbsfZvnuD+f4s91x8RaGwwzYGG+ecJw3MhgN20CM1vefD6Ba2nnswxmdZLIsZ9fzV7auB8+YXc2IaVR8CQB6ANP3WJn26I5cLNBrNS1RaeSSkLzoI1pX0Jn2kUi1LdXX2tSG3b7GfNZweW9C9a1RUds7p6GBoFkxbyzDouSmN477rvrgDwlnF/fgcaA6p1Ma+pxgDYS5+Kvz6EBWjmLWNe3elHsvfuYS5Z5mADylC3xyX9PrJ122IAseV1s1XQ5m4AJtrpZgcXtq7H7iEOt+9F17cj7Ei0GpUIs/AYr9E33fPX19apQ0Gjh7rc+Hhz8s/Zzhv0SMiAsYJbYZK8J9tQtk1lY16WiSsJODLNn5sDKzpIqBTF8FEIrcItrd7ykJXV01GfXJhwPDaunaAEwWGPOr7qCO5/OlXPTd6IA8PKvefR/mQWPTWmIvcts0WnHwxojkfqX+NrD98iZo4/ieLnicN+K5dhGJ7swwk0iZUgd9AdcML4yh1LRVo93uz5fkaNIAqqTLjZOWiezHq1D42HjVMrw2LOjSEmwO5+w29tDQb1r45gvwPDjryN9qvnIe+22HcpUcOPug/0yZcwbxs2Y7YZcl4aLexccLlYnaTqWY8U05+j45l3Bbl8cM3Xnk1tXy5QiEPpw3+LwihUQhdlIi4eUMFXdiKqxWaCtDUdPj2LxsS7f5FbsygKzhsboGx25CLZETkoMYElhiSXZIoJYD2OyH4NSrBg6ZpsGnmtTgz+wYex/XYfDiId5pPxP9wc4O8e6+M90RKeYRFAm630OFyuWyzW+K6owM8Iuj4cvEMRayil0rmVOLs1L/vvVE8VafD7LoQIJmHfp4+63m/EmPLdEEX3G99/5ba0PQfvxcsXlvcdN4rjhZDnbCgtLuKcExd04/qW0Mc26o2mXTefXOR4bdmbJ9uai4Si6jTZj0tDAtyzhqR7rWHiXhxHgSrfjbP3QuXoXpb5zx/95SJlEsK7W6UxzRioSTi06Uazo2M1ayJiv1tHs9sXMB9xoulhg9bQrKLsJtTH4JJt5oHUorFtUtaJgYcO+d2rpuLzPizAQha44ebIcajDm7LxtF5DheIZTOqlHTSgX/GUrCr2OUTrgAz5QAmLIYZMcD1aPsvMOuzWy/8NzXxdzRaU0CmdytpzjsqpGWlV0r0Qc/L/N1WTvc3dWhnPMMxl4/WgHjkQrx5fPbpux21sxbR4WUvw7THgqNiWUNB64k2GfUMSmgNba1QnMv5Nmga30fZzOH3Nu+nGeZ13q69e1fxKDe5lFSTkKLZk5ghpcKrPJg+RiOxIbkgVSgLaOoAk+/ctsmkPibFuyImWx1PJs7Pk285NWw1ymK50o4MSO2IjFB0CZjF1GBAfbn+2r6TGtaPZQIpQpAVIizzP7yF52Gb2YwDqV5DivpQOxizL/+tg6GnZAxwarh6P0BvTeTCs6WXE8XKzozbp6dqviD7XlUK2AiIdeUM+oI+KPRoLaR2A2EgLXU39IsgPVah9gWxsEGx2mOg4LBqFYvF7XHoXKdLI5rnl8L7yow98XglU3BQC3uNqCv6uBId2nF34XIHBJFa+vDAVCo7kjO+zjzHoSYLM6xjbTGo69jV7kw8JIIuqDNWRWjcL7bORcXXxicFzf8N6Ehz18h8sbxx/vN+75O/f7DXkTnVuiiL7yeZ/w+IxlUYVef/hOSHDwxjLZkGL1xVza7YZgJ5hcIhQBJsIGU1GXbbwZE8cRXS/66Kqqe7ZJLgCO2yn1mmIJQNgE9ZIsUDqVNvFm/jomT0wKkqn7/no4OdZakC29mcOptQ54qAl1gq0p9GgyrXmX0VrHpPbvbtx9xBwYpkmTLu87QN3xxHG5eHfeu8QNbElW5tqa98Wx25EgBBmYsL1Vv8YY/54yq1TEwlnscofGs8GhFNd2InuEH6zWCRBY7rBnWrxc2HLVM1YxmG3B6FQTFNUdR4RKmHgf7Dq8UK+0uxomKs1wzd65CtmhBP/zOdukAB2JShyr7QE9JhcWe5MlIWRwyZ1zVsBNsdBVge4P0Jw87cv3Tvm0AgwbsGlM/Xol+cWn/8AdX3a/3Yg36bklxvmnPP+Ntyv0NyThPbxRu2NrvXeoVyPGsNGxk8qwzMEJpfl8F4JydqrzzsYxCyrhjWS3rhmM+sb3bJ0Xf3Z3bmsqyPQDiIAPAAOvSxKvgX+ObDkF5QP3Y+eGKzrH7DZJeNdWdiUCMqgwgCCYfo6mw3LYA4uFAscLj9+bJ98nZKz0crQlc8fL6tZZf2hQ3wgqDXpcJ0qW+ICihpFMvnVunlKEoVQQn5X5PprjySbuT9iflxjprVNl+DKGn97dV9ugaLrF1IkvkmWBy7YesYSSrOtcji3kZBEW4z8bYSMOVnPKYMdoBJ/Lk6YR1kwN6PFyxeHGGjKkyWGWVrtNNYkraKgckMB9w2zA6aFsk/bpWrLPgdsKjof1cN89x9fdn/fhzXpuiU4UAPa79A/e++7DE3dz+UL1my5PphtdLtewaYpY6s96rChzibxO2v56bT4ySQjtTURt4xBHTdPp+ZfXuz/rAEzg3nzZGIv2IFgwvNvCdP2RnMSFdryRczEdJeVa1Erm0Iu6VbOYlCd7GHVyMo1j6z7E7R4vt8GQU0pofcWuTNGJUvPau8my1qVCOgIz5Z9rrW8KRcM0ZUiG48nwjalGBpUpoSf1a5+Dnc6Fwm8FOqGEFOMpR27CIonThNC5M2AWyqEYNC0C5DljPXoAcSoGQ1Dyo3SIDdkRPyPAQ6aBodjYkFF0Eo2OlQ84CUsl8ojpsyNhHe7gQ2QsVqSWudXmk4uRcVyJPO1ykJ6tUdlB7Nk+68PFimsP35sn/rDCHvb250pJWA8Vy6EfcpbHPAC34k13bpki+p4775X9+fmn5jIkTkEIdUUhAA8bP+vaUWYbKRWUAnXk3EP7R+KjriaSGWniGova2AVJQuBjlFYZ0dJiDI8QDV+tbAXW8E4Ga1gxzqhrtZs6qXnw3VtffXS2jpLroe39Rso9AAX1og27s+IdctsUXWJ6CnHV9+odMPWkJsXRYMTz3t5jzim6Y46+Qky1jOCMKx0iAs61otXUOzIveDpsoWUiq2wPGzPvDFzZqlo0zNFRR1ZrG9AGBJYOVQS5TDHyj6DtgYf3PhLjrasWiCj44eYs6DrkTNwYG9pP7wTpVhs7o4b4HjAizZ6dGnQ+iTV+by3g2lOq3FrLi6ewoBJqW9W3t3JNiyQLHVHYdZ7mhFSs+KacMM8Zl8f63buz/sL75ea7yc9Nv2OJ5yWvu3zXsz7j+l+aSv4Esfsavm03ZC1bDWZ2YXzka1aNjhLqnmyXoLSG4fbIXrSUCfLZRdYAMIT94cH2G8GIfAlogAZAro8AEF0mtgXD/+Q2xAIYspmUUhQaFjQAwZZDTF/ITolOIfs7dOCByRjt4svYxG/enAW1aoyIKSe3zhIbThEWkqccmDELBbDt+uy9lik50z+CjNlZ8nW1avgkHWD+mLA/0DEKpDPncMxTmxVeflbWtQ6p2BD6p/h5aoOpkKBJgtmpxBVJ1tjnxk6VXajEwxci0FhTPATz1vFqKCP4MKGaYnw3baKhBnWoGWQU064uDxsYKrXLgpHLMM8lXgNlWbv9hPW43v2MH3znt3+w992tcG6ZTvRFT7/2BTnn0hR1mnNJ6qwoyY3u8mjvdMqUcbisOFys7nsvOL9tjlSenBNqazECa1c0HbFyvbkmsZj+dD1UHFfP0GRn24YlD+AZV3F+AAAgAElEQVQOKIC2v1jdETepuJBbnVm27rF5sRlFQa+QUuaQMhsqmVob9RCvvQMBJxBT4+jJcZLJ+zZKIuIAz65Ptv3z0N3nTYYXm67dlACSHOrwosDiq2rjrSRg3pkt9fK+BceDefvnfbGFdE0tcCAppA3cshP2cLCaBRzw8I5kQSKqglgUlxDFg+83F8M4VRVoPq6PZ88VMgjwIGaO68JrOOyYwxk1MFIAV4ux137+71g3wu+Efz8i0askSB/utVa7pW+1juXYcHZ9cpz9qopDoagHRhPaw3DeGRRDeEkEbT7LeV/zr96Pt99NfW6ZIjrP8hHr2u6ZZ3lrmfLH2DfXaN4Yu7eJPwCOF2uk8eRiu5NSSmi1IiUjRmJn/a6MkRGjeKRpCgxLqudCuqebgRP8T28d9ai22zzZWpLeFAm05mUsvboMpkPXDYHhOs+ug+UGqI3cFsjBRDe1DoXxd3bzO3bIzrwZ4WGYqoeSUHh/tM2QybFJG5PFltA1tbg7Bawj61iWivPdzq7jUgMzth1JPuJXRU02BayLyaQYY5fnDF0ajAq04qR9YKAsSuoYX0wAkmLkik6N04g/MKY5exFMoXQg5KAygjxG18gsWiPc+KWh/pObQ+EQzQhwstc0zdZNUgfL/VSApypRjWF/qU086ybUxlGEMo2dVFkylnssJ2R3XpCSumtLTX7lD7VYGCj22ovrjuvSoaJvOR7rPQL5vz7gm+0WO/In/5Gb67zibzzxjvPr82NSyVBfKdGdfChzQquK48VqXuqu5r45K6Hdm3Y5mFreTHB2VaJLtVF3PtsBMMJCnJxg4MjAP2VT2Nh9ShBavI8AhBPFtH7j79rKa7aC8kiVp3EAgPZhMKAfm921YPjA8zQCUOx3eHFNQxh/vLHYrqI+7IMckwXwFCoCfBKEkVldqYkF1mMLe2LzwOvjoSLnZBtHYQTVvMtASjherJvubfjLOXYrJUcbxxTXbVDjysJkP2O/u3t3TmUCZU5MYSImbSiKdZxk1JmIzzGZr6Oyw0teqP3Y8DO6WjMp2IeUssEEHd6dC0ailq9oadHpm+Jid21GzoJ733OBw0XF2fUZ8y5f+V4yjETbICX5HV/XBlFgmtK9y7F/51Ne8Ja/98HdabfOuWU6UZ55n+5A18fUxYiZw8Ua2JKNToK+yyhquJgRDhmrmniOWBdAIsoZ1GODS0Wtk/TxsMeOYt9l7uspFKYvqxTaC6JDsKKAuKEoYxKxQtq6hqwHasQIqx/HyWiTMLomYqB8zRxNt6/1amc3irJ263y6dtTVheJJgHrVzmiEEyP7HP9VIGdgdz6Zu6d2aDZbYasd875E4U/JOtOza3N0k6oKccJG0H0MdzeEIHSj29XWJL4Mduioq7pMSgIu2XaurIvN4ZLtpoL4XLpC14YmEt8XEnU9jc6Un6eIRM6q7W/X4cNXu7YWqCKoy+iSe7eFhwwEiVSr6H6H2gBdMZ0VIxuPC6ZdwfFgITBldrwVg2Cj/TcVM5qgdUDU7cSK2vobTgX0/Tu3VBH9pf/mE/+tw2W9aLUvCpkBC14WwDoRd2lO7zOaEwOddpNb5AI/QsoZ0OajEhloE6hf3nsZgmZ2vSYsH2LqMpdNV+YdEv/DEb1rdC7Hg4eMwMOaS9q4UCTGPkqLzM7pN1/yZP5NARHvRlICcs5AdtE5k9G9SIrfhiw26q+Rom9uCUg5Y/JcAnTF7F08s0iXw2qGgm6/Y2QODByzzMOMANh7ndyXz1XCI45O0Ft14sZZbuHu+RETyIfCwDYB6QoVieJGjJHPIYEFcLctzOOVktgu/DpGOE22V0xSJ/svY3pXvBbHmo2ALK477SH9Ymh2RNtNKZKhsmPEsp1iekeeClpdcX59xuFiQT12zGe2ujk5lGy/Y2xpYPbqvCtYL1dc3Hc85Ya+n+eWKqL/7j94w+/89H/+sXe16JAYTOtjVRsyGPvybsZC8TLizD0Da1uzjnbalyAyjDTpw50k1lnur03Bypt8yG7AkUDPkdwzJxNJCvGVDRLdi41ntt8nHCqShn7SbZ3M11RVtGWkQhFK4PsnVifOHLNwk9xi5xMh1M5+55Jc+J0hnh+qCuzOpjAYWCGnsN4VB36cR0PvbuF0do9J+CHUjzKOGL3tuLB8soLFB5Jd1zHigyQPfyrGZ0XCxoa5nQg23Z/hj9mY/1BLYMQf9mbEllXRYVQgZo0R6gJxaZtipCWVjZTKcwA6OmTzsOLPmmSqx/do3llCGFef1NqxO5vMTuuBLwY7jKJbW8fhYoVAUBRo0rBWvVHX9qPv9411i59bqohCBMvznvBCaPrcXOSR0jn6OpZHtloHAG+FyzR2slhGJm8O+pFFLFSEqevr0tGr+bNnD7poh4rjpeF8ecqYQddUD3zUFqZ1oG9kQMHmesHrHZqGq4aYavNOJ/vNH5ZKHVBBV/fOY9ORbVh8ah8JlXdnuS2cZUAXqib5kiRAEg+pIKOPYJCZDQr119cWgyL8+tr4qGFCCCIFgpTcHy90J222V8I+j3gY5LFfaLtAUPl+xSy3kgdmGiOyqyqmXYaUFFmedFKxeJViHWKLCWW4juDvd3t6o17TrKMGSdh3kJOBuC02MlWTBbRYtgNzYxniPfZJReK8E3+X942g7e7wCB8Egywc/n+GqQRzXwTLUt+htb7kWS9957ffglTJB3VurSIKAG1B2Z1fL3MJUfR6qM5SZggGAF9bR+pkJHy9sYu4a2MEXbGuoFthCRmQO5Yubywh8eE4qeruJorwgRg7ex04JTBIh+7yp2BuY8wzj3vqm13vZSjNOdbbeO57nnSMlNvVwb25sF4QN+hYljZwROu4qTvUgBcs09IYexoMiLfCQ63TRn7UW/f97r4vilgsHxLo8VAjw09Wnpmp3NRJttmkQ/7ZHquP4XQtmcSJ75eH3Z/tKcKVh9qQMo2uNOfxUDKJ0/Cgu0o+oKHk758dPbca2INtGA96V0xTBmBjOdRWuLRqgO80ZycGYdNNTBL2HYAqloNPRTOwurZ2PfYgCCOHVmzliGDGYsv6Wi75V8/O8necCuj7f24J7/z2fMl33/lCSXLBlReAw4+Z3m2mz5NQoQZwkDIKiS7p8sZqnZKztMuxRUoQSYn4Tx7LzJJw+6R57kXIcg/x9nbk5goM4nOqLMBuAnAShquMQ+zu/903M3Rx4gs6ZF11tci6bbHvm1GSfnQWUqZWkUDp3dKw6EFv1eRQx0vrwAPCAB8MLHxWJbPbHy3UpQdp09zkwM+Dqz2IKVZf2cxleM397dCtAWEYC7In4htpl6LArb75s/imSxov+BnBVRFwltueYSZd47GfoVTJ31/mhoPs+tMhS6qrFVRmlba1xzZZVUWZBKUYxjztMs6uT7YhwbCCMCisi2mFy5RdYythYy5TdpWZhHIi+w4tUzwUSMa9QP/kG5fr5z4gN91Nfm4Zx9L2PPPPTPcq0pN77VIXXy5XTCdI+Q6LbMiOMMB9W32BuEEtkDgjycDazIeP6HYJEYAjZOMo5atpQzBvr5HOkpSt2xISPRjOGFofuQAOALB57fbn7YeiOEZHOUZqdbcU8dRtCEdginDVARitp44fWidoa0E8c7NeDVwxCMGw1lY1gj5I/tB2mjYhwQxgYRdIfJfrR6wjH/7/MhOPZhcpm2LNoBL/K/2vLg4jhHRpQ2aR3KMNl0EkMTF4bioT+3UL9AIQ8c/L8eN1sZUelDtFeApoC7bruhxrJHvxfTNNKmUJ0nO5qOP9+PuL7ATX7cInF9pOVQeGu1xakPZ8lm/vTV8pqq982vfd8b+/v/fS6dyK4zwAKeVhvfV3pJwel2IctKK1dsQXvOwypt0M7R3L5YLlUG2Z3L7gcGNBKgnTtRJYZSMWCUQHR9kLO4AhT7E7oLUhw9auqMeOMhdMc3GZjr9mdnwYxBAxveyuKN7ghm3qsBmCoRYYcijCoKB/W4Osimg4v+lNA8r0JGOH4VKkMg+Zz7y3vUvMDaDYnPuVWoO9NlUXsLuEi2TH4on7tWHe2XXOpWA92rVvXbE7L773SSPQmMU7ioQSDgCxAB+dh8QobKYYODG7ZSNoJDpDwgSEOdRhEk4X8dABNg+qPhQEap57BdUDHjfH7tDNBdyaSslX95zY3jrUr2EuHaXY3q6YNJJPBsqwlB5YO2Z+J4Y/nw+VWvsiC/7v3vS1y7vu/eX75+669c4tWUTRlt8pu+uvziU9pa6eWOQOnbq6BW7K3jXaExyOb9WNxe5wYTa73ZldRmJ7LHCW+K5IYi6lITsSWzEBBJZK26BuChzTfKjnpEWVcp3QG8kgkUqO6hjicrtTHf/kGAjfK8/fo8NPHilRdex3YvdFTC3MAXXADGS2LY1pWEa3ZgLAdxsVgwC2KUXsYqkU6F2B1mLsZ7HOWXC4qCbM95+l8cBCQGC74v1aCwDmvcZDjphF4KVD1RAYrf+cvX5Lj09ZUGZBVomu37SXAd4GphpQCoQbi7H5Y/ZAFYZ927XbnU3YX5tweWOBVgCiKHNxFl+xXNb4vJhpsM01PS7O0ruKgin76tsLBlwARe9vbFUu+nr5/3zlT9zza/fPzXXrnVsWRX7lX3/Cz5QpfZGm4aXml5HjFTCe9Bt1DJZDiwKSsq8MzhIj6iAlBhQgjpfy76SQO2Q/nmaUp+y4YjO9abDBiC5uxKlJSJKwxV2TWNflgcPOQQ1Jj3d/y+VqHZq/PvGfjXW7nhmQi0SxnPYTlsvVHV72WrMnFW2vkaSEabLVJOy2rMDpCKLOY8MkC+6VDlIGvgt/H3AMkJilrdbI8bmpaqxPoa40vAdNoaIBh3D7KwAoRpfK7ptdJV1dkFH0AcNXI2LPlRXmw/dMULyPm2oTNxh5qMlJnjQMDa1SXma/p0wS3xFeGhv1EVASFDjcWHHPey9x20fsQ01Rl45pl2LzKR8Wdalra/rmJ3zCY7/gs77p1W//oG+oW/jcmp0ogIc/LD337vvwexJ4krttfOwqWfxm9MQb2Bd33hfszq5a+rQr6ka6w5Bb7lqCGAw3TVeZ5NAgsntVerk9ET2RDEiBaU1cjav2mkVshUf2Ql+XCj4bydKXLVvvmaTWDecY+3b7CWVOviht063B0t9NBJ/R1obVg1RSErfBDncT1CVRngFKjWJbG1RTEB6t9ejqVe3NUHsKmDMriQSbDQAUnbM7bFVDF2nwo15JM7Lg5aEqyLOvwHZXFf/OJILerJC+LzHXPNKOuKiK56ceGyHSuK487BCbr9e2z9MfbtpD/ZF81UqeMubzPepxwXq5BozS1Ud6mH3TErFawCQp+RYB37G0LgaDCIY22Ao7Ny6Y5TOpotf+pi/7/ts/+bs+9fqjH9Ab7RY4t2wnCgA/+dwn/Mg0la/gPbocarh3ise2pWxkEhxjZPHCpmu17idHISGwzxGdDiIGfVgBAgxn1Mjf1OZ7kVJ6HymM+E1EG+HwvQOKEdsG69RWKyrzWYnuwxxTPQrV1uvNIjXtRmJ/87F6m4YuLmSvq6U1ccUGsVQWC3aTXMDWmuLyvmVDiAEQElTD2spOPYTnhaTN8OZvoQE+dBh4zesVziZn3vnZiVjBESok/HUwTq/71EC4gnvdgUEmQS1VfqvxBeAdHjZd9bhu7IZNEjehtY7lsobrbd5PUNgq584HdnS8pjJYlhYp/VwoN+8zuDoEQIRYHy9Xh5JSfH82E82btfW7Lu656wee8cK7/5f7+Za6Jc8t24naOf6syvRkgZ63TXaoIHlxEeTJ9vpo85T0ZjeX+s0qClRa/ohDdRunoT5uFVv8ZslGKW5OY+mB6mn5kq3Irt5NimyW6BGbDD3jGD+b/w+6qcqcULKth6aQe0zJGiM8mfPO5XPdEqQYomEhKC70TyYKrytX7k4QuDsIHk7sJzmjzJxSIz2GYgFewARDkN8cdxQA2gXNseFcBEgj/JkPAKa2t6phuQSs+PB1YxLs5uQSpgYRdVH6CI6RzDUaCUj9ynUB4OtNDJ4QSVBfaJeTQNOwCrN4Q3zVc7L3dbix4HBZoT7FKMy5BgEu7z16qn6LlSCSk3WjetVQsD+fgumn0iKXjFzGWhKuQYZY2AtQvIir/2yvKac33Ptdn/Pk/0Be+kDeWLfUuaWLaK+6aHFQTFzQ3EeaeqvNk5OsmLHVI9nC8AxgMJ5JNk99GZmgZbJCykBg2Y7yGJmbunSUkiMBiV3HNGUvKs4kcz0zi4EXJ+2CaZ+DKFs3Vk92J94gI2UWJF/p0XQEpgDRAYpYxzeUBGPTp+G+HRnJ3xsZfbtuxC7XtYUFsdeO2vvI7fQubd5NIRs6XKyQVDBl24zKbZYAojBIEsz7guOhxjWnfMyWA5i4nsL60cGOnM8kgtZt2+fIGkB0oNLH55USoJI2llOHSoB4SEVs31SwXK6+CmZkeEJNk8rAawFQHUaaZjH1hD9As8vYeu1Y+jBhUGrHGEYjDxnAYj9XygSm5o99XfgtVb04+7pffBKAt9zf99Otem7pIlpXfVeZcScSHiXAeSopjd08Hsl2sdrN7gw+BBEUbPvhk7PDbYzywahL7EZHEezz2NxoMqBhz2RYBomIfqiRIs/DQgtY4ZUkSN1JEZewzPvie5cApIRSBp7KaDjAO7C+8WTDOkF48c+JmZPOzFd7r2kSpGyyorr0iL3rW2a/mcSH3aKIKxHWHmuReweSF0wVRcLVnE7Dd1tIivj+69qwuMBexK795JpRSVRGIFZpsHhNc3Y4o6Oph2F7kdFG+ZddWe3d3Gqb4GTVgblyCtjGJ264P6h/b6CKs+s77K+ZTrOUFLBFb/awLHOGOCGpvftGVAtwUf+M26rQZkTj7qyE1AqK2JEEGIk0FvvZwyI58dhVf+lp33v7X3iAbqVb+txyjqXtecb/+e4fU7QXadfX84ndWo+QYDKfdLFMM619wx64HgfRQkY0ux2RXRyZ9GDgCwNEhifaOkPrQnrrWA41QipYWKtvpVwdOyQJFuoB4qKCiM7LnirljVewxM23S/LvXY9DIsTCTVcUsUOy1izSW5E9N19qN3gCGCqEiHhrVpwQygR7G3wdzbtdmwCK/Wceu9fNySVuY5RINVIns6ha4Cg+wlXselDukwtTngxuIJlU1+aQhndwDE3ZyA5cSWRdvJNmoeflAyckaIJ5l3Htthnn1+eh+PDX2XqPSYXiXcJKnBZs/TW1wxnVV4UYNOKYB8ja6/DhEzfXvramXaHv/CBvl9P5Y84t6Vjanhe++p6ffdanXz9Kkre3pp9ScppSTph2vi3TcVKOrtqtiyvFYujKnP1GT1EIk7uLgnH3roFf+e6F+mqmJYKoYQG2rjJfGdeBEeZrzLl3vel9mf8x+tMNRY0ipVikFdeQXtmo33zxXs4U6g/9qrHgxGgRHbfC1QZ9JGExVYirKFTtd+WUIgt1W7QIH5Qpg5IJ038yvLrHQ4C7jYovv4uUqTykX2T3o0axaG/CN1TV07I8YX8jHeNnyL+bDzTtGPpOSpX8olPhYWcsomPyE9UISZLlq2ZTONgm0bGjyXZVbVaIwFxV1btYwx3st2hHWEc5aZQpYTbN7C8ebizPrcf1R1/625fv/qBvmNP5I+eWHud51rJ71fVJ/2Ke+pumkj9l9Y6UKzqQDcujNAhwFt5H+SRw8qAjl+wCc9926eN8mUyy1Dcect78EewLz+4UwTQXH78BE4QjrJ0CRLizaReBs7MchZIOIO63HwHLJoESANPeHDDHy2rMstjCOnq/w57oDqhcPFMg2/qPjDQ8+5NZXqMYO/NPksXkYG6dzSnG6rLLyNmKivnT7f0R2iChZfvUjSyJxCmx7E7TsCqOlwaxqDdmdR2edngKVfe/mw8q6mGpR7W9RI6XJiuW3N8UD8WtrlSJZWu8JhPzu8QqjfHecPSEw+WCJNbtc7lhcdkaA1vi+CRQzieHiBChK5LEA0fonBIw49QfVu/pWf5FKukPnvniO3/m/rtbTud9z6mIAvjy5//+nf/0P33iHSLlzR14tHR9zHoY2Zhn1yY0D9awVtJuolyc9exDM8oiGRhZH4ETLDIcKbuaY8WYfBs8k7cdxAQbscg8xl8G+8KLMDu942X1ZCiNomivY+RyWsiKSWG4n1zEXgeJDHaNAEYhF0FrDUAK9wxfR0piifJOyrS1RSFvqQfckKcMSR4W0hUZVpjWY8c0SXTGjKNjQIYWTzRqHUIkI/XAX9eV2KmlYLGbGx3lgBUs0BmggDMXEoEOp3jBtPc2IA2SQoy4w6ro7kSLYuwXrfceFsvsEXqEK9ABFOZ6DnlX3nw/5n3xf97QVji+6W6s7vF8bUQohoyOjjkFVPu/Lvvp+/WwnLrPB/jIn/xHbp3zo89+zBftz8qnpjz9t731R4be8rwE+2kjn/354lY6k8EMYoQJT8CWuDEdapmtCMUyNBI9G8x0OFd6/Du4QwaAC+KNXOrq0pmuuLyxxPh3/rBdyI/qagJtdnuGqznBFVhhwTxnqI/oTEFS7aiLdZV1ac6I58gTbdERu65Tx9hLXabXK++akqXdV91E8tn1aavlelI43mt3Rj9HZ78t7vznY4WGXTeGkwg0gpCJnbJAcQc7gDBJEP9MhL6dPAIQCV+M+ONny0mCnnuqEQDrKuddtlARTwab9jm+S7uzycgyT2FaDiu4UoQkFrvqlBN2rk+lgmA5VJc6pcDXa+2/oq3/s6/4oXd88/1wS5zOv8E5daKb887fvvGbX/fq+372n379Ez865/RfQQwbpd/anEsaKUC9dbTFu04XbGfXZxIri5tKBvnBxHvaCIlpQm118VZADgjqWtEbUIql51eM/TsA3D0zMLXejE233e4U01smKTE7WhaDpIAXT8A6bbVOi5YcgaVVEdvrqshihaxxzYVKdHPdLaeJMEBzh1UaS+/Q7P3a32EdsT0ErICcnU/RafWW0NsauGsHUNU69WlDhOWcPejYSKzw+4NrQDzLtVPyhHg4xW4pmNRIQ49ro/s4hn/a6yAW6waKnJDc0GAdcI9rzL+/7DP22dQdjA8khtwdhjFnl72m1W3AdfXP3OVlZ7fN1rGvjWP869bj4Rtl2dinTucBP6ciujlf9+r73gUAtfZ/pcBbdnN+EpPjVx8Fpx2iyEgSSB+pSpN3oOvRshqnKaO6hc9kU1c7KXRFDxzNxl0rjNsYvUFcmC7QClsSAYqN+HWpEBl7h+iVjixNiuW9o6EYva4N57fNkZKu3n02T6631dBjeV5kiXrnvR6qBbUA4f9mIAYS0NceO5Y6FCUNAbudEXayXJpUJ/mKEI7nKY1VGvO+WA6md6iRyi/MDrWfOV6sJqpXieti1/WqhEoKnWXsYFOkRc1TQfUuV+GSIu+mJXSm4rilXd/jZY3ry/Do8R6BvBNA7bOu60ZlAfs8yy5hXfpm5Qigoji7NhlUA0DySN/vzdZSpyxvX4/6+w+77fy5T33B7a9/IO+R0/mj55Zn5/+/zg+95t7Xf+Unyg3N82eWLFmBqR6bk0MpvuTwm4lsPNUmtboQntY93k/e2FmnqDE+9mp+dXqmAe5ip3d6jGwAl6ANCVGZLE+TEh8AgcsyDEU2RZz6ze5hKdVTqwaO6zt82hiHRYbmEmn4w+lTZ4Cxdo0kdeJ0ZSqY3bRQ12YynmYdFxOTaEdN2TI+e/WOOSe01bst785j55IioIRQMCgsrd0fPtwVpeyON8XZlAjNSSy77twGCiBsstvfR5xmJOwDtWo8hFptUbgbpwH/nEWSTyMJ62UNI4Vh6s0yTbMRlbF0kLAJLb7CrlmQs3QFfvsRH1Weeob0srf9o0//3Zd+62/fz3fD6fxJ51RE/5jz4tcdX/PXPu22GSJFFR9nqzIQuOe6jI4IGFIXkypJ5E/GegzA8zh7eJljenYlAHSQTiwaACI7k8n4RjCMdCcWt8TsUE9DSlxvIRKYobmYGGpM/z13QeUoaNu8TBaZ0I/2IawPJh5AEssAoF2x7Oz1mA9+FHmaAhggTOyXqf5jNcpIbw9CR4BePWS42/XSjWSJm0CTiGt3Jf4OSqqAEdPHB9OVNKlqulliniVngMqKTdJUPLD88ytTjs8ivPyJq6DH1gFet9hysJFUAa4znkc4tThxVOYcwShn+4LW+1vWQ3vTFz7t/Lue+LzffeepgD4055YW2/9J57O/4CO/48nP/4O/oq3/fM4J2pg4zhHQZSWOqTXfGUSL4iieGmxv8puNhZR7jBjLxk2hCiNycknYu0tFvKUyImM4eizVqMced/HipwovCJaRSjxyipvROqzeFPfdfcSNuw64uOfofv1N0Y4O0G/mMvSZIlaA511ByiN82rJIrYjV2nC8WCP/k0UR9nZQpmwbQyMAxbraacpmgPCfq4t1jd1Fq8GogytMKo4XK2LnPAz/JOkC1YgK5FoUVYz1LBhdY2x6TclE8S6ZypOZLyIuL1myfl0almONbvh4sQasE9CPd/2X9y2R5ERsNa5nsr+Agny61Gg8AIBeVZelvnE96jvue899Pyxf+NunNccP4Tlhov8/57HP+c0bANBq/YmUy+MliYjqx0Ek4uUYWGK43MDKOC52F8QPAsluEnVcM08JE8wXTykRYAlItPGlKaF7OHHsYUqC1ZnxraRKPCyj1ZG5SbkRx/v92YRaPbTCb9y2NORdieJgWsNqDPNZCcuiwjpjjqJktSUlD/9IQAYXoIXofa3cBuoKA/eTm850OLyoWuitY3e+Q10q6rpEZqZJqkybqaoh6wkcUUeiFmMMBxY9bLqSBamUsK1SidFCrJ5DKWHqixSdJA9hB+4rKimjTG4vpZ60AWtrSLlHlme875KAneG8x0tn5qcE7YJ1sYcBsw6mnZGKvfaltfpPvvS73/aMlzz5sY961k/ddXIiPcTnJHF6P84rnvvEb4PiP553+eF17clY1xwC59YVoAOHpDAIKDgAABT3SURBVAfGojezUI5wXkqjILZyGRjSIOowLctTNkTTkFAthxod7dbDX+ZiHZAHijBAmQEdhAskuZLAdZbc/DnNvs5jbVDYAyO7PKo5xts9kQpwm2UyQo3uni2JxgIfr987WOa1lildTZPH0HhSHkR51ujo7DXvzyfDeF1nSeG+NZTi+G4LaZIFePj649avqhngsrFu+tRckmtQbfUJ8d+QHzm0U48NR18dQ8JrPbYY10P1AFqCJbDm3dmE5Vhxz7svsb824fy2GQYPNVSSTEF8ZX3kY/XTPvOb3vybD9y3/HTe33PCRN+P8+zPOKuC9IjW8G9ngdADL0mCTIoO1JeyGX44xuKUzI009riPveSm5RyjZV0MK5x33F009vYwgGLymx1eZJuTHK0aM76/NtmL96JCLHeaM+Z9CdE3ANBSydzT3hHbI5t30pYlamHA9kPuAnI4YrlcwU69EXP03y3g/ipbg8FrYDkBPYonu922WmK/6SnFFQeGiULHa1a1vwNq8qTufnaK6PkQKMw0SDYtMIsgl+z6UUqc/PrHNk5XSziOrR3+kOI64pEgFd1jt9UvuYz8BUsJswAbi0m0BYQX9xzRase1h++dSBsqCij6eljvmffTvkzpjr/w93//v37gv+mn8/6cUxF9P84LX3PjzV/2p/odUsqjesebJMkTksgUKUdTGnuMXGhuNxhZeURXATjJoaMzZVQcSaqUXbqzKZqUzXTHTk1uSgfMkFuVwlXMEovLIPSlO15LyYD/l25+RXLxPFl/bXplZGZHXKZswvhmxIfLSs0Kyk7cR3k+dCx3wDrH3kY3D5eTsRgCNlYXt3Y2t4MG5kyG3YvqvBv2Se2bh4N36ww64T9zhZKtIPYiz5E7uaVWgCuQSFwuPhicOS+OlcK3fMZnGl28bIg1JvxbgeU2zv35FCn1nFq0qay1/U5v60sv7nrvf/fi1y2nCLsPsXMa5z+I8/LnPOZvTfP0LIh87jzlkj1ubTmaXlA9lYiFDGpEx+5s8mV3JvOR5BZNWDq5jesjjYiJ+5PbMUVsz1NrRrTsziZjcNuQ7oj4+ozCcGZPWnI8jn83gLBAAgMqiASm5hCFY5fJX2tKCdPOl8stDZf3LUYOuda11h5FtC6Wy8okdu5c58g7NlZ2056WhN35bHGEPvbS6dWqEWhpG2CSLDE+JTFsEUyGV89b1difxSK5HatJ7jEyj9gzsWvCLldUFX6NUvI9Uv4QCcVE6FvHLirAHkpQRBboNGccLlasx4rrj9ijN8U0JyjkqK3/TDmr//Avf9tb/8WD9JU+nQ/gnDrRD+K8+LXf+K+/6pWvnVKRfZnzfQr5CIEWymXYrQD2tJp2JZh5KLdseufno2SQUn0spNt2Pdnj8prLiOZdiRuaonDtilK8GBAb1LEHKWeJDnfelyFnSgmS4etQPOfUC8G0K6EFpRwn1ARGa2Pa5Vj1zI6LhYZQA/WqbdWAN0QMDiFeS6kVCRoqHRjm0ruiUA7laocy06iwyU3lCABzJeWcR4zfJiGe19+6Tn8vc3E//Lh+aRMBmNNYHbJdZsgCK/D802pqBlWgLYMcdP4xcHRzLCVoU01J3qFt/eZ//7ve8g0/8Mv3/MGD9X0+nQ/snDrRD/rYXfPT3/CnP7su/eWS5ZpWfUR1YkX9rkpFYndQdcaYXnmGjlDrCBh7HRFvzmq31sfaCk/Jn3cZXLKWc8K6kIixkBAy4kaG2D87XlYAtpyOWCoLSplyEFYiwOIdE/++5PbU2hSTE0LLsW7GWQQBxNG7OFFFco2FrWzgj+XYQuojGIYFbiClfZMa3d2+BLkTmzld2E7ffSopAkmm3fC1U4RPrFT9IRASJ9fFMisAoCTLxnYW85GEryDJuF2sJzKWxzF7dXdewoRBGy3lTHXt2tb6CgA///Tve9u3Pyhf39P5oM+piN6P5yf+o8d/kUI/s3f9hmlXHicQaa0LxeYAQszOUyaz+gFwjHPkV+ZsSU/LZY2xkNs+jXixzoZdGEfIdakuGUqBX5K4MnLJ4IZpw2JTojXtctgyt7Ks9dhMp6jqifmmRV0OKxRAKRm9d6xLtwV1xQrs4cYy6HkMrJDBJbSNUjNpGa2Wm7kuBoGojmsDmBxpt7cleCklW8FRexQ6qh2iWO2Ljd3H4VHfpvwnf/gog/3TCIOha4zC+ZTFZU0WljLtSqRhRcp/H6HIdWUnqjhcrJb76Zmzs+eIttaOUKmAvkVb+3tP+Z63/cQD+T09nfv3nHSi9+M53Hj4L37sv/d5v/AHP/8jl+l8+iqB/DmonNGdwlGRo7mNxPazuSSk7tId+I2sA9OkZlPSiMILVxTcYQTuUBqBHBwdGdpLfSdHTHbAvXc0Wi4dW912b7u9uXa0OTNdsts3Afoqo4temov7BWVXANfK8uEABXqQbVb4rLj2GKFTSZgwLJFceZFzjgJq3Wf3iDs6fuza7s4KjhcVEOtkKYOi7pKbQbsbJMbrp5NJIZJCBsX0p/E+5MraFRZlySneD3sUIwbN+0+IBeBnKFDkuS71l5/6gj/8wlNf8+F3Tp/YA3oUr/zaJ11IljfnnP4UBNeMJUfgeZTmcOHdcqgAcKXgcZVIxNlhyJGY9rQuzbNExYX29grovWeANIXysU7XZUbMHt16yMVZa46r+2szAMWNe45GTs3mVGIoyNBF2u+dXJqlPq6z0HBLp/rrM12qdY0sdAzAnnf2QKDulCHRrW9Sqzi6e+ds5Jbttc/JLJSBS1bfQur4a+y6H8PBhmiyvycV7mhqTvzk6M57M8iBRgvG2FHaRUxXXdIET4DKANbe797v9OsuDvU9D9/hDZ/3v779xLx/GJ5TJ/qAHsHhrtv+6le+7J5XvOK5T/yFLOkTW2tzTukRrRtjnRKwHnsIylNONroms/oxxGJyAqn5TQx4QfGblcEaEaaRvBNVkjrNcdYckh/7XQO/owh9XRpQEvbn5mxSNWH84WKJxCgWxPVYLc1fzBggYkWJ0h/tLeynOZdwVEmyrFPtI4w4sFQ+IPx/M0mJjiaTKllK1jRnqD8cYjWJp5FMcxnyLiU8gbhGpufswymlQ/5UvPgbmSSOI4910LHXCoC2jtoQnxfx2y0+ygWGvjX1N6Dri9fL5def/MPvfdWD9GU8nQfonIroA3y+8mX3vgIQrBcf+bN3v235G1/9c/e+4Sf++uNvn3P6aPCGZqtCQtl98ZQiNe+0oEDOiA5OYNpKS3S3Tk1YUDGgSKY4mee/R7do646VMKKrBobt8ni5BsNO4X+ZRr7qCFqhI8qY/ZUOIbHfbWLzjbW1DXwzZVtZzHR+wEZ0RuTFEjggXnMqgrlM2J3P0N6xrnZ9FJ7W32wLJzCCoEkmTXNG9WLJTrRTwuXYMAmt990sAEV027mIE1cW1M11JM2zCvbXJqB6yn1KUNEjoD/X2nrn7b/z3uc/75cOv/zAfvNO58E6p3H+ITjf8i1/af85f/imPz9dm19Ql/bI5VgvoHjMNHkOGkaS0u6sjKVq3TZvduN2IGLJ84BZLjlOAkMQz3GSUiJzHg0vODAslqzldN301l02BRtBp4zYT7/5u0NC5d3ZuvRBHJWEUnJ49dlFD3G/OvNvziIu4etN0XoP0T0j7ZJH3+UsyHPGytCVDZFj18F3O/nmVkujMthkdanR5OuOY5lct5XOEeunCEItMkllBMNMu2LQgkcBZseUmUmgXJKX5bK15Tmo+Tee+n23v/FB+ZKdzoN2TkX0ITw/9bxH/xfrUe5Yl/TJiv5nc0qftjub/nRyi+dyrMZ6MyoPwHb7ZEh1yLIHcUN74tBN8s8zZcmkPRojbnFctesojG1lVJypCKZdQUqWn9nW5svyUvwOVYumA4bcCDqCk+HRdb0bUx2YIRAZqUwtupJPyq65Dmuov03Dl33knxxXXo81rlWvGvIv6myPlzXUDFuyCUCw8QyhVjVcNgplEURqf4LHI2J0zj3A1aX3/muq+u4EPO4pL7j9s+//b9DpfCicUxH9EDgveebDn6Etv72c5TzN03emkh+tTT8q5VRSESyXzQkO2+lEGQ0LATvJ7EvPxkI2rgT2xH0nj7jCOfz87pdfDh735t0eMUK6lrDpOgGEB5+vIfSlrutk7iiLogiwvzahN8XhxjrCP/whMe8KdtdntKU6s26tcdmZ5/xw42jSIM8iXRfz0VJ+RLfRkCRRkSWefIXoLkkmTXvrJmljleSRhuymS8K0y1iPhimfXZ+RSxqF2PHflAXr0hYo1nlftLf+2rq0Vz3te2//+w/Nt+p0HqxzKqIfgucnv/bxX9cgz55302flItrXvqcWkovclMJ3WJc48jkdiywmTzpervZnZuo/x8+F06mzkxwUdXLGGSIjjb734bgSwXJYUUpGIYO+Nid0tuJ6GYlJbrd0hU9ABqtnceachoW1MljapVY6FrPN+ylG9/VYwRUuNChtF8YxcSnFOC5X/ll2PWtbW/j9t2tZINtFcE7qOW7KjQbr0iHQCujvSk53lZKecOOe+77yK1747l99cL4xp/NQnlMR/RA97/2WP/eIX7njbV+2LtOnS87/WRL86rr2j9GuewFu4yqJ3rpZNze7yWxx3LBmkvWnY2Y5VPP3iykA2NlawIhH9LGDrBrxd1QATLuCJILLi8VWLPuon4t4BmoPT/rsi/6qF9jq3TCTmVj8l2OL0Z773ylDqmuPgJeRRNWimFKhVJylJ7FEOIIroHvtUfCDy3PJ1eqieEIflkXaAjJQl1Z1c8Ti/NqEkgU37lvvrE2Pdbl80TNf9O6/++PPedTfubwX//xZL3/Xax7Er8vpPITnVEQ/TM4P/9VHftK1a2ffXFd9qmS5VtzySKZ4OdQYXSN930MxJmJ6nhRlf9ZtnyAOCRwPDTlbKlKeUmwMBa2NLjRPWbAcDGKYzyz4oxTxJWodxwvbyrk7m6IQMmClu7Rqt7PEJxZ/ZqFS62mv1bNa43cjJE+9aci+OresFsHhwrrVMtsIDnd6HS9WQGAxhP67tHsmgEMPpt8dNtlR1I2MygnI3qnW1v9ZSumudamvevr3ve17Hppvxel8KJxTEf0wOi9+2vXPnx52/RvLXD4+Zfk4ALOoOZsYFmxJ8TnwUQVi3O3edXGcple+uYyIDpptIdtu+aTYf4u70tUEjNBlElNMa2Lc3f58MuLKNZOHGwsAYHc+gSs9UhYsl9VIK5c9CSxLoK4eiJwTFDZaT7uCto7d8+vRsNR5nyPZfpqzBZy4T31dGta1YZoL9ufF5VvqDyWGtoxQEoFlBeSSfimhv6FBHoOmP9fr8rov+T/ueJWc7qJb+pw+/g+z8xL9Flz/+u/+9C95/u2//iP/4aO+KZXy53dT+VJlLJBwE+dYTSyu8zTMcmR91rVFMPN6rDheVkyzjebsxgx7NGF8nvLwtxfDBttqBakUzxLtzEX1YGcv5AxFplVy3hmRZdOyhtSImON64H4idtemH1ViqU7q7M6sAEf0nqsUiO9eMTE4Ltv7cHLZ3qmry/EiKaoIROQ9da2vX45NesP//BUvfPvLH/xP/XQ+lM+piN4E58e+5qNfM835Mankx+SETD1odUkQO8K6tk2WZopYPMAwyXUxa2bxtCduzaRsp0wplq2RRIqNpO5BVx22yLYOdlvEkpm2ASvM6TxerpEUxd+17axJ4JjbSMPiacVxyKCuupbG/wfg4cdXHURCc4H/f5oeXLxwWdd2O7R+59O+945/BADfAqRvBQb4fDqng1Oe6E1x/sxrP+N/e/wr3qsK1SR4qwKvg+KxAtlT/qO0PLqriLuNWFSYFp9TCsae+4hYxCzSj2HG9L1z5N6u/ZUoatnj6GgWsO5UQ5y+LiMeL0KPm45Vx47tUi3Affe9KeazYgWde6dg2KkkQU5jFXPv3TePmh5U2zAgdNW7k6Q9gIu2HH9kXdvrVdtrk7Z/+ZQXPPdLXvRlP/krvM4/f8VhfzqnY+fUid50R/FTf/PjPq+vy38CyBer4rzX9pZU8kflnB5Ra+sAJlVJKYsVqCkD3ffRz+YVt6bPWrLWeqQyTU5UcaUFw6THul+4JIrhKSNeLrpEhxw4tpeJHn77+VwkZEUU7dOF1L3DLs7Uk0Hnyg3KmhiakpNgtWzW++b9lKX1s8tj+8Nc5ExEPkpVf3ia8arDPetvPf0H7/i1h+xjO50P23Mqojfhcf6kv/jLH/H5814/4Rk/dPcLfurrP/pp0vG5recvaa0/Nkl6rEKbSLo7JTyyd9Wck5RdxuHGGtIf9b+w8f93IJXNSmjXedriOQnPvlrmR+xr58pjpj1xdG+r5YZOu2Sp+H2M3CMcRUIVQFiiFGpdR2BzmVLvXZMo0Fq7szW9lku6p7X+hpTkzpTkbe14aMfD8vzU9ROn6/vPw2X9yae/5L3/8kH/kE7npjmnInqLnR97zqP/p3Zc3yTT9JfzVH4hZzy+V/2zrcurpyl/Vdmlx9Wlv7F3fJpqf0dK6bECvEeB82lK+97MRqkQiEXcXYrgjLvjRYBUZFmPfUpJxHBJI5ZMg+rrSdyq2tYGyYLJyZ2jO4N25yV0qpJMA8pVGgxO6U1v7OZ0rVqa1IsV8jBJ8vFZ9PdSSa9Q4EltWf/w6d//jn/88q/6yC9419sPr3/uz954x0P9GZzOzXVORfR0xlHFy7760X87Twntxo23NpT3zFN+kkp6V5qmv5Km9MXoeHvK+nbtMqni05LIb6Wcnr6u9fYEUSTZpyS/17qe5YTH1qoP662XlFOappzLJFhXPeQslynJR2hXHA5VIfrTOaWPyiKf3hXo0Nar3q3aJZc8S+o/DslPSQIVkZf2js883H3Pd6Vc9gp5wjNeeOfffdlXPepv9trf8MwXv+tnAMEb//bH7z7hO950fKgv6+nc3OdURE/n3/AMzHL7z37+ax/3STdyek5f8YqnfO/tv/STX/u4z+9anpsy3vCl3/3W//Flf+0Rfyuls8ftzsuTJKXPrEu7t671Zy7vOr7wER99/b+XlB5Wl/YpT33BWx/7489++DPL7rZnK2RCP7zmd+/dfdvHTIevTtPu0d/zysM//Iq/uDzutrP53/nyF737Bx6KK3A6p3M6p3M6p3M6p3M6p3M6p3M6p3M6p3M6p3M6p3M6p3M6p3M6p3M6p/MBn/8XDbETiEK4AmoAAAAASUVORK5CYII=;" vertex="1" parent="1">
          <mxGeometry x="237" y="355.67" width="43.5" height="58.09" as="geometry" />
        </mxCell>
        <mxCell id="alU_MBT53UwqVfEiX-St-9" value="WowHoneypot" style="text;html=1;align=center;verticalAlign=middle;resizable=0;points=[];autosize=1;" vertex="1" parent="1">
          <mxGeometry x="213" y="412.76" width="90" height="20" as="geometry" />
        </mxCell>
        <mxCell id="alU_MBT53UwqVfEiX-St-11" value="" style="endArrow=classic;html=1;entryX=0.1;entryY=0.5;entryDx=0;entryDy=0;entryPerimeter=0;" edge="1" parent="1" target="alU_MBT53UwqVfEiX-St-2">
          <mxGeometry width="50" height="50" relative="1" as="geometry">
            <mxPoint x="245" y="295.41999999999996" as="sourcePoint" />
            <mxPoint x="363" y="295.7624475524477" as="targetPoint" />
          </mxGeometry>
        </mxCell>
        <mxCell id="alU_MBT53UwqVfEiX-St-12" value="EC２" style="text;html=1;align=center;verticalAlign=middle;resizable=0;points=[];autosize=1;" vertex="1" parent="1">
          <mxGeometry x="243" y="439" width="40" height="20" as="geometry" />
        </mxCell>
        <mxCell id="alU_MBT53UwqVfEiX-St-13" value="CloudWatch Logs" style="text;html=1;align=center;verticalAlign=middle;resizable=0;points=[];autosize=1;" vertex="1" parent="1">
          <mxGeometry x="330" y="324.66999999999996" width="110" height="20" as="geometry" />
        </mxCell>
        <mxCell id="alU_MBT53UwqVfEiX-St-14" value="Elastic Service&lt;br&gt;" style="text;html=1;align=center;verticalAlign=middle;resizable=0;points=[];autosize=1;" vertex="1" parent="1">
          <mxGeometry x="500" y="324.67" width="90" height="20" as="geometry" />
        </mxCell>
        <mxCell id="alU_MBT53UwqVfEiX-St-15" value="" style="endArrow=classic;html=1;entryX=0;entryY=0.5;entryDx=0;entryDy=0;entryPerimeter=0;" edge="1" parent="1" target="alU_MBT53UwqVfEiX-St-3">
          <mxGeometry width="50" height="50" relative="1" as="geometry">
            <mxPoint x="410" y="296.41999999999996" as="sourcePoint" />
            <mxPoint x="510" y="296.41999999999996" as="targetPoint" />
          </mxGeometry>
        </mxCell>
        <mxCell id="alU_MBT53UwqVfEiX-St-16" value="" style="endArrow=classic;html=1;rounded=0;" edge="1" parent="1">
          <mxGeometry width="50" height="50" relative="1" as="geometry">
            <mxPoint x="220.5" y="321.34000000000003" as="sourcePoint" />
            <mxPoint x="260" y="361.34000000000003" as="targetPoint" />
            <Array as="points">
              <mxPoint x="220" y="336.34000000000003" />
              <mxPoint x="260" y="336.34000000000003" />
            </Array>
          </mxGeometry>
        </mxCell>
        <mxCell id="alU_MBT53UwqVfEiX-St-17" value="port 8080" style="text;html=1;align=center;verticalAlign=middle;resizable=0;points=[];autosize=1;" vertex="1" parent="1">
          <mxGeometry x="223" y="315" width="70" height="20" as="geometry" />
        </mxCell>
        <mxCell id="alU_MBT53UwqVfEiX-St-18" value="" style="endArrow=classic;html=1;entryX=0;entryY=0.5;entryDx=0;entryDy=0;entryPerimeter=0;" edge="1" parent="1" target="alU_MBT53UwqVfEiX-St-1">
          <mxGeometry width="50" height="50" relative="1" as="geometry">
            <mxPoint x="70" y="295" as="sourcePoint" />
            <mxPoint x="220" y="420" as="targetPoint" />
          </mxGeometry>
        </mxCell>
        <mxCell id="alU_MBT53UwqVfEiX-St-19" value="port 80&lt;br&gt;" style="text;html=1;align=center;verticalAlign=middle;resizable=0;points=[];autosize=1;" vertex="1" parent="1">
          <mxGeometry x="90" y="270" width="50" height="20" as="geometry" />
        </mxCell>
        <mxCell id="alU_MBT53UwqVfEiX-St-22" value="" style="shape=image;verticalLabelPosition=bottom;labelBackgroundColor=#ffffff;verticalAlign=top;aspect=fixed;imageAspect=0;image=data:image/jpeg,/9j/4AAQSkZJRgABAQAAAQABAAD/2wCEAAkGBxISEhITExMWFRUVFxcXGBcXFxUVFxgYFhoYHxcXGBcYHyggGx0lGxcXITEhJSkrLi4uGB8zODMtNygtLysBCgoKDg0OGBAQFy0iHR0tLS0rMDEtLTArKy0tLS0tLS0rLSsrLy0tLS0tLS0rLS0tKy0tLS0tLy0tKystKysrLf/AABEIAOEA4QMBIgACEQEDEQH/xAAcAAEAAQUBAQAAAAAAAAAAAAAACAECBQYHAwT/xABCEAABAwIDBAYGBwcEAwEAAAABAAIRAwQSITEFBkFRBxMiYXGRFDJCgaHRCCNSU4KxwTNikqLh8PEkQ3KyFbPDFv/EABkBAQEBAQEBAAAAAAAAAAAAAAABAgMEBf/EACMRAQEBAQACAgEEAwAAAAAAAAABEQIDMQQhEhNBUvAiMlH/2gAMAwEAAhEDEQA/AO4oiICIiAiIgIiICIiAi1Tfnf602W0daS+q71aLILz3unJrc9TrwlR/3u6U9o38t6zqKWY6uiXNkH7b5xOyyOg7ggkZt3fXZ9nPpF1SYR7APWP1j9myXa9y1K96cNlM9Xr6v/CmB/7HNUaEQSQodO+zT61K5brqymdI1h/H9Fsmw+kzZV0Q2ndNa8mA2qDSJ5QXgA+4qJaIJxooi7o9IF/s6G0Ks0pk0XjFTM6wNW/hIUg+j7pKtdqfVgGjcNbJpOI7X2jTd7QHuPcg3dERAREQEREBERAREQEREBERAREQEREBERAXL+ljpRGz8Vraw66IGJxgtoh2hI4vjMNOQkEzoc30pb9N2XbdmHXNWRRYcwIiaj/3RPvMDmRFa5uH1HOfUc573GXOcS5zidSScyUFbu6fVe6pUc573klznElxJ4kleKIgIiICIiAvS3rupua9jnMc0y1zSWuBGhBGYK80QSP6JOlAXobaXbgLoDsvyDawH5VI1HGJHJdUUIKFZzHNexxa5pDmuaSHNcDIIIzBBzlSm6Kd+27TtoqFouqWVVggYhlFVrfsmYPIzwIQbyiIgIiICIiAiIgIiICIiAiIgIiIC+bad8yhRq1qhhlJjnu00aCTrxyX0ri30h968FOns+mYNSKtaD7AJwMPi4Yvwjmg5BvnvHU2heVrp+WMwxkkhjG5MaPdmY1JJ4rCIiAiIgIiICIiAiIgLKbs7drWNzSuaJhzDJEkB7faY6NWkLFogmhu1tylfW1K5onsVGzBiWkZOa6OIMhZNRq6DN8vQ7r0as/Db3GWcQ2tlgcTwBAwnxbyUlUBERAREQEREBERAREQEREBERBRzgASTAGZJ0Chzvttp17fXNwTIfUOHlgb2WAfhAUmulTbvoWzLmqIxub1TJj1qvZnPWG4ne5RJQEREBFUCdFmNn7OggkS7gOA/qgx9Kxe4TEDvyVlS2e3Vp/P8luVCwES/wAhwVtTZ49knwIWfyjf4VpKLYLzZgntNwnmP7hYm6sXMz1HMfryV1nHyoiKoIiIClf0Tb2f+RsGOe6a9KKdadS4eq/QDtNz8ZHBRQXROgzeD0XaTKbp6u6HUnufM03RxzGHweUEn0REBERAREQEREBERAREQEREHE/pKbUinZ2o9pzqzvwjCz/u/wAlwhdI6fr7rNrOZP7GlSp+8gv/APouboCIvt2Zb4nSdB8Sg+vZdpEOI7R0HL+q2W1twwd/E/oF47PtwBiOp08F9q59V255z7VAVyAqiy2ETl+a+G72fxZ5fJfeChSXEs1pl9s7VzB4j5fJYtb3eWuPMZH8/Fa3tCwmSBDhqOf9V0l1x65xiEQotMi9KFZzHNe0w5pDmkaggyD5rzRBNDdnaYurS2uAZ62kx501IGIGMpBke5ZNcv8Ao9bT6zZrqRB+oqvaDwIf28uWbnZfNdQQEREBERAREQEREBERAREQRG6U7jrNrX7pmKxbqT6gDYzJ0wx7uGi1VbP0msI2rfgtLT17zBEZHMHXQggjuIWsIKgLZNnWoGFvLMrC7Mp4njuz8ltVjTynmfyWeq3xNr7GhXuHJec5q/EubvYvaVRyo2ERFV5yc1eQrOaC0SvC7t8WY9b817lWuKNZsattKy1ePxD9Vi1uN7Q9oe/5rWdoW2B0j1Tp3dy6y683XOV8iIirLtv0aLg47+nORbRdHeDUBIHvE+5d2Uf/AKNdN3pN472RSYD4lxw/AOUgEBERAREQEREBERAREQEREEXenXZrqO1qzjpXZTqt8MOAj+KmfMLnykJ9Ijdt1W3o3jBJtyWVAB/tvIh3g1w/nKj2gyuxm5OPeB5f5WX2Dc4mO5hx8jmFhLO6a2mR7WfvnRffuNR626ZQxBvW9mToCAT+hEcSQs9enTx3/KM8xpJgZknQakngFtGytybirBqRRaftdp/8AP5kLddibvUbYdgS46vdBd7uQ8FmmBeLvz/xfS5+PJ/s1623QtKNNxLOtcATieSc4+yMoX3bJ2VQdSBdQpSdfq2ZhpMcOC+zalF76cM1nMTEjkvPZlao3DTdSIEesO7mvPe+rfutfhzJ9R8t3ujZVNaIb3sJZ8Bl8Fgb3o+pweqrOB5PAcPNsR8VvRCxmz9sUa76jKbi40/WyIGpGROuYWue+56pPFOpbnpzW93Ou6ejA8c2OB+Bg/BYGvQcx2F7XNdycCD5Fdze1fNdWbKgioxrxycAfzXXn5F/eJfjz9q4HtWrgovPPIcNVgbm9a+nB9bL3Hmtu6XH29Ou23oNwloxVQD2cTgMAAnIgEkjTtBaAvb47vOvm+b66z/giItuTu30abAhl9XOjnUqTeUtDnO/7sXbVqvRlu76Bs6hRc0CoQalWBBL6mcO5lrcLJ/cW1ICIiAiIgIiICIiAiIgIiIPK6t2VWPp1GhzHtLXNIkOa4QQRyIUYOlPo6qbNqmpSa59o89h2burmPq6h4ZnInUd8qUi87m3ZUa5j2hzXCHNcAQQeBBQQgV9Cq5jmvaSHNIc0jUEGQR712jf7oSe1xrbN7TONu53abA/23uPaB5HPvPDjl/Y1aDzTrU303jVr2lrh7igkZuXvNS2hQD2GKjABVZxa4zn3tMEg/qCtkaFFXY2161pVbWoPLHt8iOLXDQg8l2fdjpatarWtupoVcgSAXUnE5SCJLeeeQ5leDy/Hsu8+n0fF8qdTOvbowCwm8W3Kts5gZbuqtcCS4YoBmA3Jpz8VlrK8pVmh1Koyo0wZY4OEHTRfSvPPq/cennrmXbNaJV2ntC9GClR6qm8QXHEMjx6wxlroOK2Ld3YjbSnhBxPOb3czwgcAFmSvm2he0qDDUrVG02DVzyGjPvK1etmSY3359n4yZP77esLTukHfWls+nhbD7l47DPsgz9Y/kBwGpPvI17e7pdpsDqdi3rH6dc4Qwd7WnN3iYHiuOXl2+q91So4ve8y5zjJJXfxfHt++vTw+X5OTOfa24rue4ve4uc4yXOJJJ5kleaL0o0i4wAvc8DzXXOg/o/dcVWX9wz6imSaTXR9bUGQdB9hpk97gORXPdl2VvTuLc3Zcbc1G9bgnFh4xGcc4zjTNS33d2la3FvTfaPY6jhAbgyDQBk0t9kj7JAIQZJERAREQEREBERAREQCVi6u8dk2cV3biDBmtTEHkc167ft3VLa4Ywlr3UnhpGZDi0xl4qMlG6a0NBpNJAjv9+SmrIkgN7dnzHpttOQ/bU+OnFeo3msYJ9Lt4aJP11PIHnmo2m9b9034fJV9Ob90z4fJNXEkqu8dk2cV3biBJmtTGWWevePMKz/9TY4Q70y3wkwD11OJiY15KOAvm/dM+HyT01n3TPh8k0xIuvvfs9gdN5b9kAkCqxxg6QAZPgFGLpB2/W2nevuDTc1kCnSbhMim0ktnvMknvKyZvmfdN+HyT05v3Tfh8k0xo/olT7Dv4SnotT7Dv4St6F837pv9+5U9Pb900eXyTTGm2vpFIzT61h5sxtPmFmLfevatMQ25uc/tFz9e90rNi/H3TPh8kO0G/dN+HyUsl9xZs9Viq2+W13DO5rx3DCePFoBWAuvSKrsVTrXu+0/G4x4nNbmb1pGdJvw+S97O9oyRUpADmBMeMZqSSeoXb7rnTmkZEQVRbPvrZNa8OYOydPA/1nzWsLbFXU4kTpInwWXfd06Y7MHuH6rDIg9bi4c8yfLgFmN0N6rnZtcVrd3IPYZwVGj2XDzg6jgsEiCY25m9FHaVsy4o5Tk9hILqbxq10eYPEEFZ1RW6Hd6jYX9NriepuC2lUE5Akwx/4SfIuUqUBERAREQEREBERAUZN8dnC2vrqkAA1tQlo/dfDmjycApNrh/TZs7q72nW9mvT5e1SgH+VzFKsc8lEhVIUVaAqSrwUA4oDWqjggQuQXTkqFUBVAUFxVqqUAQUaFUpCoSg99uU+stAeLcvL/HxWkrf7QYqVVh5SP793xWh1mYXEciR5KxKsREVQRZXZTAWOy1MfBYpAUsOiLb/pmzKDiZfSHUvl2Ml1MABxOvabhOfP3qJ67F9HHbWC5ubVzsqrBUYCcsdP1oHMtdPgxBIFERAREQEREBERAXOem7Z2O0pVgM6NTMwJDagg58BiDMuccl0ZYrerZvpNnc0YBL6bg0H7YEsPucGn3IIxFURuauKy0tAVwKtIQoNx3R3SFdorV5FM+o0GC4DUk6geGq3q32NbUxhbQpAf8Gk+8kSV77MLTRpFvqmmyPDCIWl7U35q0rl9MUmmnTcWkZ4zBzIdMDuyVRtVfYFrUHat6fKQ0NPm2CtO2/uGWBz7YlwGZpu9aP3XcfA+a2ba+3xTsxdUgHh2HCDIHaMGY5Z5dy891d6W3csLcFVomAZa4cS34ZHnxQcowqhyW89IWwWU/wDU04GIhr2ge0Zh48eI960clRVsI1VSEH1bMrQ8A8ZHyWq7fo4azhzz/T9FsNIwQeRB8l8e+dvDmuE/5/x8UhfTWUX0WlqXnkOfyWS+qpRMT5n+i0yt2S04TOWf6L4TYVPs/EL6n7VHBvmV4naj+Tfj81FfG9pBgiCFtfRReGltaxcDE1OrM6RVaWEfzecLVa1QuJcdSszuMzFtGwEE/wCqoZDI/tGzmqiY6IiAiIgIiICIiAiIgjHvbs/0e9uqUABtV5aBoGOOJgH4XNWJK6D02WGC9p1eFakP4qZIPjkWLnyy0oqqjQquhBv+4+9FNtNtvXcGFvqPcYaWn2SdBHCeCyG8O5rLp/XU6mB7vXyxtdAgEQcjl4LmC3Po12oGVH27nQ14lgOgeNQPEH4INvobAYLT0RxJbhILtDJM4hyzz9yw2wdyjb12VjWD8GKAGYZlpGeZ5rO/+Y/1nopZrT6xr8WvMYY/XgvG926Kd3TtXtgVGgtqYgBPa7JH4Y8SFUY/pBvqQtX0i9vWOLIZIxCHAyRrED4hcvK2Dfq0DL2pEQ8Nf4EiDPfLSfetfEqKQqK6FRBRbJsCjSq17TrmMqMc/A4VBLZLSG5c8UR3la2QshYvPVvwmHMIe08iMwR72qWbMa5uV2q33cs2AtZa0ACIIFKnmJORyz1K5R0odHIoB95aj6qcVSlH7OfaZ+7Oo4eGnYtm3QrUqVVulRjXD8QB/Ve9RgcC0iQQQRzB1C+dx5OuOte/vx89zEQ0WY3v2SLS9uLdpJbTf2Z1wuAc2fwkZrDr6cuzXzbMuC6T0DbBNxtJtYtmnatLycoxuBbTHj6zvwLG7n9F20L8h3V9RR41aoLcv3Ges4+Q7wpI7o7r2+zrdtCg3IZveYx1HcXOP6cBkqjNoiICIiAiIgIiICIiDnnTZs7HZ06wGdCoJ/4VBhP82BcQlSZ3ysPSLG6pZS6k6J0xNGJp8wFGMLNai5pVIQBVDUABXFqthXFyC4OIMyZ5zn5qlxWe44nOc53EuJcT7zmrQEQXBFaCrkCVSVXRWEoC+zZj4eBwMgr41fSdhcDyIKK6juRvRa0rZlvWqim+mag7QcBhxuI7WkwdFTb/AEkUmAttm9Y77bgW0x4DV3wC51tRnbke0Af78l89tbPqvZTptL3vIa1o1JOgXH9Dm9bXX9fqTIvo7KffXENp9bXrPJOWpJkuMZACZJ0C79uTuHabPpNw0mOr5F9UtBdijMMJEtaNAB781To/3NZs+lLodcVADUfA7OQmmw64QRrxOfIDbV3kcLRERVBERAREQEREBERAREQUc0EEESDqFG7fLdurZ3VZvVPFEvJpPwnAWuzaA4ZSAYjuUkkIUVFAUXZ9l2WuRyjWfMeavNrUkjA+QJIwukDmRGilXCqmGooCi7g06ToeGpQ0HEHsuy1OE5ePJSuwjkqwmGooCi4mA108sJ5Ty5Zq70WpJaab8Q1GF08NRE8R5hStVITDUUuodMYXcownVDReI7LoOnZMHOMsueSlaQkJhqKb7aoJljxGstdlOk5ZKno74nA6M88LuClciYaik2g86McfBp/viPNDQeNWO97Tw1UrIVUw1F9tvWuOrZSo1HuAiGscfDw967F0a7iehDr7gA3DhAAMik06tkZFx4nhoOM78iYaIiKoIiICIiAiIgIiICIiAiIgIiICIiAiIgIiICIiAiIgIiICIiAiIgIiICIiAiIgIiIP/9k=;" vertex="1" parent="1">
          <mxGeometry x="-10" y="255" width="80" height="80" as="geometry" />
        </mxCell>
        <mxCell id="alU_MBT53UwqVfEiX-St-23" value="" style="shape=image;verticalLabelPosition=bottom;labelBackgroundColor=#ffffff;verticalAlign=top;aspect=fixed;imageAspect=0;image=data:image/png,iVBORw0KGgoAAAANSUhEUgAAAR4AAACwCAMAAADudvHOAAAAhFBMVEX3mB/////3kwD3kQD82bn2jwD3lxn+7d73lhT84sv3lAv/+/b81bL3lRD//vz959P+9+/6v4X6w4370Kf5uHb3nCr4p0z5sGP+8+j6yZz3miP6wYr96tj6xpP817T838T5smj4oTz4oDf4o0H4qVL83b/5tnH6u3z5rVz5smf7yZn2hwDpyfC5AAAQJElEQVR4nO1dCVfqOhDGxMZSKIsogqIoyqLv//+/R4FkZtKkNAtLvX73nHuO1kL6dbZMJpPWzR8q0Lr0AK4b56an1ynQO/O3euNc9NwtR8Onz8eU8WT7j+XPH5v1z+2sc6av98UZ6Jm8rT8SvqUkFaIlIUSaZ1uuxGrUv2JZOjE9nduH1pYYoEWHyBlnm9HktMPwxinp6XS/El5BjcJW5R5f7044Em+cjp75N2fpcWqkFGX8Y3R9WnYiejrTlNfn5sAQ4+trE6GT0DMYclZDp8rI+aZ/igF54wT0DNZJ5sPNDikfXxNB8el55f7kFBD86Xr8WGx6bjMWRM5OgpLhtRjpuPRMxtzL5uhgYh51XN6ISs80cfVWNgj+fRXzjYj0DMY8EjkF8vwaBCgePUvnQKcaIhlGG5s3otEzjCk6e7DxxRUsEj29qIolkWazOMPzRhx6Jo/5CdgpLPQyyvi8EYWemd8Uog6SUYwBeiMGPe04wY4Z/D7CCL0RgZ55cjpyCn4u6cDC6WmfwihfCz/B9PRPKzs7fl5jPKkXQum5O7Xs7Pi5mH0OpGdwOp+FkVzKvwfSs4g7kbCCXyjLGkbPJizzVR8ivcz8Ioie6TkMzx75V6wndkIIPWdwWoDLhIcB9PTSs5hlieQSKfoAer5PMw21QaQXSED707M8n+HZI3uI+Nw14U1PL3xFwhVJO+aT14I3PQ/n8ukA8RzzyWvBl57ZuVWrALNMvk5nlHzp+Tyr15LgAzKIXn803Cye0zx9XnytR+34oaMnPbeXEJ5tcLiCIdxNx4kqOSuKzRhPPmNXCXnS83gR4YG5V2/0aSoCERlfTGPKkB893csIT6uVPhVf37m3F8gIlgwHx8Z/YnqeLyQ8W+e+FZ+fIzUgWbwJiBc9F7I8BfJVv3U84mJZpASRFz2XcVt7pLUScIKvjj/GiejpX0546iN7jlFE5UPP6rxzUU8IHmEO4kFP55xpnhAkt5egZ3T+yagnwvnxoOeShtkRSWgJlTs9kyYYZonQFQ53epqjW1uIVths3p2erzMtbcVB/nReejpN0q0t+NtZ6Zk3jJ4WC5nBO9Pzcv4kahiy9Tnp+WiOWz8gCZhduNLTNNPToinGU9PTiOmoBu4vPq70NCrqOSDzz4650jNsxGxdQ342esaNs8xb+Kc2XOm5XJY5ALm3b3ekp9eUXA+B/+qzIz2Nmq4DvH2XIz1N9OtbcN+8mCM9Zy/qiQNv1+5IT7eBYU9LLq6enp4mRoVbiMV56Jk2k54WOw89P01LZxyQnIee14bSk69eu22Pwo1/RLlaRScu/rwaOa5c/CPSs0fRiUu8uOxudqFnNhRNFR6AyPjjtLaa1afnbVGrD1gDIFiyqilCdenpPp9yu7E30oxLVPW3KyHnm1pWqB497cea5AiOoGsiXNE/DN1WSrcx6105z5+my7vJoNOZ3LW7Q2M1pg1p8l5DxerQ0/muKzli028DtBkIVxf6X/TzxFjd1tfTkXyuLtFy2Iyv9T06g27d11gg5z8x6Lktv1EbGN0TS90cKge4p1eyF7hHW2YUj+pKD19J+atx9Xz57OBb2eMxE3ScngeHSbqWV3kny/EMlnPfqFyxLtyjZZTSjbqCkyns05rBeXcYrzhWw3qMnsHCwZejV70D1a4ctutrOzI41hKaj0SChabDvCo7+uKSdGEflRboCD2zzKUeAytJASoJYqwuaPV3ZKsEra5CgvWgdJxr36Ph3WU1JWVVJVLV9MzdvHlpRYAm7jPLBSHwPQ/k4ThYB2WZs/fKQd/cCKdRJ1NPepaOiXemW8s1fVSwzU9YKGmyiqaUQLDU8rWWWO/M2n0thnEsS0/sqlpFz60jO+WcHB0ng4wvmbvRVCdtWQISpywzx9rQXSRFSJQ8EcF1XG7i1mRiBT3OjWeUW1dCNKCPCjTcYhFhpEKJ3IMcl5Qq8Ql/2/mU2p8muNDANS3FbLvk7fS47/dTbn2pvO6C2BgYBOlMwmn0gW9BjEqbhPtl4Z5ceJuA89gzCz9Wetybh4Bbf1FPQIulIKVJ6mASarLwOjVyXJJpZOCGxEzhje7OmQW2uTHBSo/7hjZw65/qndMYGEWN6OP1aAlPKyAikoQiA6fVGqXf8BnutdfMWAVko+fbPe+l3HovUREOXXRGeoECat2i42AyUYWB0jIzcMO6g0IJ5ZV7+ayxiZKFnpHHcp9SnTaHgZKKjgxGgIxnpo0LTR6QYEnLjPyWXuaIAgefOhvTFgMzPT49nUAIphnoBPEhyA+h5VamDQu5LnSDssyW4KlF5iZeKyqGEnozPQuP1BfM1r9S0AC6KJ+aXoDaPiuvIcECxyWNFbJfG50eECwvegyFHEZ6Xn1SyjBuht+6JQZGM09ZeDyXdgYeGyIiZYbRR5SkB0LDqdeSQVYyzyZ6vKpUwEwUAgPlauQZ0PtVAqpunMrwB7JBEBFBzAzSs9YNDE8kPBdUSj1ITfSMfXZNgFsvjCioMZlCZZCfU1sKUznBXEkbBNkg3il9DKLnBPUQegm9gR6/IhWQ7EI3IJwjVh6FJmpBUVH2IT0YxLxgq9Q8HoXYA6+BVkKvgTbQ49fhgKv7Of0arAHI+KmAUQk0k2KksqYoIlK6iCuZ1vHFR8vJlOnxCXnwk+zevYDPJfmbRBlWZeCkHk4SVWUiuYCICAJkEiU9Rt88pZW6lOlxyyVJgFvfWwkwESSvDC9HtUeSIWSbc+naZUgNjgviA5Rz3LL2GH1Rm6O8t4Eez/YYQMf+2SDWI34QTQkOe1dUfmLElFmRUQvYGZxnJsnhVRJ5dZKmLkv0+ESEJPrf34/y7tiWIZt0UDr1m3WuKJXOAWZcSEMZzX32PyO38CcNWnV6PNsLQ3h78FRIh/H8B9nmg0Cop/0U6kPkZwDnmGKUst4T9O15YJEZJHbW6dEj0ZoAmyKDEQhZSKAAvz64LhUpJijW3l+Cn0nqIiv1bx6MPpIsGkM4NtToGXhWvYNbl+EeBMhk1QamjQebJI1W8aOSi72Gg0jSmZtpd/rd63P9xdxqYOOv0eNZeYoCFDlG5IBxbgotM+9Zk5QUwqREa88xmHdtWObd6f11JCVDH6/R49nhAIJk5afQO8DLEjn0ZtylgsTH4aciilaitQ+pwXHRtS9795DuIkaZDXqzlB7fLROmKAf0DZt7RcdhRqnoKgRGsby3S2CnSu7UWlyxjFDAhlwCpcdTt5CbQiu9ysqQBpmQd999mVK2ggEVDUxo5G3YwMo/bMUVTkvsZoB2UXq+/fwWWlsHD4ysDM5bgcbshEpa8B2FsNJT/AQGzbTRRfBvS31X+LEZEFpRejwFE0wB0k5krnG5L7C2m3Bjx4XkpbBLYALMQp0mX+YOYZNQCw2vidDje2wAmBm8+gkpMbwqh3bmCXTrPjhSE4bCLoHjerC47JSnQ1MX5+DjD9Tsj9Dz5unWIYuDE3jIP6LPRbZ5KyLKv+2nWUoMdyk1pYYVKZac54ZCZb+sAxq6/EhCz73f/BctZeIHQb/GFTfqzRSzDSVL+79QmlfYJWXEj3Tjyvjjvc5QYAsmlSog9HhaZnDrJOhGIQ5Oe4JQbX9LHBfSvK1dAnd4dAti0QuUmqHAk2mU2SP0eM7Wwa3fJgzAIRWK4ymSxFHatOcVYskMmfY64YbgY5LoaAWJTy4Tl4Qev49Ei1H9LgY6AhopHaQ6tiIibbE0pmp5dZOC47JZZoqUYUcf1ihGvSZMj2d/8zqb6JHJRrMNrnJP0uMpPX3JwHHVFGqBlxnC2gwphcD0dDzpOc4OSWpAGcsmk1TJaZma53eZslG1m74olbgJ3VGuphXh9NTaxoptNtjmF3X0lsouS1Pd52rGRS0zbKIo+xHUqacXplwyJRZODyO5axuQgoDWdBN5rywGVN6uk6ikHV1InC5v91iWM3c4z+rzKAoR6anXYeDFVFfQ/+8Q80LV6Ye89qyEklhmtApYLlJBS/thrisePTX3QCNTCTOazn8HxwWzDlUat1GOi8TMqEilTA9OEwf1QolHT80GAx2jbZaREUzVlCwOZXikFZhV0YPrw65EepBbb/9MNaA1EbRHCdRRWmZUkyGj367kgVpmVONhiBYRPUFhodFzecU9yK0/8YyCwUIVLkiCpQBpSCAhpAoS+vJWygLKIhlKJVDpa1DSUJnA0KgZl4OWfSl610gI9GJCbF7Sd/0ajZlR5q1coIFMc2DcY4qafXoSIrduqLXGhslYMXh41WBe9CpePWZGpePlaLpatByglm4JPfUmNwTIrRtaAKDkDlpgpMvYN9S86O0c9JgZKXOpHABy94Et4JSKE3rcexxgt25qxYsGbK0isOU7ytTtrqP0oCY+eHU87BgWZR0JPe5ZEqQ9PdPNyPjgWlRtmRNPr/UyXt0/4TZpNKnMkRkMPABK6QShx71JPnbrphHh/YEQiWTaBjO8kqHb7ZLC401jE9h5nCd4i2DgYQgqU0VXKpy7EiJLYczEYuMDD6rPYvGz6NfK9pesAL6ND3vmV1gpAzvAQZ6T0vPjaHywWze7PWR8UKI/Jd9KPLTmugydADmtHu3M5su5lmsO7EgOgRmlx3UFBLl1S5koqgZBr5TaZi0u7tiv7ZAePcH1J3ShQumvVoLgGPkgt24JNFCVGPImNMFI65PJrm1jnvnIRuTgE45QWi2ogAW79VKJevlPIBahBXA0RqFbJ42hWPXm/G5oZ0708jR6jN7ZChwU2wINpEcgYLS6mnbUoCkAc56Z27dq91ahS6TY+unFc04rgUgPJrZXhowPBMDU/lI7SqYctjxznlr6WI5YcI0YLt3V6XEqxOd3CtYtMPnDRP7NBCwbn8GtuvUVE7h2a1N2wRej0hECs/ssQnUPnvKUCnfvXb4A2u7YhS43tu3BfX7sn1pqAYQfgyWf98vZoNPr9TqD2Xz6zo4cilcP5GCLEj0XOMzXG6JoJ8fZ7n/O4pQ30+RwedPAW/x9Lk0CPdfcsCPHazvXb4F2bLeBnhNsk2oM9BOZTLsBL3Yo6+WRaMVmxq22q0b3tgxAaau/eaN2/G1kjUBeaqRhpmcQbwNHg5CWlgFsTSJmjTxwIQwiL3dZs7UYCSzOayCEqZbC2qDGufdTwyGM23zs3Z/Ca++bBMGMWxAqeof1/yF+UmGuUqrqPDd5buJpUz7IPiznK1b2LeyN/w0DbU8+HmkKeh97m/gVQvCR9fmPtZRtZ79dwdhjRd/vow2Je++/2kILXtr27UTPNgL6BecL2MAX1Q2ta/WK/4mSxL0+sMxudRzouRmsk99ngjJ+f/Q08roHMQzWv0uCBGP3Nc6Srn+Mx+A1i9zr5HLIeWtU6xx7pzNylptYyyWXRMrZe92DSh2PEBp0NwlvcK5MZDx5v61/QrvzgeM3vfnLh+ORK9cAkeaMs/Gr2wG37vTsKOqPhl9pcljovW7sB5m0NsPurJa9CafngMldey63V10vlvP+ncfBbuH0/H780VOJP3oq8UdPJf7oqcQfPZX4o6cS/wOBCu5pQw5qHAAAAABJRU5ErkJggg==;" vertex="1" parent="1">
          <mxGeometry x="163" y="241.5" width="32.5" height="20" as="geometry" />
        </mxCell>
        <mxCell id="alU_MBT53UwqVfEiX-St-1" value="" style="outlineConnect=0;dashed=0;verticalLabelPosition=bottom;verticalAlign=top;align=center;html=1;shape=mxgraph.aws3.ec2;fillColor=#F58534;gradientColor=none;" vertex="1" parent="1">
          <mxGeometry x="202" y="270" width="42" height="50" as="geometry" />
        </mxCell>
        <mxCell id="alU_MBT53UwqVfEiX-St-26" value="" style="shape=image;verticalLabelPosition=bottom;labelBackgroundColor=#ffffff;verticalAlign=top;aspect=fixed;imageAspect=0;image=data:image/jpeg,/9j/4AAQSkZJRgABAQAAAQABAAD/2wCEAAkGBxMTEhUTExMWFRUWFhoVFxcWFxgXFRoWFRgdGBgXGBoYHSggGholHRcYITIhJSkrLi4uGB8zODMtNygtLisBCgoKDg0OGhAQGy8lICUtLSs3KysrKy0yLi0vMC0tLy0vMCstLS0tLi0tLS0tLS8tLS0vLS0vLS0vLS0tLS0tLf/AABEIAMkA+gMBEQACEQEDEQH/xAAcAAABBQEBAQAAAAAAAAAAAAAAAQIDBAUHBgj/xABLEAABAwIDAwcIBQgJBAMAAAABAAIDBBESITEFBkEHEyIyUWFxI3KBkaGxwdEUM0JSYjRDU3OCksLwFRYXJFSistLhZJPi8TVjg//EABoBAQADAQEBAAAAAAAAAAAAAAABAgQDBQb/xAA0EQACAgEDAwMCBAUEAwEAAAAAAQIRAwQhMRJBURMiYXGBBRSRoTJSwdHwI0Kx4RVi8TP/2gAMAwEAAhEDEQA/AO4oAQAgBACAEAIAQAgBACAEAIAQAgBACAEAIAQAgBACAEAIAQAgBACAEAIAQAgBACAEAIAQAgBACAEAIAQAgBACAEAhcEAmMa3Fh3oBhqWffb6wgJQUAIAQAgBACAEAIAQAgBACAEAICptWtEMMkpFwxpdbt7B60Bzl++VaW4sTGgngwerO+StRWzMq+UWdjsL6qNhtoRGDnobEJSFsrHlOk0+mx+qP4NyTYbkT+Ut+prm8dMHtwtTYbkQ5TT/jjl+H08W5/wAhNhuRnlMsPy5/qdf/AE3TYbkLuU3/AK2T0Yz/AApsNyJ3KUDrWTeuQe5NhuQv5SBxqpz3B0nE95CWhTI/7RWW/KKjwxP/ANyWhTIjyhszvPUG/wCJ/q6yWhTGHlEZpzlQRpqfi/RLQpkTuUKPtnOfb7bY0sUQu37hv1Jf8t+z7yWKGP36iJvzUhPeRx1zSxQ079RfoXetqWKLWx96Y55BHgLHG+HMOBI4aZGyJijuHJpUudTOa5xOCTC0Hg3C0gDuvfJQyUeuUEggBACAEAIAQAgBACAEAIAQGRvb+Rz/AKsqUQzlJPkG+d8SrFTkLNmyVM81nNu0ucTI4NyBPasuo1EcNOSe+2ys4anVQ06Tkm722Vja7YL4mhxkiILgzovBzIBv4Z6rni1kcjaUXxe6OeHXxyycVGS2vdf5uW3bstDi36XBkGm4cbdJ1tbcBmuK18mr9OXc4L8Tk4qXoy79vC/rwVJtkMbLGw1MRa+95GkuDLfeC7R1MpQlJY3a7Pud4ayc8cpLHK12e1/QsybEpwSBXR5G18Dsxhvf15LktXmav0n+qOMddqGr9B/qvP8AjIqqipYmny5mc5l2c2LBr76Pxai3Z2K8MuoyNezpSe9918HTHm1WWS9nSk97fK+KMVbT0AQAgBACAEAIAQAgNfdP8rh84/6SpRDPpnkzeBTzEmwEpuTYDqNvn/PBGEVt5OVrZ1K4sD3VEgyLYAHNB7C8kN9RKgk8VW8vb7nmqJoFsjJKSb8bhrdPSgKEfLbtAgHmaXt6kml9PrOyw9CA9Ju1y1xvcGVsPNZDysWJ7L8S5lsTR4FyA6LTbz0UkXPMqoTH97nGgA9hubg9xzQEtFvBSTG0VVBIb2syVjjcZkWB1zCA0kAIAQAgBACAEBk72D+51HDybuNlKIZygnyA875qxU5BT00DpphUTOiAc6xazHc4jcZLJqJ5o16Uer70cNVkzwS9GCl5t0Po6aisznJ5ASHYw1mhB6Nr63C5ZMmqt9EF2q3+pxy5dZb9OC7Vb/X9AiZQhjg505fi6JaGhpZfUg6G1+1JPV9SpRqvnkiT1zmnFR6a3u7v/wCkzYKAeUL5HN53DzWQfzeHrE6XuqOerfspJ1z2vwUc9c/YopPpvq7XfFfQjE1BZnk573OM4m5ixtb02VunV7+6Pxsy3Rr/AHe6Pxs/3MR9rm2nDwW1cbnoq63EUkggBACAEAIAQAgBAam7DwKqInIAkknQDCc1KIZvbX3immaYQ9zafEXc0DZrnEAYn26xsBkchb0o2EeadqVBIiAuRdUeCECoBszRY6ICmWhCTrvJjysuhLabaDy+I5MqHEuezsbJqXM/FqONxmAO9NcCLjMHMFAKgBACAEAIDI3u/I57/oz268NFKIZyhzBzDe3F81YqcUrWkzPAzJkcB4lxVG0t2WbSVsty7u1Tb4oXC2G+n2zZvHiQssdbglxJd/25McfxHTS4mu/7ckrN1asuDeZNzitm37Bs7jwVH+I6dK+rx57lH+K6RJy6/HnvwWH7oT4GObhJe0uLbgYbOw2uTYm/Yua/E8XVKL7d/JxX4xg65Rd7Or87X9vuRUu68znG5aA2QRvs4OdckAlrfta8Fef4hjilV7q1t/z4OmT8UxRSq7atbNL7vsM3h2F9GP1mK73N6rh1eNzkddBop0ms/Mdq2T58ltDr/wA0v4a2T5Xf9zFW09AEAIAQAgBACAEAICxQDp+APy+KA0kIKb9T4oSNQFyLQeCEDigGTaFAVEJBAd35Ct8jIwbPmddzGF1O4nMsb1oiTxaLFv4QR9lAdgQAgBACAEBk72OtRz/q3D15KUQzlD/qG+d81YqcVqZy2WWxsHOcDkDljvlfQ3AzGa5Tipc9hOClV9jSr3REAMq5Xuc5rTjxBoZYG5N+DiclixLIt5Y0kk+PP/aPPwrKm3PDFJJvarv/ALQ7+jmXlvXMvH1esRJdtzhN9eHHNR68vbWF7/TYj8zOoVgfu54237/8hDSQvLY5a3yYjDmnC4hrnnpMtwtr6UlkyxTnDFvdPdbpcMieXNBOePB7rp7pWlwxHUlIy5bVvJGItwscLkEYfWL+FlKyaidXjVbcv9SyzaqdKWFU65a+5LUPpDKxj6meSENcbkG7Xk3yB7dSVSC1Cg5RxxUtv0OeNauONyjijGdr7r/oqxxUILcT5nDnHBwDWg83Y4SL/avb2rq5atp0o8Lzz3O0pa5p1GK2Vbvnv9hGChxyXM2Do81YNufvYvgj/NdMa6b3vn7US/zvRCum975+1CB9EJz0ZnQYchdokxdp4W1U1qni5ip/tRPTrXg5ip381QtNVUTcWKCR93Ow+UtZp6gNuI7VE8eqdVNLjt37kZMWslXTkS2Xbv3JI9oUQxXpHOu0Bt5SLOsQ45d9iqvDqnX+pW/grLT6x1/qpbv/AG9uwxm1acMw/RGl2FoxY3XxDV3p7FZ6fM5X6jq3tS48fYl6XUOfV6zq3tS48fYdBtcMlkkZSR4XiwY5pcG2GrT28VEtM5Y4wlkdrutrInpHPHGEsztd06v6lStkfOWYYA3C3CBGw52+0dbnNdscY4k+qd2+7NGKMcCl1Tu3fua2+B/9AT82JMIwlhk6wvhabG44G/BV/OYuvove6+5T/wAhg6+i97S47s9JyT7sCsqi548jCGvf+J17sjPcbEnuFuKvnydEduWepgx9ct+Ee45U9zS7FWwNu4C87Bxa0W5xveABcdgvwz46fNXsZ11GG/ejjsmpW0xjUBbi0HghA8oBkmhQFRCREBr7C2k6mmhqG9aF7ZAO0NNy30i49KEH15TTh7Gvbm17Q4eDhce9CSVACAEAIDI3ut9CqLi/kypRDOTPJ5kdmL5qxU4pX/Wyee73lULljY5psR+kiQttlzdr3778Fn1Hr9K9Gr+TLqlqelfl6v8A9r/oTQS0Yc7EyVw5wFvSA8lxB/EqSjqWlTS23+v9jnOOrkl0yinW+z/i+PgJn07zE2GCQOx2cC7EXgnotHYeCRWaHVLJNVW23AitRjU5ZZqq22qvLZZ2vLTtdJGKR0bw0NAMhJa8G5d35WXPTxzSUZvImrvjlHHSx1Eoxm8ykrvaPK8fBVq6+BzIwymDHsIL3YicYGoI710x4cqlJynafCrg7YsGeM5OeS0+FS2FrtqRvbI1tLHHiLSCL3ZhyIF+34pi084uLeRuv3GHS5ISjKWVyq/vf9iw6tIibH9CYHR4XGQsdiIGYxdxXNYk8jl6rp2qtft9DksCeVz9Z07XTar7fQbS10zpn1MdMx1h0mtjLo2gi17cNLqZ4sccSwym183uycmDFHDHTzyNXw3KmzUkZUsEdVzVMWRxYxkLOa826QBzcCfQsqeCTlh6pW3X3X9DFF6eblp+qacpV9GvD8MyaneWV9rxw2DxJYRgZttYeblotcNBjhw5cVybsf4bjhxKXDX8Xn+oyu2++TnBgiY2TDcNYBbDphPC/FWxaOEOl221fL8l8Oghj6H1SbjfL8+SZ+91WQwc4Oh1bNblkW9nYSua/DdOr9vPy/qcl+EaROT6eed39SvT7xVLMIZKW4cVtMsZxO1HErrPRYJ31R5r9jtP8O0076oXdftsir5adxID5HE54QXZuN9B2ld4Y4wSUUaoY4QSjFUkfQ3JdsP6Ls+MOaWyS+WkByN39UEHSzQ0W7brBnn1TZ6mCPTBHrVxOxyDlf3SghYKyHybnyBkjB1XOeCcTR9k9E3tkfHXbpsrb6WY9RiSXUjli1mQtxnIeCEDkAkmh8EBTQkRAXIR0QhB9QclNdz2yqVxNy1hiP8A+LjGPY0ISesQAgBACAyN7j/c57foz/ypRDOUfmG+d81YqcSr/rZPPd7yqFzUdthhZhbSRAYRG9wBLicukDo12XfqsK00lK3kfNpf0+UeatHNT6nmld2ltX0+UWJ6mOOQGno3DoODmzBz7ty6QHC1jn3rnGE5way5Vyt40vscoY8mTG1nzLlU40t/H3H0e2Yi9r46P+887jbgccHWvhDB3Ze1VyaXIouM8vsqt+frZXLosqg4zzf6fTTtb8c3+4bX23UskPkuZBxlrXMu60vWuXDPMHwU6fSYJQ/i6uOH44Gl0Wmnj/i6uLae3t444NOsp6/mY4WiJzTHEei1oc3E6zGknjcahZcc9J6ksjtO5ct71yY8WTQ+rLLJyTuXLbulu6M2qnq8c7JoA+WQMhL7CzCeqAR0QSLcVphDT9MJY51FXKvPn52NeOGl6McsWSoxuVXz52e+wVFJtI86HYzk2OQYmkkEXaLXuRbs7Uhk0K6Wq7tEwzfhq6GqXLTp/cWVtW7mQ18cfPtEYbG8NuGj84Bx8VEXpo9Tab6XdtX+hEXpI9blFvod21fP8pLI6rs+B0kDWxxtgcLtsWyH7Jtme08LKqWmtZVGTbbl35X+bFEtJccyjJuTcu/K8/0IKfdSz5WSyNuyB0zTG4OaCNA/surz/EbjGUFzLp3VfodMn4tcYTxxdOSjTVP7HmF6h7IIAQHcd2ZNv01JAYoaaeDmmOYzoskDHNBDTmzpAHPU3vqobpWErdFv+0aohJFZsuojsc3x3e3vIJaGnho4rD6MZbxkjd60ltKJcoOVPZstgZHwk5WlYRn3luID0lVenmi8dRB8mFys7ep56BggqI5PLsJDJGk4Qx+rdbXw/wAhdNPBxnuiupnGUPa+5yBbTAW2aDwQgeCgGy6HwQFNCQQFuDQIQfRnIb/8U39dL2/f/nRCToCAEAIAQGRvaB9Dnv8Aoz6+HtUohnKXW5hvnfNWKnEdofWyee7/AFFULl3ZDamRj4YblotK9vRHU0dc+hZNQ8GOUcmTnhc9zDqnpsU45cvP8Ke/fsasjdoyPic55xSRuEbi5g8na7gbaelZU9FCMklsmr2fPYxRf4djhOMY7RatU+eEaGzKGc04YTHG1kTp2OiAM5czgS03HWtos+bNhWbqSbbai0/4d/r9DLqM+BajqSbbkotSftp/X6FTZlRVBzW/SovLRYryuDrAX6BJBwnM5d665oadpy9N+19tvv8AJ31GPStOXpS9kqqKq/n5KtVHNMyLHVQkB3Mt6ViACbOdhGbcrgrrB4sUpdON8dXH7L5O2OWHDOfRilx1cc/CvuNOz5mMDX1DBBLPhLw7E0uYOvfW2XsU+tilJyjB9cY3XGz7ErUYZzco431xjdVTp9vqRRQtY6ZwrrPi+rLQ4mS44G+Q4K8pSkoR9LaXPGx0lOU4wi8G0ubr2/XYr0dBA+LHJUhj8YBZgJNi4AuvxyJPoXTJmzRn0wx2q5s65c+eGTohitVzaXbj+hLDs2mu5z6nyYkwCzfKObYkPDeAyCrLPnpKOP3VfO1+LKT1OppRji9zV87J+LE5uka3ozzYjJhIDbAxX1PfbgnVqXLeCqvPcdWrlLeEaq+f9xoUlNQc1UEPLrRHDzgDXh+I4MA43AF1nyZNX6mNNVvvW6rvZly5dd6uJONe7et1Vb3/AEPKr1T2wQH1fuvtKKWipzHI13kI7gOBcLMaHAgZgg5FcdQ6xs7adXkRfJXmnpGVtLZNPNlLBFJnfpxtdn25jXM596spyXDLLFF8o8TvHyZUkwHMNFO/EMThicMABuAy9rk2zyXeGokudznk0cJL27GRtXkoaISaeZ7pWgnDJhwvsOq2wGEntJIV46l3ujnk0CUfa9znojLei4EEZEHIgjIg94K2HmsChAj9D4ICihIqAtQ6BCD6W5GaUs2TBf7bpJPQ6R1vYAfShJ7dACAEAIDI3t/I57foz6uPsUohnJ3DyDfO+JVipxKvHlZPPd7yqFyzsiiEpcOeZDZpN3nCHfhB7Vn1GV40n0uW/bt8mXVZ3iSfQ5W+yuvk2Nk7Hp3SQc5VNe118TAS0t6JNiToLiyx59TmUJ9GNprvzZg1Ws1EceToxNNcPm9yOggpWdI1kkTi1wIYxxw5kYCR1hZWyzzz29JNWuX+5bPk1OTZYVJWuWt/n4I46CijDTNM9+OPEBEB0X36rr9ys82qm2scUqdb915Lyz6zI2sUEqde7uvKI6X6AAMfPk4M7YbCS/DusrT/ADlvp6efngtk/Ptvo6efnj+45n0JkID3STPczEA04WxON8jfInMadih/mp5LilFJ997RD/OZMtxSjFOt93Jf0ImTUQc68UzmmMBvSAIk4k24Kzjqml7ld+Oxdw1rivdFO99u39yy80jI4XPpZgXWJcX2a8DJxbfvsua/MynNRyRpdq48WcUtXPJkUcsaXat14srMmo3ON4pGNEJAAdiLpr5E9gsurjqUtpJvq8cROzhrIx2km+rxVR8fUyHRkagjxC1pp8G9ST4YBp7CloWiQUr8zgdlr0Tl49ir6kPKK+rDi1+pbq9hzxkAxuN2td0RiFn9W5GhvkuOPV4Zq1Lu1vtwZ8WuwZFakuWt9uOT3vIdTFlfMHtLXtpzkciLyM1B9CrqJqeNOLtHo6KcZvqi7Vdjt7liPSRUmQ7wICpOqBSDjfKds8RVpc0WErBIezHctd67A+JK36eVwPF1sFHLt33PJFdzIIUBRQkVAXIASAALk2AHaTkB60IPrjdjZn0ajp6cm5ihZG48C5rQHEeJuhJpoAQAgBAZG9p/udRlfyZ9uV/RqpRDOUgeRb53zVipxGv+tk893vKoXK6AEBsN2jT2sKUHyWDru64/OD5LG8Ga/wD9O98dvBgenz3fq/7r4XHg1Z9uQ83T4qYyYIubLJBhZe4OJhAzJzWSOky9eSslW7tc/RmGGhzeplrJ03K7W7+jXYzKOvhGAS0rcAmLy4XxlufkrnUC49S1ZMOR24ZN6qu1+TZl0+V28eV9XTVdr/mJW7VMkkY+jMeyHFhjDCSWnQPIuTbLPuVHp1CEv9Rpyre+/wAFHpFjxyfqtSlXuvv8EkNRJ0zHQts9we3oOOEMtcNJ1b2+KrKENlLK9lT3W9+f6FZY8ftU872VPdK78/PgvO2rVSGNkdL5WnLy4YLgc4bgYSOiANFwWn08FKU8ntnXfx89/kzLSaXGpSnl9s6rfx3vv8lCrdWOhbI6G0bJHS4xGG9Iusb918rWWjGtNHK4KXuaqr7GrEtHDM8cZ3JpRq72r+xoMrK+aZhlp+e5oc5zZY1uTxYE9vh3LO8WkxY36c+nq2u32Mjw6HDikseTp6trtvgqurKqClD2uZzVQ+QYQ1pLXXs4XtlobW7F1WLT5s7i0+qCW98ndYdLqNS4ST6oKO9vddu5nHeaq6Xlj0wGuyaLgCw0HYtH5DT7e3j6mr/xml29nG65+oyp3hqHkXkIs1rbN6Iszq3A4hWhosMf9vnn55LY/wAP08OI3u3vvzyeq5JNtlu1AZnkmdjosTjq44XMv2klgaPEJlxKOLpgqSPR0cIYmoRVLwd/cFgPVRXkah1iyB7VY6JlLaO1IKduKaZkY/E4A+AGpPcFaMXLhFZZYx5ZxnfjeBlZU85HfmmNEbLixNiSXWOYuTp2AL0MMOiNM8bU5Vkna4PPFdTOBQFFCQQHReRndw1VcyRzbw01pXnhzmfNN7ziGL9jwuIPpJCQQAgBACAyN7b/AEOe36M+rj7FKIZyq3kG+d8SrFTiFefKycOm73lULkUcTnXwtJsLmwvYdpVXJLllZTjGrfJpQ7vVDg8mMsDGc4cYLbtGWVxms8tbhTS6rt1tuZJ/iGni0lK7dbb7lvZuzK2Bz3shzEd3Yg13QfxAJ16J0XHNn0uZKMpd/lboz6jU6LPFRnPv2tbr/wCiwVldUOZE3E91OQ5rcLQWllgLiw0yGaiWLSYE5vZT2u3vYnh0OmjLJLZT2btu7/UfNU1x5p8kZewzl7G4RZ0lySOjnwPtURx6VdUYOn003fCKwx6KPXHHKn003fEfuS4q+81YzyQLi2Sxa0gggWwuzVK0ns08vdtt/iKVof8AT0s/dStcu/uh7qWvFmmc4GuaC5smIN53Phn42ULJpHuobu+VzRVZdC91j3aezVXX1MaprZ4ZpQ2d5diwue1xGPDkCe30rbDFiy44twVeGuD0MeHBmxQbgqq0mltZUNbIW4OcfgOZbiOEntI0K6+lDq6ulX5o7rDjUuvpV+a3FG0Jb352S5AaTjdfCBYDXQDgno46rpXnhEfl8VV0rzwufIySre5jYy4ljSS1vAF2pUrHFSckt2WjihGbmlu+/wBCFXOgICWllcx7XsJDmEPaRqC03B9FlDqtxdbn03udvIyvpmTNID7ASsFrskGotfqnUdy8vLBwlR6mKanGzbcFzOyGGNSSpHJuWPdd2IV0bbiwZNbhbJsnhmGnwC2abL/tZi1ePfrRzan09K2GAlQCFAUUJLuxdkzVUzIIGF8jzYAXsBxc4jRo1J4ID6q3H3Xj2dStp2dJ3WkfxfIQLnwyAA7AEB6BACAEAIAQGPvcP7nP5hUohnLHDyDb/e+asVOHV/1snnu95VC4tLWyRh4Y8tD24H24tPArnPFCbTkrrdHLJgx5HFzV07Xwy9DvHUtJJlLrxmOz+kMJ7AVwlocDqo1ve3kzS/DtNJKo1T6ttty9QUVWJIXCZrXOYHsdJIC3Cy1gb37cgVwy5dO4SXS2k6dLyZs+fSPHOPQ2k6aUe7/zcsRbLD4Wzmo5uV88jZJcVmCwJ0GdyRe/euctQ45HiULioppVv/iOUtU4ZXhWO4qKajW7/XwVKeNzGRPirWmQS2bHn0cRLcfSyzvc5cV1nJTlKM8W1bvz3rY7zlHJKcMmF9PTvLzW9bb/ALke1KFkZlbJU4phKAQ1pLXB1i55Pdf2K2DNKai4Y/bX6eEW02eeRQcMVQ6e7VquES01BCyZxjrmN5sB7Hljuk7PIA8R6dVWebLPGlPC3ezV9imTPmyYksmBvq2atbItbXoKUSROlkewywc5JhIkPOu7c+OfqXLT5tQ4SWOKfTKl22OOlz6pwnHHFNRl0q/b7V/bYyTFR4YvKTYi4c70W2a3jh7Tp61r6tTcvaq7b9/k3Kes6p+2NV7d3u/klbR0nNSyGVxtI1sTOiHubfNzh4XVHl1HXGHSuLb7X8FHm1fqQx9K3Tbe9J+ETPbQF7OaZUvGZe3o3Itla3tVE9YovrcU+z3OaevUJepKCe1Pcz6qamLojHG8NAHOhzrlxvnhPDJaYRzqMuqSvttwascNQozU5K+1LjxZdO0aISlzaVxjwWwOkN8V+tfw4Lh6GqeOnk918pdvBn/L614umWVdV8pdvBPsnbtPG145nAXQOjxN6Rxk5O6WmWXoXPUaTNkafVdSTp7bfY5arQ58ri+u0pJ09tvGwm4G15qesjMTy0PNnt1a5oBNnDj7wvRljjNUz2ozcN0fR+7tU6qic8NsWuwkX42BuL+Kx5NLJfw7mzHqov8Ai2LkjCMiCPFZWmtmaYtPghnp2va5jwHNcC1zToQciCidbkvfY4lvXuBJTT2pxjhkJLLkXj7WvvqBfJ3HxGfp6ebyr5PJ1XTgdt7EdHuSSBzstj2MF/HM/JbFh8s86Wt/lX6mjHufT/8A2HvLre4K3pROL1mT4IZ9xKcjoukae3EHZ94I91keGJK1uRc0dA5J9l0VCHC5+kydF0rxYFuIlrGZkNytccSPADlLE0asWqhPZ7M6guZqBACAEAIAQGRvd+Rz/qz3qUQzlLnWgHnfEqxU4jtH62Tz3f6iqFyugBAWKBkZkaJXOaw9ZzRcjLLLxXPK5qDeNW/k5ZnkUG8STl4exfq2UYh8nJM6W+jg0R2vbxBss+N6l5feo9P7/wCWZcT1bze+MVH4u/8ALHymhGLDz56hbctH6wG3sKiP5va+nv5+xEfzzrq6e98/b/si2q2lwtdAX4nOcXRu0YwdUX1JKtgeotxy1SS3Xdl9M9V1OOaqSW67vvt4LNRtGiJYWUjgACHgyE4riwI8DmucMGqSkpZPpscYafWJSUsq7V7eCF20acwti+jBr7i8oeS62K5s3S9stVdYMyyOfqbfy0dFptQszyera/lrbjySSbUgjmkMNO0xubhaJLkj8QzyKqtPlnjisk/cne3/AAUjpc+TFFZcjUk7bj3+BYt4g2Qv+i0+bA3Dg6It9oDtN81EtE3BR9SXN3Yl+HOUFD1Z7O7vf6EuxNvvikjcYQRHzmTG4XOEgtZx4tBt6lGp0KywlFSduud6rwV1f4as2OUVJ3Lp53Srx8mQ6jleS4RPzJOTHWFz4d63xjSSPSiumKQ+PY9QdIJP3HfJTRayZu7tUfzD/TYe9TRFm5uvu1OydskrQ1rLnrAkkggWwk9t1KQbPoLkxZankOecvoyY3T1qGEewc0HUXVWk+SybXB5Te3a8cQ5uMN53K5tkwa5957EjpYT5Rwza+eLaLt/8HhpJS4kuNyeJ1/8AS2xioqkeROcpy6pO2MCsVHXQCXQDboD225u8JJFPKb5eTcdcvsH0aeFuxcMkO6PQ0uobfRL7Hs1wN4IAQAgBAZW9UZdRzhoJPNnIa5Z/BSiGcjfMOZDbgnFeysVPB1+5Rc9zmSgBxLrOBJFze175qKJsjG4v/UDT7nH97RKFliLcJpt5V5Pczh6z60oWWmcnjDxnOQOTRx0PV7wlCy7HyZAgEQ1RBGXROf8AkSkLZA/dSjYS17CHNNnBz3BwI1BGVilIWxG7AoAb83p2ukPsulIWydmzaIW8izLtaT676qaG476LRjSCP/tt+KUNyxSthLw1kTcTnBo6DRm42GneUB0GLk3k4yRA9zSfbkosUTs5On8aho8GE/xBLFFhvJ0zjUO9DAPilk0Ts5PIOMsp8C0fwqLFEzNwKUaulP7Tfg1LFEse4lINQ92urzx8LJYo9BRUbImCONoa0aAe/vPeoJKO8e1xTRFwsXuyYDxPEnuAz9Xarwj1M458vpxvuctmkcSS43JJJJ1N1qPGbbdsaFIHNQAgFsgG2QDo5C0gg2IIIPYQbhQE6do6zsWu5+FkmhcMx+IZH0XCySVOj28U+uCkXVU6AgBACAEBnu2FSkkmniJJuSY26+pLFErdmQC1oYxbSzG5exATMpmDRjR4NAQEjWgZAWQCoBC4dqA5HyobNiE30iKSNxfYSsa4F4cBk+wOhAAPgO1WRDPBlSQI5ANKA2d1ebbUxSShxjjcHkNAJJbm0ZkcbX8EB1yLfujP2njuLD8LqtE2Tt3xpTo8nuyB9pTpHUSHeWPgxx9XzU9JHUMO8w4Rn94fJOkdQw7zdkX+b/hOkdQx28r+EYHiSVPSOoYd5JODWe35p0kdR5TeLajp5LuIs0YQBe2uZ8eHoC0Y40jy9Vk65/QynC6uZxLZIBzcggBpQAgFAQCID3HJ9VEtliP2SHj9rI+4etZ8y4Z6Ohls4nr1xNwIAQGftytdFGHNtfEBnpYg/JSlZDdHnzvBP2t/dVulFepkcm25/v28A35KaQtjTtaY584fZ8AlIi2MO0pT+cf+8UpCypVbXLB05X9wxOJPgLpsDCq94JHdTIdpN3fJAZVRVPf1nOd4kqCSFpQEBpWOJ6Ofd/wgAbLB0a/0An4ILJm7FI/NPPiCfggssjZ0trCN3qsgHs2bL+jcpA47Nl/Ru9SARsEzOq2QeAcPcgPR7KMmDymt8r627+9SQW/BACAZM+zSewEolbKTl0xbPNkduq0njjigEugAoBQgFJsgK0m0Im9aRo9Iv7ELKEn2Iv6Yg/SD1H5IT6cvBu7mbx00VRd8zWtcwtJdcAHIi5OQ0XPJFtbGjS3Cdvg6Xs/asE9+Zmjltrge11vGxyWZxa5PTUk+C4oJBAYu9f1I88e4q0eSsuDyoCuUAFAKhItkBlbS2UZHhwcG5WNxfTsUAbHsFls3uPhYfApQsmj2NEPsk95cfmgJ4qGMaRt9Qv7VIJRgH3R6ggB1ZGNZGDxcPmgKsm2acfnmehwPuQUQv3hph+dGXYHH3BQKKsm9tLwc4nub87JYo9DstjpWtfhc1jhcF1g4jhle4v3rNl1UY2lyacWmlKm+DVFKy97e9YXqMjVWbVgxp3Rn7wThkeQGJxs3LQDU/wA9q0aKMpT52Ri/EsscWPZe58HmzWP+8fYF6/SjwHnyPuMNU8/bd606UR6uTyxDO85FxI706UQ8s2qbIgrFBQgKlTIRIwA66hR3LJKmW2qSpn7V2kIR2uOg+J7kLwg5Hlaiqe83e4uPsHgNApNailwQFqFhQhAiAmpKx8T2yRvLHtILXDUEe8do0KNXsyVtuj6Q3b2qKqmiqALc425GtnDJwv3EELFJU6NsXas0lUsY+9H1I88e4q0eSsuDyhCuVFAQCIQK4oSJdCBUJBCDwu9klqog5izcgSLi2d/aoZZFNop5O1ju85fz6lBJQ2jQStIseh94fHsQFCaNzR9Zke3X0ICOwt9abcb3QGnu3R00tTEyQgMLruxOwghoJsSbDOwHpXPLJxg3Hk6YopzSfB1qk3mpZZuZjlDnWuCAcBINsLXEWce4dhXmSwzUepo9GOaDfSmbC5HU8hvDUl0zhwZZo9Vz7fcvc0UFHEn53Pl/xLK552uy2MxazAKEAqAagFQFFz8U4A+yPb/JVe5fiJPWVQjjc88B6zwHrVisY9To8TUTukcXuzJP827lJtSSVIZZCQCALoBqAAEB2jkWqS6jkYfzczgPBzWu95cs2Ze41YH7ToC4nYx96fqR549xVo8lZcHlFcoDUJFQAgEaEAIQKhJS2jsqKcdNufBwycPT8CgPIbW3XljF2eUaOzrDxbx9CiibM6irXMy1bxB+CgkWv2ax1pWC7eLeAQGNOGl1gy7hrwCAR775c0MXggH89Jpgse3gLIC9FtWuGlVLpb6x2XrVHjg+y/Qv6k/LNak20bAS3c7i4ZkntNzme9aIzSVHn5dI5Sck+fJpQ7Qid9sDxy966KaZklgyR5ROwjUKxyHBAJZAQ1dQGD8R0H88FDZMY2M2fAW3Luscz3DsRImTvgx96Z+qwH8R9w+KlHbAuWYAKk7gSgBoQBdAF0AhKA6jyG1BvVRnS0bxlx6YOfoHqXDP2NGDujq6zmgx96Pqh549xVo8lZHlSrlRLIBQgDEgEDkIEDUA5oQkVANegM/aOxIps3Nwu+83J3p4H0qBZ5ip2VPTk2bzrHZXaCddLgZg+xRRazMZsuY6QyZ/gI9tkBYbu/UnPmj6XNHxShZZj3UqDrgH7R+AU0RZai3OeetI0eAJ+SULLEe5rftSk+DQPeSlCyzHuhANS93pA9wShZcp9gwMN2sI/bf81K2KSipcotuoIz9m3gSrdbOT0+N9iN+z2AcR6VPWyj0uOjz8VK0OLjckm4vwXWjz+ptUWFJB4ja8l5pD+K37uXwUm3GqiiohcQIBUIEAQkDZAIgOm8iEnlqlvbGw/uucP4lwz8I7YOWddWc0mPvR9SPPHuKtHkrI8oVcoAQAhIiEAGoBSgFahIl7oBSgAIByAaSgECAWyAeGE6An2oCVtBKdI3n9kqLQplluxpz9i3iW/NLRNMnbu5KdSwek/JR1IdJPHuyeMnqb/wAqOonpJX7txhpJe4mx7ANPBOohx2OaBveth4Q+6EnP5XXJPab+sqTehEAhQkSyAWyECISLdCDpfIhF5epd2RsH7znH+Fcc/CO+DlnXVmNJQ2xQmZgaCB0r3PcD81KdENWYx3Zf99vtVuor0i/1ak++32p1DpEG7L/vt9qdQ6RTu0/77fanUOkUbtv++32p1DpD+rT/AL7fUU6iekT+rT/vt9uqdRHSJ/VqT77Len5J1DpBu7Un32+35J1DpHf1bf8Afb6inUOkmj3ZHGT1Nt7SVHUT0k8e7kQ1Lj6QPcE6mOksx7FgH2L+JJ95UWyaRYjoIgbiNoPbhCWKJwLaKCRUAIAQAgGyNuCL2uCLjUXQhq0eKduG7hOP3P8AyXf1vg8/8i/5v2HjcIZ+XOmVmf8AknrfBZaH/wBv2PNf2QSf4tlv1Rv/AK1PrrwdvQfktN5H2f4t3/aH+5R6/wAFvQ+SNvI/nnVm1uEWd/37WU+v8Eeh8kjeR9nGrd6IgP4lHr/BPoLyKOR+P/FP0/Rt19aeu/A9BeRw5H4f8VJ+43RPXfgegvJKOSGm41E3qZ/tT134HoLyen3T3ShoBJzTpHGTDiMhB6l7ABoAHWK5zm5cnSEFHg9AqFwQAgBACAEAIAQAgBACAEAIAQAgBACAEAIAQAgBACAEAIAQAgBACAEAIAQAgBACAEAIAQAgBACAEAIAQAgBACAEAIAQAgBACAEAIAQAgBACAEAIAQAgBACA/9k=;" vertex="1" parent="1">
          <mxGeometry x="367" y="520" width="73" height="58.69" as="geometry" />
        </mxCell>
        <mxCell id="alU_MBT53UwqVfEiX-St-27" value="攻撃者" style="text;html=1;align=center;verticalAlign=middle;resizable=0;points=[];autosize=1;" vertex="1" parent="1">
          <mxGeometry x="5" y="335.67" width="50" height="20" as="geometry" />
        </mxCell>
        <mxCell id="alU_MBT53UwqVfEiX-St-28" value="管理者" style="text;html=1;align=center;verticalAlign=middle;resizable=0;points=[];autosize=1;" vertex="1" parent="1">
          <mxGeometry x="378.5" y="578.69" width="50" height="20" as="geometry" />
        </mxCell>
        <mxCell id="alU_MBT53UwqVfEiX-St-29" value="" style="endArrow=classic;html=1;rounded=0;" edge="1" parent="1">
          <mxGeometry width="50" height="50" relative="1" as="geometry">
            <mxPoint x="400" y="519" as="sourcePoint" />
            <mxPoint x="260" y="459" as="targetPoint" />
            <Array as="points">
              <mxPoint x="400" y="509" />
              <mxPoint x="260" y="509" />
            </Array>
          </mxGeometry>
        </mxCell>
        <mxCell id="alU_MBT53UwqVfEiX-St-30" value="SSH" style="text;html=1;align=center;verticalAlign=middle;resizable=0;points=[];autosize=1;" vertex="1" parent="1">
          <mxGeometry x="303" y="490" width="40" height="20" as="geometry" />
        </mxCell>
      </root>
    </mxGraphModel>
  </diagram>
</mxfile>
